<svg width="159" height="187" viewBox="0 0 159 187" fill="none" xmlns="http://www.w3.org/2000/svg">
<path d="M26.7944 84.959C27.2238 85.0392 27.5676 84.4751 27.1382 84.2345C24.7945 83.2583 21.3833 85.4865 22.5844 88.0185C23.3066 89.5419 25.8124 90.6658 27.1382 89.5475C27.3109 89.3872 27.1382 89.2254 26.967 89.2254C26.3307 89.2753 25.6911 89.1759 25.1061 88.9362C24.521 88.6965 24.0088 88.324 23.6159 87.8525C22.5378 86.3994 24.4777 84.4765 26.7944 84.959Z" fill="#191919"/>
<path d="M28.3251 96.1274C30.3118 99.3837 32.6837 99.3749 32.2928 98.5079C31.5745 97.598 30.2367 97.4355 29.1104 95.5503C28.2864 94.2583 27.8131 92.7317 27.7466 91.151C27.7466 91.0061 27.4863 90.9343 27.4863 91.0792C27.3058 91.9394 27.2871 92.8316 27.4314 93.7002C27.5757 94.5688 27.8799 95.395 28.3251 96.1274Z" fill="#191919"/>
<path d="M21.1417 165.557C20.3742 165.638 19.6285 165.855 18.9419 166.197C18.1714 166.546 17.3215 166.696 16.4739 166.634C15.6263 166.571 14.8094 166.299 14.1017 165.842C12.0416 164.51 12.5541 162 10.8758 162C9.85085 162 9.48188 163.068 9.11547 163.779C6.66718 167.982 4.52381 169.834 2.80962 172.885C2.51624 173.454 0.609881 176.513 1.63609 176.585C7.38591 177.188 12.4285 183.233 18.3552 183.983C18.511 184.017 18.674 184 18.8194 183.936C18.9648 183.872 19.0847 183.764 19.161 183.627C19.7774 183.14 20.2842 182.535 20.6499 181.849C21.0157 181.164 21.2328 180.414 21.2877 179.644C21.3607 177.936 20.1142 176.94 18.7254 176.086C15.5725 174.251 17.4571 172.001 19.972 169.399C20.7048 168.616 22.5343 167.762 22.3178 166.482C22.3882 165.908 21.8015 165.557 21.1417 165.557Z" fill="#38A1FF"/>
<path d="M16.7024 185.298C16.3046 185.673 15.818 185.928 15.2937 186.037C14.8717 186.037 14.238 185.741 14.3783 185.223C14.5198 184.854 14.0966 184.56 13.7447 184.707C13.5685 184.827 13.3655 184.898 13.1556 184.911C12.9456 184.924 12.7361 184.879 12.5475 184.782C12.3359 184.634 12.0554 184.265 12.2658 184.043C12.5475 183.674 12.1956 183.083 11.7736 183.377C11.5251 183.574 11.2312 183.699 10.9219 183.738C10.6126 183.777 10.2989 183.729 10.013 183.599C9.73247 183.377 9.37936 182.861 9.73247 182.566C9.79135 182.494 9.82703 182.404 9.83448 182.309C9.84193 182.214 9.82077 182.119 9.77399 182.037C9.72722 181.956 9.65718 181.892 9.57379 181.854C9.49039 181.816 9.39785 181.807 9.30923 181.828C8.95901 182.003 8.57789 182.1 8.19008 182.112C7.80226 182.125 7.41622 182.053 7.05645 181.9C6.5643 181.531 6.6332 181.236 6.5643 180.792C6.5643 180.644 6.91618 179.683 6.14106 180.054C5.83906 180.251 5.49836 180.373 5.14473 180.411C4.79109 180.449 4.4338 180.403 4.0999 180.275C3.67665 180.054 3.25464 179.463 3.53639 179.02C3.57942 178.937 3.5958 178.842 3.58307 178.749C3.57034 178.656 3.5292 178.569 3.46579 178.502C3.40237 178.436 3.3201 178.392 3.23126 178.379C3.14241 178.365 3.05178 178.382 2.97289 178.427C2.75052 178.594 2.48981 178.696 2.21757 178.722C1.94532 178.748 1.67137 178.698 1.42387 178.576C1.14212 178.355 0.860365 177.836 1.21225 177.543C1.42387 177.396 1.28238 176.878 1.00063 177.026C-0.384757 177.687 0.508482 180.205 2.62101 179.539C2.68587 179.875 2.82217 180.192 3.01978 180.466C3.2174 180.739 3.47123 180.962 3.76242 181.119C4.0536 181.275 4.37465 181.361 4.70168 181.369C5.02872 181.377 5.35333 181.308 5.65138 181.167C5.72151 182.793 7.41202 183.163 8.67929 182.867C8.67929 184.047 9.7337 185.031 11.3553 184.567C11.3998 184.805 11.4926 185.029 11.6275 185.225C11.7624 185.422 11.9361 185.585 12.1368 185.704C12.3374 185.823 12.5603 185.896 12.79 185.916C13.0197 185.936 13.251 185.904 13.4678 185.822C14.0313 187.67 16.0737 187.005 17.1294 186.118C17.6228 185.669 17.1294 185.004 16.7024 185.298Z" fill="#191919"/>
<path d="M15.9411 159.22V159.08C15.362 158.277 12.8189 163.755 15.6428 164C15.8416 164 16.0422 164 16.1416 163.861C16.6405 163.306 16.0422 162.408 15.8416 161.853C15.5255 160.985 15.5599 160.074 15.9411 159.22Z" fill="#191919"/>
<path d="M59.9015 104.964C59.9428 104.989 59.9878 105.001 60.0331 105C60.0785 104.999 60.1232 104.985 60.1638 104.958C60.2045 104.932 60.2401 104.894 60.268 104.847C60.2959 104.8 60.3154 104.746 60.3251 104.688C60.5375 103.21 57.4268 102.38 56.65 102.01C56.3672 101.918 56.2252 102.473 56.4376 102.655C58.1356 103.77 58.0504 103.851 59.9015 104.964Z" fill="#191919"/>
<path d="M55.5333 105.561C56.3239 105.745 57.0821 106.027 57.786 106.399C58.0968 106.538 58.7956 107.167 59.1064 106.958C60.192 106.33 57.0871 105.143 56.699 105.074C56.341 105.015 55.977 104.991 55.6134 105.003C55.3013 105.003 55.2212 105.498 55.5333 105.561Z" fill="#191919"/>
<path d="M41.6044 96.3591C43.2584 95.2513 44.4941 93.603 45.1085 91.6849C45.4388 91.7451 45.7744 91.7694 46.1097 91.7576C46.1685 91.74 46.2209 91.7053 46.2606 91.6578C46.3003 91.6102 46.3255 91.5519 46.333 91.4899C46.3406 91.4279 46.3303 91.3651 46.3033 91.309C46.2763 91.253 46.2338 91.2062 46.181 91.1744C45.6804 90.8082 37.5133 89.1327 36.9401 89.0562C36.707 88.9901 36.4617 88.9822 36.225 89.0331C35.9882 89.0839 35.767 89.1921 35.5798 89.3484C34.869 90.0409 34.4352 90.9775 34.3621 91.9771C33.9441 95.8487 38.5358 98.2069 41.6044 96.3591ZM35.9465 90.2238C36.0151 90.1352 36.102 90.0632 36.2011 90.0129C36.3002 89.9626 36.409 89.9352 36.5196 89.9328C36.8062 89.9328 44.4703 91.6121 44.5416 91.6121C44.041 92.1966 42.3928 94.6747 41.8196 95.1851C39.1615 97.4821 35.3357 95.2834 35.2306 92.7019C35.1612 92.2605 35.1894 91.8089 35.3133 91.3802C35.4371 90.9514 35.6535 90.5563 35.9465 90.2238Z" fill="#191919"/>
<path d="M66.9241 96.9721C67.2534 97.1131 67.3847 96.6888 67.319 96.4055C67.1221 95.9813 66.6604 95.6275 66.4623 95.202C66.1997 94.6045 66.0647 93.9516 66.0673 93.2909C66.0673 92.6576 64.7937 92.9482 65.6067 95.27C65.6973 95.6398 65.8621 95.9839 66.0897 96.2779C66.3173 96.5719 66.6021 96.8089 66.9241 96.9721Z" fill="#191919"/>
<path d="M64.5155 98.7942C64.7051 98.9654 65.3354 99.2274 65.3354 98.62C65.3354 98.099 64.7051 97.5794 64.5155 97.1462C64.1296 96.3228 63.9522 95.3474 64.0108 94.3713C64.0747 93.9381 63.57 93.8517 63.4432 94.2849C63.2845 95.0985 63.3014 95.958 63.4918 96.7586C63.6822 97.5593 64.0379 98.2665 64.5155 98.7942Z" fill="#191919"/>
<path d="M61.5504 96.1979C60.4631 98.7679 63.8345 100.641 64.234 99.7937C64.2796 99.7488 64.3109 99.6974 64.3257 99.6431C64.3405 99.5888 64.3384 99.5328 64.3196 99.4791C64.3007 99.4254 64.2656 99.3753 64.2166 99.3322C64.1676 99.2891 64.106 99.2542 64.0359 99.2297C63.404 98.9262 62.9147 98.4956 62.6312 97.9932C62.3476 97.4908 62.2827 96.9397 62.4449 96.4109C62.4711 96.3297 62.4537 96.2444 62.3962 96.1717C62.3386 96.099 62.2451 96.044 62.1336 96.0175C62.0221 95.991 61.9008 95.9947 61.793 96.0281C61.6852 96.0614 61.5988 96.1219 61.5504 96.1979Z" fill="#191919"/>
<path d="M30.9681 158.551C31.7756 161.573 33.3804 162.13 33.0845 161.54C32.0639 160.228 30.676 151.844 30.8214 151.552C32.0065 149.068 35.3654 142.54 36.2979 140.545C36.5173 140.036 35.7136 139.817 35.4942 140.181C34.3997 142.003 33.5233 143.97 32.5742 145.793C24.3997 162.122 26.9995 157.554 21.4032 164.602C21.134 164.957 21.6277 165.677 23.5935 163.434C26.1946 160.719 28.154 156.839 29.9451 153.083C30.0918 153.594 30.8214 158.113 30.9681 158.551Z" fill="#191919"/>
<path d="M19.1514 137.995L19.1514 137.995L19.1532 137.987C19.3748 136.954 19.6448 135.933 19.9622 134.926C19.8164 135.634 19.6333 136.452 19.4236 137.36C19.2591 138.072 19.079 138.836 18.8896 139.639C18.5275 141.175 18.1317 142.854 17.7468 144.585C17.0828 147.464 15.7989 150.112 14.5644 152.657C14.5242 152.74 14.484 152.823 14.4439 152.906C13.3585 155.146 12.3149 157.333 11.8739 159.478C12.04 158 12.7165 156.548 13.3845 155.114C13.4552 154.962 13.5257 154.811 13.5955 154.66L13.5961 154.658C15.9824 149.452 16.8717 147.469 17.4115 145.69C17.6825 144.797 17.8644 143.96 18.1037 142.811C18.13 142.685 18.1569 142.555 18.1848 142.421C18.4115 141.329 18.6988 139.945 19.1514 137.995ZM20.3537 132.302L20.3207 132.729L19.7117 132.616C19.7457 132.533 19.8002 132.468 19.8547 132.424C19.9268 132.367 19.9939 132.349 20.0106 132.345C20.031 132.339 20.0438 132.338 20.0438 132.338C20.0438 132.338 20.0354 132.339 20.0156 132.339C19.94 132.339 19.8111 132.328 19.6174 132.307C19.4967 132.294 19.3542 132.277 19.195 132.258C18.8731 132.22 18.483 132.173 18.0676 132.134C16.8219 132.016 15.1852 131.944 13.8083 132.312L13.806 132.313C13.5202 132.391 13.2699 132.503 13.0684 132.658C13.0782 132.607 13.0895 132.553 13.1022 132.495L13.4929 132.317C13.7574 132.196 14.1655 132.103 14.718 132.049C15.2628 131.996 15.9143 131.984 16.6449 132.006C17.7563 132.039 19.0297 132.149 20.3537 132.302ZM44.9413 133.947C45.0741 133.921 45.2006 133.896 45.3213 133.872C44.27 134.256 43.1617 134.467 42.0399 134.494L41.8692 134.498V134.491L41.7042 134.502L41.4645 134.508L41.4664 134.52L41.3333 134.529C39.913 134.632 38.5071 134.634 37.0889 134.562C38.5525 134.62 39.7926 134.594 40.8551 134.522C42.6654 134.4 43.9704 134.14 44.9413 133.947ZM43.3733 154.067C42.9413 150.109 42.2794 144.042 42.0004 139.064C42.0448 139.628 42.0836 140.171 42.1189 140.667L42.1224 140.716L42.1227 140.72C42.4208 144.445 42.7159 147.41 42.9666 149.795C43.0405 150.499 43.1105 151.151 43.1754 151.756C43.3312 153.207 43.4583 154.392 43.5431 155.381C43.5496 155.456 43.5558 155.53 43.5617 155.603C43.5375 155.386 43.5069 155.17 43.4699 154.954C43.4393 154.673 43.407 154.376 43.3733 154.067ZM43.2333 159.813C43.5248 158.748 43.6569 157.647 43.6272 156.548C43.7181 158.217 43.6061 159.103 43.2333 159.813ZM51.42 106.158C51.3607 106.104 51.3046 106.047 51.2519 105.985C51.3062 106.045 51.3623 106.102 51.42 106.158ZM53.0484 98.8163L52.9414 98.7956L52.9716 98.7438C53.8312 98.8895 54.6764 99.1073 55.5051 99.4151L55.5156 99.419L55.5263 99.4224C56.7841 99.8264 57.9462 100.461 58.9571 101.286C58.6324 101.042 58.2959 100.814 57.9487 100.602L57.9398 100.597L57.9306 100.592C56.4071 99.746 54.7593 99.1468 53.0484 98.8163ZM49.2832 98.507C49.2845 98.507 49.2858 98.507 49.287 98.507L49.2723 98.5318L49.2832 98.507ZM47.8579 103.677C47.8334 103.274 47.8549 102.868 47.9223 102.469C47.876 102.869 47.8543 103.272 47.8579 103.677Z" fill="black" stroke="black"/>
<path d="M100.308 107.212C100.164 106.135 97.9196 107.777 97.5638 108.001C96.2429 108.831 93.6642 110.87 93.5923 110.941C91.7225 110.367 89.9287 109.571 88.2493 108.573C88.5382 108.214 88.899 107.785 89.1879 107.426C89.345 107.506 89.5165 107.555 89.6926 107.569C89.7504 107.562 89.806 107.543 89.8561 107.513C89.9061 107.483 89.9494 107.444 89.9833 107.397C90.0172 107.35 90.0409 107.296 90.053 107.24C90.065 107.183 90.0652 107.124 90.0534 107.068C89.7645 106.278 88.6189 105.689 88.0348 105.202C85.3299 102.931 82.7638 100.613 80.3087 98.1025C80.2227 98.0235 80.1122 97.9758 79.9954 97.9672C79.8785 97.9587 79.7623 97.9898 79.6655 98.0554C79.5688 98.1211 79.4974 98.2174 79.4629 98.3286C79.4285 98.4398 79.4331 98.5594 79.476 98.6677C77.6605 100.066 77.6794 99.882 76.1958 101.114C76.3427 100.055 76.278 98.978 76.0055 97.9442C75.7329 96.9103 75.2578 95.9399 74.6074 95.0886C72.6582 92.7213 67.8918 91.8604 66.4472 95.2327C66.3753 95.3756 66.6642 95.5911 66.7361 95.447C69.349 92.3567 74.7033 93.7026 75.189 99.679C75.3745 102.084 74.1229 102.812 72.2999 104.127C65.5515 109.154 64.3277 110.593 62.0467 111.019C61.1018 111.211 60.1205 111.115 59.2315 110.744C58.3424 110.372 57.5871 109.743 57.0646 108.937C56.9055 108.702 56.8064 108.431 56.7757 108.149C56.7539 108.105 56.7185 108.069 56.6746 108.047C56.6307 108.024 56.5806 108.016 56.5319 108.025C56.4832 108.033 56.4383 108.056 56.4041 108.091C56.3698 108.127 56.3479 108.172 56.3417 108.221C56.1978 110.516 58.581 111.879 60.6021 112.023H61.8297L60.0975 113.314C60.0437 113.345 59.9969 113.387 59.9602 113.437C59.9234 113.487 59.8974 113.544 59.8838 113.605C59.8702 113.666 59.8693 113.728 59.8811 113.789C59.8929 113.85 59.9172 113.908 59.9524 113.959C62.952 120.657 68.3594 126.003 75.1171 128.951C75.2264 129 75.349 129.013 75.4663 128.987C75.5835 128.961 75.689 128.898 75.7668 128.807C77.5982 124.762 79.722 120.855 82.1216 117.116C85.4349 116.077 88.8409 115.356 92.2928 114.964C92.5116 116.059 92.8756 117.12 93.3753 118.12C93.804 119.532 94.4629 120.864 95.3257 122.065C95.3888 122.19 96.2429 123.17 96.5533 122.496C99.2342 116.657 100.546 109.346 100.308 107.212ZM75.107 127.798C70.1763 125.541 65.9756 121.965 62.9753 117.47C62.2068 116.267 61.5076 115.022 60.881 113.74C68.7774 107.975 79.3195 99.763 79.6993 99.0186C82.367 101.894 85.2749 104.539 88.3919 106.927C83.0417 113.261 78.5734 120.281 75.107 127.798ZM95.9035 121.341C95.3989 120.195 93.5203 115.389 92.8757 114.456C92.8731 114.397 92.8569 114.339 92.8285 114.287C92.8 114.235 92.7599 114.189 92.7113 114.155C92.6627 114.12 92.6069 114.097 92.5479 114.087C92.4889 114.077 92.4285 114.08 92.371 114.097C90.4937 114.384 83.9951 115.676 82.6225 116.178C83.6318 114.675 87.1 109.939 87.8216 109.077C93.3967 112.043 93.2024 112.276 95.0431 110.87C96.4145 109.867 99.3755 107.929 99.4474 107.862C99.004 112.515 97.8073 117.067 95.9035 121.341Z" fill="#38A1FF"/>
<path d="M37.1897 71.6073C37.3292 71.5379 37.3989 71.399 37.2594 71.3296C33.5427 69.4781 26.6278 75.7599 26.3354 81.8565C26.3368 81.8888 26.3487 81.9199 26.3692 81.9449C26.3898 81.97 26.4179 81.9877 26.4494 81.9956C26.481 82.0034 26.5142 82.0008 26.5442 81.9883C26.5741 81.9757 26.5992 81.9539 26.6156 81.9259C27.7595 79.3679 28.5731 76.2252 31.8678 73.8389C34.8309 71.695 35.9345 72.2334 37.1897 71.6073Z" fill="#191919"/>
<path d="M41.2342 72.8147C41.2656 72.7843 41.2912 72.7449 41.3087 72.6997C41.3263 72.6545 41.3354 72.6048 41.3354 72.5543C41.3354 72.5038 41.3263 72.4541 41.3087 72.4089C41.2912 72.3637 41.2656 72.3243 41.2342 72.2939C40.6549 71.9751 40.009 71.9137 39.3992 72.1193C38.4218 72.2374 37.473 72.6061 36.6094 73.2035C35.7458 73.8008 34.9851 74.6146 34.3728 75.5963C34.2363 75.8574 34.5081 76.1171 34.6446 75.944C36.0816 74.594 37.7246 73.6463 39.4669 73.1624C40.0678 73.1884 40.6672 73.0705 41.2342 72.8147Z" fill="#191919"/>
<path d="M46.2904 73.5192C46.3096 73.4904 46.3231 73.4578 46.33 73.4233C46.337 73.3887 46.3372 73.353 46.3308 73.3184C46.3243 73.2838 46.3113 73.2509 46.2925 73.2219C46.2737 73.1928 46.2495 73.1682 46.2214 73.1495C45.8051 72.8535 45.1819 73.0758 44.6979 73.1495C43.0823 73.5229 41.5955 74.3682 40.4033 75.5912C40.3634 75.6324 40.3394 75.688 40.3359 75.7471C40.3324 75.8062 40.3496 75.8646 40.3843 75.9108C40.419 75.957 40.4685 75.9878 40.5233 75.9971C40.578 76.0063 40.6341 75.9934 40.6804 75.9609C41.9924 75.1528 43.3866 74.5075 44.8358 74.0375C45.0988 74.0659 45.3644 74.0344 45.6152 73.9451C45.8659 73.8557 46.096 73.7106 46.2904 73.5192Z" fill="#191919"/>
<path d="M50.3297 73.296C50.4051 72.8237 49.7237 73.0256 49.4962 73.1614C48.0219 74.2522 46.325 75.0782 44.4992 75.5937C44.4455 75.6086 44.3996 75.6404 44.3701 75.6831C44.3406 75.7258 44.3294 75.7766 44.3386 75.8262C44.3478 75.8757 44.3767 75.9205 44.4201 75.9525C44.4635 75.9844 44.5184 76.0013 44.5746 75.9999C47.419 75.9999 50.3297 73.9915 50.3297 73.296Z" fill="#191919"/>
<path d="M48.8241 77.9709C49.9959 77.3113 51.321 76.9396 52.6805 76.8892C53.1056 76.9611 53.5407 76.9611 53.9659 76.8892H54.0412C54.4957 76.8161 54.3438 76.6005 54.1178 76.3849C53.9768 76.2592 53.8102 76.1624 53.6285 76.1004C53.4467 76.0384 53.2536 76.0125 53.0609 76.0244C52.2297 75.9516 51.3917 76.0421 50.5985 76.2901C49.8053 76.5382 49.0737 76.9386 48.4489 77.4667C48.1424 77.6822 48.5215 78.1159 48.8241 77.9709Z" fill="#191919"/>
<path d="M43.3097 86.8928C44.1047 87.3825 44.5409 86.0845 44.2397 85.2191C43.7822 83.8102 41.0961 83.4592 43.0235 85.042C43.5322 85.35 43.6484 85.775 43.2372 86.2738C43.0235 86.4509 43.0947 86.7173 43.3097 86.8928Z" fill="#191919"/>
<path d="M47.332 83.7643C47.2815 82.5251 46.3851 82.9382 46.3354 83.97C46.3354 85.496 47.4034 85.2417 47.332 83.7643Z" fill="#191919"/>
<path d="M40.3286 82.7639C40.2276 81.5251 38.4347 81.938 38.3354 82.9712C38.3354 84.4949 40.4713 84.2425 40.3286 82.7639Z" fill="#191919"/>
<path d="M40.0963 79.9708H40.341C40.5256 79.9708 41.4475 80.4592 41.3241 79.807C41.0826 78.7375 39.8012 78.8102 39.051 79.5621C38.7982 79.7907 38.571 80.0654 38.3759 80.3781C38.3411 80.456 38.3282 80.5477 38.3394 80.6371C38.3506 80.7265 38.3852 80.8077 38.4371 80.8665C38.8524 81.4176 39.2689 80.0918 40.0963 79.9708Z" fill="#191919"/>
<path d="M47.2666 80.3474C46.4642 79.451 45.0448 80.5279 45.388 80.9112C45.5331 81.0733 45.605 80.9112 45.7501 80.9112C46.2926 80.6082 46.6017 81.0607 46.9776 80.993C47.0442 80.9916 47.1091 80.9699 47.1654 80.9302C47.2217 80.8905 47.2672 80.8344 47.297 80.7679C47.3267 80.7014 47.3396 80.627 47.3343 80.5529C47.3289 80.4788 47.3055 80.4077 47.2666 80.3474Z" fill="#191919"/>
<path d="M61.134 100.535C61.3292 100.732 61.5851 100.882 61.874 100.967C62.2434 101.091 62.3907 100.843 62.3171 100.596C62.2434 100.224 61.8004 100.038 61.5783 99.7308C61.134 99.1737 61.0616 98 60.7646 98C60.3874 97.9968 59.8772 99.3522 61.134 100.535Z" fill="#191919"/>
<path d="M57.2921 96.4616C57.2191 96.9012 56.9308 97.558 57.3639 97.9247C57.4485 97.9827 57.5506 98.0085 57.6521 97.9975C58.2287 97.7049 59.237 92.2923 59.3088 92.2923C61.8126 91.9294 64.8314 91.0797 66.1544 93.3145C66.2979 93.533 66.3697 93.7528 66.5144 93.9726C66.5921 94.0652 66.6975 94.1296 66.8145 94.1559C66.9315 94.1822 67.0538 94.1689 67.1627 94.1182C67.3793 93.9726 67.3793 93.533 67.2345 93.2404C67.0489 92.7812 66.7752 92.364 66.4295 92.0131C66.0837 91.6621 65.6727 91.3844 65.2203 91.196C64.3183 90.879 63.356 90.7788 62.4093 90.9034C58.2756 91.2961 54.1942 92.1296 50.2325 93.3899C51.2937 90.5188 51.0067 88.5957 50.5207 85.6377C50.1089 83.8399 49.9153 81.9977 49.9442 80.1522C49.9442 80.0066 49.7289 79.9337 49.7289 80.0794C49.4814 80.7606 49.3355 81.4755 49.2959 82.2005C49.2959 84.9439 50.1343 87.4393 49.7994 90.6107C49.3618 92.794 48.5313 94.8766 47.3497 96.7543C47.2779 96.974 47.4932 97.1925 47.638 97.0469C48.6919 96.2824 49.495 95.2139 49.9429 93.9802C51.6008 93.6148 53.1857 93.2481 54.8436 92.958C54.4927 94.2729 54.275 95.6207 54.1941 96.9804C54.2027 97.1005 54.2558 97.2127 54.3427 97.2947C54.4296 97.3766 54.5438 97.4222 54.6624 97.4222C54.7809 97.4222 54.8951 97.3766 54.982 97.2947C55.0689 97.2127 55.122 97.1005 55.1307 96.9804C55.0931 95.5812 55.2143 94.1822 55.4919 92.8111C57.0655 92.4916 58.1607 92.3958 58.4452 92.3C58.3722 92.3664 57.4356 95.8036 57.2921 96.4616Z" fill="#191919"/>
<path d="M146.958 179.617C146.887 180.102 147.593 180.102 147.735 179.755C148.934 176.636 149.922 173.585 152.109 170.88C152.816 170.048 153.589 169.217 154.297 168.314C154.438 168.176 154.156 167.899 154.016 168.038C153.513 168.341 152.994 168.619 152.462 168.87C149.006 170.81 146.451 173.992 145.335 177.745C145.335 177.815 145.476 177.884 145.476 177.815C146.962 174.49 149.356 171.634 152.392 169.563C149.509 172.239 147.6 175.772 146.958 179.617Z" fill="#191919"/>
<path d="M157.842 173.007C156.766 173.184 155.727 173.548 154.77 174.083C151.806 175.999 149.546 178.872 148.346 182.25C148.277 182.465 148.556 182.537 148.695 182.394C150.593 179.73 152.59 175.34 156.655 174.006C156.115 174.193 153.948 177.248 152.955 179.739C152.233 181.249 151.671 182.835 151.28 184.469C151.209 184.899 151.768 185.257 151.978 184.755C152.786 183.214 153.951 177.022 158.191 173.577C158.54 173.365 158.19 172.939 157.842 173.007Z" fill="#191919"/>
<path d="M134.799 168.45C134.799 168.662 135.113 168.875 135.239 168.592C135.597 167.409 135.891 166.203 136.118 164.981C136.461 163.754 136.86 162.549 137.313 161.369C137.439 161.086 136.998 160.874 136.81 161.086C134.732 163.352 132.656 166.397 132.341 169.725C132.279 170.079 132.78 170.079 132.844 169.796C133.463 167.324 134.509 165.014 135.923 162.999C135.529 164.357 134.607 166.735 134.799 168.45Z" fill="#191919"/>
<path d="M90.1029 179.897C90.0641 176.592 88.7246 171.43 89.0324 171.98C89.5676 172.943 91.6363 177.418 91.9428 177.901C92.019 178.106 92.4017 177.969 92.3255 177.762C91.6564 174.02 88.6109 169.285 86.0444 166.129C85.9845 166.065 85.9016 166.021 85.8099 166.006C85.7182 165.991 85.6235 166.005 85.542 166.045C85.4605 166.086 85.3973 166.151 85.3632 166.229C85.3291 166.307 85.3263 166.393 85.3553 166.473C87.7313 170.673 89.2612 175.218 89.8741 179.897C89.7965 180.034 90.1042 180.034 90.1029 179.897Z" fill="#191919"/>
<path d="M87.933 181.989C88.0799 182.131 88.4484 181.989 88.3015 181.775C87.8832 180.859 87.3899 179.977 86.8262 179.137C85.5513 176.858 83.8797 174.808 81.8847 173.078C81.5162 172.793 81.1477 173.363 81.4427 173.648C83.6019 176.409 85.2259 179.525 86.236 182.845C86.3107 183.13 86.7514 182.987 86.6793 182.702C86.1567 180.749 85.4671 178.841 84.6176 176.998C85.5999 178.735 86.7078 180.403 87.933 181.989Z" fill="#191919"/>
<path d="M30.928 180.985C36.7191 178.754 42.9799 181.697 48.7507 180.058C49.0429 179.988 49.4806 179.916 49.6274 179.702C50.4301 178.919 50.4301 176.924 50.2106 175.926C50.144 175.284 49.8976 174.672 49.4983 174.156C49.099 173.641 48.5623 173.243 47.9467 173.006C47.1313 172.816 46.3002 172.697 45.4633 172.65C41.5927 172.152 43.2722 167.306 44.2216 164.953C44.5866 164.027 44.9516 163.101 44.0761 162.389C43.8735 162.244 43.6527 162.124 43.4189 162.033C43.1238 161.98 42.8204 161.991 42.53 162.065C42.2396 162.138 41.9694 162.273 41.7382 162.46C36.5315 166.045 35.3179 162.219 32.6776 163.387C31.4359 163.957 31.3631 165.452 31.3631 166.593C31.3159 169.269 31.0471 171.938 30.5591 174.572C30.4175 175.207 29.9823 181.342 30.928 180.985Z" fill="#38A1FF"/>
<path d="M35.4844 183.918C35.8318 183.911 36.1745 183.822 36.492 183.655C36.8095 183.489 37.0953 183.248 37.3323 182.948C37.9515 184.045 39.1743 184.417 40.6792 183.028C40.8155 183.3 41.0045 183.53 41.2306 183.698C41.4567 183.867 41.7134 183.97 41.9797 183.998C42.2966 184.012 42.6124 183.947 42.9068 183.808C43.2012 183.669 43.4677 183.459 43.6891 183.191C43.9116 183.524 44.2273 183.753 44.5796 183.836C44.8503 183.886 45.1273 183.862 45.3885 183.764C45.6498 183.666 45.8881 183.497 46.0845 183.271C46.2805 183.468 46.5099 183.613 46.7573 183.697C47.0046 183.781 47.2643 183.801 47.5189 183.757C47.9329 183.618 48.3117 183.362 48.6219 183.009C48.9321 182.657 49.1641 182.22 49.2975 181.737C49.5031 181.172 48.8194 180.687 48.5444 181.251C48.3713 181.87 48.0365 182.408 47.5882 182.787C47.2463 182.948 46.6319 182.948 46.5614 182.382C46.4933 181.898 46.0151 181.978 45.8095 182.302C45.7095 182.479 45.5783 182.628 45.4248 182.74C45.2713 182.851 45.0992 182.922 44.9202 182.948C44.6465 182.948 44.1672 182.787 44.2353 182.302C44.3034 181.816 43.7572 181.412 43.4835 181.898C43.232 182.436 42.8159 182.84 42.3204 183.027C41.9092 183.109 41.1574 182.786 41.3642 182.218C41.3869 182.116 41.3808 182.007 41.3469 181.909C41.3129 181.811 41.2529 181.728 41.1758 181.674C41.0987 181.619 41.0087 181.596 40.9194 181.607C40.8301 181.618 40.7462 181.663 40.6804 181.735C40.2685 182.331 39.7236 182.778 39.1074 183.027C38.6962 183.109 37.7388 182.786 37.9444 182.139C38.0806 181.654 37.4662 181.411 37.2594 181.815C36.9225 182.464 36.3814 182.929 35.7545 183.109C35.2764 183.189 34.5234 182.865 34.5915 182.218C34.5915 181.735 34.044 181.654 33.8384 181.977C33.7255 182.221 33.5695 182.435 33.3808 182.602C33.1921 182.769 32.9752 182.887 32.7447 182.947C32.4029 183.027 31.7179 182.543 31.9917 182.057C32.1291 181.735 31.7861 181.33 31.5817 181.654C30.6517 183.024 32.5499 184.871 34.044 183.109C34.4311 183.566 34.9398 183.852 35.4844 183.918Z" fill="#191919"/>
<path d="M85.3354 63.6511C83.0321 62.8251 80.8285 61.7986 78.7574 60.5871C78.6019 60.5193 78.7574 60.3837 78.9116 60.3837C80.8473 61.1318 82.9385 62.0168 85.0284 62.6294C84.0819 61.2208 82.7347 60.0532 81.1193 59.2415C79.5038 58.4298 77.6759 58.0019 75.8154 58C75.7411 58.002 75.6682 58.0187 75.6022 58.0488C75.5362 58.079 75.4788 58.1218 75.4343 58.1742C75.3897 58.2265 75.3591 58.287 75.3447 58.3512C75.3304 58.4153 75.3327 58.4815 75.3514 58.5448C75.5021 59.4957 75.9022 60.4029 76.5201 61.1946C77.138 61.9862 77.9567 62.6407 78.9116 63.1063C83.4769 64.6717 85.2583 63.7189 85.3354 63.6511Z" fill="#38A1FF"/>
<path d="M99.779 29.0006C99.7105 29.0032 99.6435 29.0223 99.5827 29.0565C99.522 29.0908 99.4691 29.1392 99.4279 29.1984C99.3867 29.2576 99.3583 29.326 99.3446 29.3985C99.331 29.4711 99.3326 29.5461 99.3492 29.6179C99.7766 31.5728 100.846 33.2933 102.359 34.4596C103.871 35.626 105.724 36.1587 107.573 35.9588C108.718 35.8035 108.431 35.2632 107.646 34.6445C106.066 33.5149 104.359 32.607 102.568 31.9427C102.353 31.8644 102.497 31.555 102.639 31.555C104.524 31.7151 106.332 32.4381 107.859 33.6435L107.216 32.7154C106.309 31.5385 105.171 30.5946 103.885 29.952C102.598 29.3095 101.196 28.9845 99.779 29.0006Z" fill="#38A1FF"/>
<path d="M78.7344 78C80.8084 77.9171 82.7678 76.9871 84.1896 75.4109C85.6114 73.8347 86.3814 71.7388 86.3333 69.5759C86.1259 69.7921 85.9184 69.9355 85.7121 70.1517C84.0548 71.7347 82.605 73.6056 81.0864 75.3332C81.0583 75.3583 81.0221 75.3713 80.9851 75.3698C80.9481 75.3683 80.913 75.3523 80.8868 75.325C80.8606 75.2977 80.8453 75.2611 80.8438 75.2226C80.8424 75.184 80.8549 75.1463 80.879 75.1169C82.1623 72.8191 83.7945 70.7533 85.7121 69C81.5761 69.7179 79.5498 73.1303 78.3942 77.3474C78.3573 77.4118 78.337 77.485 78.3355 77.56C78.334 77.635 78.3513 77.709 78.3856 77.7749C78.42 77.8408 78.4702 77.8962 78.5314 77.9357C78.5925 77.9751 78.6625 77.9973 78.7344 78Z" fill="#38A1FF"/>
<path d="M72.3354 21.2217C71.6281 19.2042 70.3411 17.4417 68.6366 16.1565C66.9321 14.8714 64.8864 14.121 62.7574 14C62.6922 14.002 62.6282 14.0188 62.5703 14.0489C62.5124 14.0791 62.4619 14.1219 62.4227 14.1743C62.3836 14.2266 62.3566 14.2871 62.3438 14.3513C62.3311 14.4155 62.3329 14.4818 62.3491 14.5452C63.8422 18.9018 66.5174 21.1087 69.1428 21.7669C69.8471 21.9755 70.5852 22.0451 71.3159 21.9717C71.113 21.6991 70.9088 21.3586 70.7047 21.0861C69.5444 19.5808 68.1975 18.23 66.6966 17.0663C66.629 16.9973 66.6966 16.8616 66.7655 16.9294C67.309 17.2698 67.9203 17.5424 68.4639 17.9519C69.5019 18.6878 70.4382 19.5583 71.2483 20.5409C72.3354 21.9026 72.3354 21.3586 72.3354 21.2217Z" fill="#38A1FF"/>
<path d="M135.28 0.133019C135.233 0.0851154 135.176 0.0486552 135.115 0.0261155C135.054 0.00357584 134.989 -0.00451426 134.924 0.00239226C134.86 0.00929878 134.797 0.0310422 134.741 0.066144C134.685 0.101246 134.637 0.148884 134.6 0.205823C133.101 3.64162 132.149 11.0254 136.436 13C136.436 8.82468 135.047 2.80757 135.756 3.56881C136.733 6.04359 137.242 8.70252 137.253 11.3907C137.253 11.7572 137.321 12.1225 137.321 12.4878C139.363 8.46577 138.14 3.35679 135.28 0.133019Z" fill="#38A1FF"/>
<path d="M92.3583 24.4599C92.5115 24.3962 92.6634 24.3962 92.7393 24.5235C91.0621 26.1859 88.5456 27.1455 87.2493 29C89.361 28.786 91.3498 28.0524 92.9648 26.8917C94.5799 25.731 95.7488 24.1952 96.3242 22.478C96.3735 22.2356 96.2803 21.8949 95.6368 22.0311C91.3671 22.478 87.0215 24.909 86.3354 28.6168C88.1508 27.0462 90.1712 25.6517 92.3583 24.4599Z" fill="#38A1FF"/>
<path d="M65.2112 59.6004C66.6799 58.7488 67.9248 57.484 68.8234 55.9306C69.7219 54.3771 70.2431 52.5886 70.3354 50.7414C69.2398 51.858 68.2577 53.1064 67.407 54.464C67.0744 54.9842 66.6743 55.4317 66.4079 55.9532C66.3416 56.0274 66.2091 55.9532 66.2754 55.8778C67.2632 53.7124 68.5432 51.7299 70.0703 50C69.9377 50 68.0071 50.372 65.2775 53.4989C64.1459 54.8386 63.0201 57.0419 63.4167 58.9331C63.6132 59.8852 63.7586 60.412 65.2112 59.6004Z" fill="#38A1FF"/>
<path d="M114.885 34.7037C115.872 30.3126 117.558 28.9936 117.737 28.7243C117.756 28.7108 117.779 28.7018 117.804 28.6982C117.828 28.6946 117.853 28.6965 117.876 28.7037C117.9 28.7109 117.921 28.7232 117.938 28.7395C117.955 28.7558 117.967 28.7757 117.973 28.7973C117.832 29.1477 117.726 29.5092 117.657 29.8772C116.866 31.8394 116.283 33.8655 115.915 35.9283V36C119.717 34.199 120.983 28.7973 120.034 25.3388C120.016 25.2637 119.976 25.1944 119.918 25.138C119.861 25.0816 119.788 25.0403 119.707 25.0182C119.626 24.9961 119.54 24.9941 119.458 25.0124C119.376 25.0307 119.301 25.0687 119.241 25.1223C115.836 27.6394 113.222 31.6064 114.813 35.7118C114.76 35.3748 114.785 35.0316 114.885 34.7037Z" fill="#38A1FF"/>
<path d="M79.8989 7.5687C79.9695 7.49509 80.0401 7.5687 80.0401 7.64105C79.6152 8.36703 79.2597 9.16409 78.8348 9.96495C78.0447 11.4611 77.4262 13.0458 76.9916 14.6876C76.921 15.0506 76.7786 15.4136 76.708 15.8502C77.6935 15.3391 78.5436 14.5909 79.1854 13.6697C81.4244 10.7676 82.5359 7.11913 82.3057 3.4273C82.3054 3.35101 82.2853 3.27618 82.2473 3.21053C82.2094 3.14487 82.1551 3.09076 82.09 3.05378C82.0249 3.0168 81.9513 2.99828 81.8769 3.00013C81.8024 3.00198 81.7298 3.02413 81.6665 3.06431C79.3054 4.12915 77.4302 6.07769 76.4243 8.51172C75.5659 10.5234 74.8289 13.9579 75.7864 15.9213V16C75.7864 15.9226 77.2047 9.96495 79.8989 7.5687Z" fill="#38A1FF"/>
<path d="M73.1118 46.7693C71.0677 45.2302 68.9159 43.8471 66.6737 42.6311C66.5992 42.5548 66.6737 42.4771 66.7496 42.4771C67.8586 42.9028 68.6105 42.8546 73.3354 45.8495C72.7649 44.2462 71.756 42.8447 70.429 41.8121C69.102 40.7796 67.5129 40.1595 65.8512 40.0258C65.1018 39.9495 61.8089 39.9495 62.4078 41.4047C62.8207 42.457 63.4604 43.4003 64.2792 44.164C69.5181 48.1482 73.1118 46.7693 73.1118 46.7693Z" fill="#38A1FF"/>
<path d="M130.818 41.4959C130.837 41.4668 130.865 41.4439 130.899 41.4308C130.933 41.4177 130.97 41.415 131.006 41.4232C131.042 41.4313 131.073 41.4499 131.097 41.4761C131.12 41.5023 131.133 41.5347 131.135 41.5685C130.867 44.0991 130.283 46.5928 129.394 49C133.51 46.4541 133.984 41.3495 132.713 37.3423C132.694 37.2758 132.659 37.2141 132.61 37.1617C132.562 37.1094 132.501 37.0677 132.433 37.0397C132.364 37.0118 132.29 36.9983 132.215 37.0002C132.141 37.0021 132.067 37.0194 132.001 37.0508C128.359 39.3103 125.825 44.7012 128.359 48.417C128.792 48.0186 129.326 44.3486 130.818 41.4959Z" fill="#38A1FF"/>
<path d="M115.527 177.497C116.168 177.307 116.843 177.254 117.506 177.341C118.17 177.427 118.808 177.652 119.377 178C120.195 177.163 121.263 176.607 122.423 176.415C122.705 175.922 123.074 175.484 123.512 175.12C122.757 171.92 122.226 168.673 121.922 165.401C121.291 165.231 120.681 164.989 120.106 164.681C115.867 162.361 116.658 155.9 116.473 150.429C116.473 148.559 115.748 145.823 116.329 144.023C117.127 141.793 119.452 145.32 120.106 146.111C119.888 143.304 117.927 114.081 117.568 110.271C116.388 96.1284 114.959 76.5206 117.205 63.0535C117.205 61.6601 120.813 58.8294 121.854 57.7982C125.996 53.9774 130.496 50.5553 135.292 47.5781C135.365 47.5064 135.292 47.4347 135.219 47.4347C134.057 48.0823 132.968 48.8017 131.805 49.3776C126.567 52.27 121.615 54.6493 118.149 58.0874C119.712 49.9412 122.685 42.1242 126.938 34.9824C134.68 22.4145 142.088 20.5357 150.184 14.2529C151.199 13.4619 152.215 12.5967 153.23 11.7378C153.521 11.4511 153.156 10.9468 152.793 11.2348C147.11 15.4941 138.047 18.9512 138.047 19.3674C141.168 14.8842 145.02 7.77404 144.803 2.30998C144.798 2.23229 144.765 2.15881 144.711 2.10248C144.657 2.04615 144.584 2.01057 144.506 2.00201C144.428 1.99344 144.35 2.01245 144.284 2.05567C144.219 2.09889 144.171 2.16356 144.149 2.2383C140.499 17.1239 127.358 25.7055 119.233 43.12L117.272 47.656C116.909 46.4312 116.618 45.2076 116.256 44.0569C115.072 40.32 113.335 36.7783 111.1 33.5476C110.26 32.3807 109.337 31.2742 108.339 30.2364C108.049 29.9484 107.612 30.3081 107.832 30.5961C113.422 38.3061 115.518 49.4971 116.113 50.6779C113.829 56.889 113.608 58.2698 111.755 63.7778C111.027 66.0817 110.301 68.7439 107.469 66.7293C101.294 62.4109 97.2265 55.2139 92.6499 49.3826C89.9617 45.9998 87.2013 42.4661 85.7481 38.2986C84.0817 33.3426 84.8076 29.6693 86.4753 24.2631C86.5477 23.9751 86.0387 23.6871 85.894 24.0468C84.1502 27.7892 82.4064 32.2523 82.9153 36.4261C79.7195 32.5403 77.9033 27.7892 76.1595 23.1841C74.0777 17.9987 72.6365 12.583 71.8672 7.05472C71.7948 6.69506 71.2859 6.69506 71.2859 7.05472C71.0117 21.6423 78.8286 35.0227 87.4133 46.9304C86.0227 46.6889 84.6104 46.5924 83.1996 46.6424C76.6762 46.4936 70.2233 48.0051 64.4577 51.0326C64.1671 51.1772 64.4577 51.6098 64.676 51.4652C71.2135 48.5137 80.9481 47.2184 87.8486 49.7373C91.0456 50.8892 93.1512 54.1286 94.829 56.8626C94.9052 56.9883 99.2534 64.1174 99.5503 64.2054C98.1662 63.9051 96.7385 63.8561 95.3367 64.0608C89.9782 64.4695 84.2378 65.2982 79.7919 68.2359C79.7437 68.2695 79.7092 68.3192 79.6949 68.3759C79.6805 68.4325 79.6871 68.4924 79.7136 68.5447C79.74 68.5969 79.7845 68.638 79.8389 68.6605C79.8933 68.683 79.9541 68.6854 80.0102 68.6672C85.2747 67.0626 91.736 65.4039 97.2988 66.22C98.3142 66.3646 101.004 66.508 101.512 67.4449C104.449 72.1439 106.629 77.2673 107.975 82.6311C109.202 88.1731 109.428 98.1291 110.227 116.316C110.445 116.46 114.585 120.707 115.239 123.154C116.531 127.42 112.883 130.891 111.177 127.257C110.959 126.754 110.742 126.321 110.524 125.817C110.8 135.706 111.175 150.377 110.814 161.446C110.742 164.685 109.942 173.538 109.942 173.682C111.68 173.538 115.166 174.475 115.527 177.497Z" fill="#38A1FF"/>
<path d="M125.051 174.248C126.097 171.351 128.332 172.461 128.332 171.613C128.343 171.494 128.326 171.374 128.282 171.27C128.239 171.166 128.171 171.084 128.09 171.037C127.333 170.908 126.566 171.119 125.907 171.64C125.248 172.16 124.734 172.96 124.444 173.916C124.136 174.766 124.53 175.688 125.051 174.248Z" fill="#191919"/>
<path d="M109.466 171.863C108.293 171.173 104.413 170.571 103.419 171.408C103.258 171.521 103.339 171.692 103.581 171.749C104.625 171.97 106.116 171.375 108.579 172.147C108.901 172.26 110.269 173 110.269 173C110.594 172.886 109.627 171.976 109.466 171.863Z" fill="#191919"/>
<path d="M139.884 173.736C140.234 173.879 140.44 173.676 140.281 173.544C139.816 171.651 132.989 171.213 132.335 173.866C132.335 173.994 132.495 174.058 132.574 173.93C133.766 172.641 136.627 172.579 138.294 173.157C139.584 173.576 139.062 173.516 139.884 173.736Z" fill="#191919"/>
<path d="M107.125 182.031C108.538 182.309 109.834 182.974 110.853 183.944C111.077 184.086 111.45 183.944 111.301 183.662C109.799 180.014 103.091 180.551 102.35 182.671C102.275 182.955 102.5 183.097 102.798 183.097C104.032 182.976 104.456 181.689 107.125 182.031Z" fill="#191919"/>
<path d="M100.718 173.065C100.45 173.078 100.189 173.149 99.9541 173.274C99.7195 173.399 99.5179 173.575 99.3648 173.786C99.2899 173.93 99.3648 174.147 99.5146 174.147C100.434 174.259 101.718 173.516 103.501 174.651C103.667 174.722 103.82 174.82 103.952 174.94C103.988 174.973 104.034 174.993 104.083 174.999C104.132 175.004 104.182 174.994 104.225 174.969C104.267 174.945 104.3 174.907 104.319 174.863C104.338 174.819 104.34 174.77 104.327 174.724C103.997 174.108 103.465 173.612 102.814 173.312C102.162 173.012 101.426 172.925 100.718 173.065Z" fill="#191919"/>
<path d="M103.042 114.083C102.9 114.083 102.828 114.008 102.685 114.008C102.328 113.931 102.186 114.46 102.542 114.535C104.295 115.028 105.899 115.987 107.2 117.322C108.502 118.656 109.458 120.321 109.976 122.157C110.785 124.794 111.331 127.886 112.409 127.997C113.353 128.096 114.282 125.998 114.335 124.949C114.334 120.463 109.097 114.083 103.042 114.083ZM112.692 127.063C112.148 127.782 111.916 126.649 111.335 124.8C110.124 119.526 109.423 118.086 105.773 115.503C107.607 116.171 109.249 117.322 110.544 118.847C111.839 120.372 112.744 122.22 113.174 124.218C113.356 125.198 113.184 126.215 112.692 127.068V127.063Z" fill="#191919"/>
<path d="M104.766 129C104.502 129 104.239 129.221 104.37 129.513C104.798 130.624 105.128 131.779 105.358 132.961C106.054 137.365 104.993 141.77 106.344 144.409C106.426 144.599 106.558 144.757 106.722 144.862C106.887 144.967 107.075 145.014 107.264 144.997C108.382 144.776 108.777 142.501 108.974 141.547C109.359 139.764 109.437 137.916 109.204 136.101C108.439 130.435 105.011 129.031 104.766 129ZM108.444 139.419C108.279 141.017 107.831 142.563 107.128 143.968C107.099 143.84 106.979 144.015 106.723 141.903C106.234 137.86 106.921 133.377 105.352 129.587C106.421 130.612 107.237 131.926 107.72 133.402C108.395 135.313 108.645 137.377 108.45 139.419H108.444Z" fill="#191919"/>
<path d="M117.191 144.46C116.802 144.035 116.335 143.75 116.335 144.318C116.413 145.17 116.568 146.023 116.724 146.799C117.655 156.074 116.588 159.966 118.744 162.704C120.686 165.118 122.94 163.839 123.871 161.495C125.037 158.444 123.795 155.035 122.473 152.191C121.221 149.351 119.434 146.735 117.191 144.46ZM122.55 162.283C122.248 162.854 121.853 163.418 121.076 163.275C116.976 162.34 118.92 152.093 117.5 145.667C117.967 146.236 118.355 146.874 118.821 147.513C121.591 151.565 124.824 157.99 122.55 162.283Z" fill="#191919"/>
<path d="M37.5857 161.17C36.9463 160.87 36.4224 160.413 36.0796 159.855C36.0006 159.785 35.445 158.678 35.366 159.093C35.2888 159.563 35.3585 160.043 35.5678 160.481C35.777 160.92 36.118 161.301 36.5549 161.585C37.5857 162.347 39.3482 161.973 37.5857 161.17Z" fill="#191919"/>
<path d="M40.6133 160.335C40.2684 160.697 40.1292 161.215 40.8904 160.905C41.5839 160.542 41.4483 159.457 40.6133 160.335Z" fill="#191919"/>
<path d="M105.941 176.711C107.876 175.326 110.187 174.769 112.142 176.141C112.931 176.882 113.493 177.819 113.766 178.848C113.032 179.089 112.406 179.567 111.994 180.2C111.847 180.414 112.142 180.628 112.289 180.485C113.315 179.883 114.438 179.449 115.611 179.204C118.434 178.944 120.08 180.743 120.704 180.984C120.746 181 120.791 181.004 120.834 180.996C120.878 180.987 120.918 180.966 120.95 180.936C120.981 180.906 121.003 180.867 121.011 180.825C121.02 180.783 121.016 180.739 121 180.699C120.919 180.413 120.779 180.146 120.589 179.914C120.399 179.681 120.162 179.488 119.893 179.345C120.17 179.088 120.465 178.85 120.778 178.634C121.313 178.343 121.906 178.167 122.518 178.118C123.129 178.069 123.745 178.147 124.322 178.349C124.617 178.42 126.463 179.344 126.241 178.491C126.093 177.922 123.805 176.853 123.288 177.209C124.625 176.071 126.259 175.308 128.013 175.002C130.006 174.717 131.407 175.642 132.958 176.782C132.993 176.814 133.039 176.834 133.087 176.839C133.136 176.844 133.185 176.834 133.226 176.81C133.268 176.786 133.301 176.749 133.319 176.705C133.337 176.662 133.34 176.614 133.328 176.568C132.812 174.646 130.153 173.933 128.382 174.005C127.225 174.097 126.1 174.424 125.083 174.964C124.065 175.504 123.177 176.245 122.476 177.138C122.476 177.209 122.403 177.209 122.403 177.28C121.781 177.299 121.174 177.465 120.635 177.763C120.095 178.061 119.639 178.482 119.308 178.99H119.233C118.495 178.6 117.681 178.361 116.843 178.287C116.005 178.214 115.16 178.308 114.362 178.563C114.73 176.212 111.852 174.361 109.711 174.361C108.279 174.394 106.891 174.84 105.725 175.642C104.522 176.403 103.473 177.368 102.629 178.491C100.167 176.674 96.7908 177.518 96.3549 178.919C96.2814 179.06 96.4297 179.204 96.5767 179.204C97.1524 179.071 97.7192 178.905 98.274 178.706C100.337 178.136 101.596 179.204 103.146 180.272C103.884 180.77 103.295 179.205 103.146 179.062C104.169 178.349 104.969 177.407 105.941 176.711Z" fill="#191919"/>
<path d="M21.5 116.5L23 105C24.2 103 28.1667 101.5 30 101L37 100L43.5 99L49 98.5C47.8 99.7 47.8333 103.333 48 105L46.5 106.5L41 109L35 111L28.5 113L21.5 116.5Z" fill="#FFCEBF"/>
<path d="M13.5 131.5L23 105L21.5 117L25 115L45.5 108V116L45 121V127L46 133.5L39 134.5L32.5 134L26.5 133L21 132L13.5 131.5Z" fill="#38A1FF"/>
</svg>
