<svg width="453" height="346" viewBox="0 0 453 346" fill="none" xmlns="http://www.w3.org/2000/svg">
<path d="M355.246 276.917L350.359 267.294H355.296C355.636 267.333 355.978 267.236 356.246 267.023C356.515 266.811 356.688 266.5 356.727 266.16C356.767 265.82 356.669 265.479 356.457 265.21C356.244 264.942 355.934 264.769 355.594 264.729C353.618 264.729 343.659 264.73 341.94 265.127C341.209 265.318 340.788 266.586 341.735 266.832C343.898 267.219 346.099 267.344 348.292 267.206C348.652 268.103 349.006 268.655 349.368 269.553C345.816 270.912 335.255 276.379 333.536 277.25L330.586 272.681C331.201 272.579 331.87 272.541 332.448 272.388C333.638 272.055 333.358 269.822 332.139 269.962C329.929 270.176 327.735 270.532 325.57 271.027C324.442 271.265 324.618 273.441 326.187 273.324C326.889 273.26 327.586 273.157 328.277 273.017C329.394 274.853 330.508 276.674 331.61 278.507L329.558 282.228C320.578 274.531 309.607 287.887 313.109 299.279C317.24 312.661 334.215 309.145 334.177 294.149C336.383 293.839 338.59 293.558 340.757 293.122C342.923 292.687 349.585 273.541 350.163 271.719L353.242 278.238C341.593 287.951 352.099 308.081 364.417 300.819C376.735 293.558 368.833 269.474 355.246 276.917ZM329.829 286.733C330.584 288.477 331.102 290.315 331.37 292.196L326.12 293.387C327.38 291.181 328.617 288.962 329.829 286.733ZM314.997 293.249C315.754 283.397 324.363 280.69 328.291 284.549C326.354 287.583 324.781 290.834 323.606 294.237C322.951 296.984 329.815 294.813 331.498 294.572C331.215 308.621 313.859 308.057 314.997 293.249ZM334.024 291.775C333.734 289.023 332.783 286.381 331.253 284.076C331.843 283.011 332.443 281.947 333.01 280.881L338.593 290.992C337.064 291.261 335.555 291.48 334.024 291.775ZM340.69 289.618L334.698 279.097C338.998 277.434 343.182 275.484 347.221 273.26C345.135 278.752 342.904 284.154 340.69 289.618ZM364.736 297.189C356.01 305.81 344.542 289.808 354.473 280.7C355.294 282.447 358.822 290.12 361.412 290.042C364.003 289.963 361.158 287.168 360.698 286.63C358.974 284.363 357.551 281.882 356.465 279.25C366.138 273.812 371.793 290.206 364.734 297.189H364.736Z" fill="#38A1FF"/>
<path d="M391.324 94.9121C390.35 95.0193 390.745 96.3763 391.562 96.4644C404.097 97.8762 419.198 97.5167 424.612 112.258C414.682 115.634 395 107.359 387.584 100.533C388.208 99.324 388.542 97.9865 388.562 96.626C388.581 95.2656 388.284 93.9192 387.695 92.6928C387.105 91.4665 386.239 90.3937 385.165 89.5588C384.091 88.724 382.837 88.1499 381.503 87.8817C383.796 80.7703 384.346 73.2119 383.107 65.8435C381.868 58.475 378.875 51.5124 374.382 45.5423C369.802 39.7427 369.249 40.5903 367.057 46.2565C361.719 60.3696 363.681 79.2181 372.342 86.9675C372.971 87.5318 374.178 86.9675 373.771 86.12C368.509 75.4827 363.967 62.5242 370.652 44.8828C382.456 57.8794 381.327 79.8586 378.582 87.8008C373.835 88.4293 369.19 91.56 369.421 96.781C357.874 99.9379 335.138 114.82 336.459 129.024C336.973 134.516 364.79 126.367 371.628 107.214C372.192 105.659 369.588 104.904 369.164 106.499C365.983 118.47 349.918 125.743 338.821 127.836C342.08 113.992 357 103.15 369.985 99.4165C373.923 105.985 380.956 109.449 386.574 102.123C393.517 111.104 416.598 119.027 427.092 114.094C429.223 113.139 423.002 91.4505 391.324 94.9121Z" fill="#38A1FF"/>
<path d="M108.83 305.052C107.914 308.432 107.657 311.956 108.073 315.433C108.083 315.773 108.228 316.095 108.476 316.329C108.724 316.562 109.054 316.688 109.394 316.678C109.735 316.668 110.057 316.523 110.291 316.275C110.524 316.027 110.65 315.697 110.639 315.356C110.831 311.905 110.706 308.443 110.266 305.014C110.023 304.31 109.07 304.557 108.83 305.052Z" fill="#38A1FF"/>
<path d="M114.898 303.874C116.603 303.024 150.155 279.805 149.42 278.109C148.684 276.414 97.757 266.075 96.8047 265.832C95.8524 265.589 57.903 287.706 58.7506 288.554C59.5981 289.401 113.203 304.717 114.898 303.874ZM99.9378 295.327C99.2473 295.703 98.3355 294.918 98.9378 294.237C102.93 290.649 107.251 287.445 111.844 284.666C106.368 283.152 101.235 282.1 95.6286 281.047C89.9957 284.409 84.877 287.554 79.4394 291.313C78.7585 291.775 78.1562 290.708 78.6823 290.197C82.4653 285.987 88.0601 283.485 92.7955 280.585C89.1179 280.009 85.5299 278.962 82.1201 277.469C81.4059 277.136 81.594 275.826 82.4653 276.019L95.3857 278.893C98.4807 276.66 103.752 272.169 106.728 270.451C107.473 270.015 108.447 271.041 107.897 271.734C104.91 274.601 101.658 277.179 98.1831 279.431L114.196 283.114C118.06 280.526 121.94 277.96 125.833 275.417C126.909 274.724 128.052 276.341 126.974 277.045L116.76 283.78C121.469 285.064 126.205 286.347 130.873 287.63C132.042 287.963 131.588 290.054 130.373 289.735C125.036 288.323 119.739 286.756 114.422 285.268C110.101 288.271 104.211 293.003 99.9378 295.327Z" fill="#38A1FF"/>
<path d="M101.068 303.269C100.773 307.119 100.311 311.033 100.297 314.919C100.297 316.202 102.44 316.202 102.542 314.919C102.823 311.036 102.853 307.139 102.633 303.253C102.597 303.07 102.499 302.906 102.355 302.788C102.21 302.671 102.03 302.607 101.844 302.609C101.658 302.611 101.478 302.679 101.337 302.799C101.195 302.92 101.1 303.086 101.068 303.269Z" fill="#38A1FF"/>
<path d="M247.512 188.838C246.302 189.228 207.493 209.97 208.174 210.843C208.855 211.717 262.572 221.107 264.203 220.683C265.834 220.259 306.343 199.537 306.343 198.318C306.343 197.099 248.728 188.445 247.512 188.838ZM284.461 198.151C280.542 200.326 276.608 202.465 272.657 204.568C276.007 205.222 279.357 205.851 282.704 206.608C283.987 206.891 283.64 208.989 282.307 208.701C278.123 207.844 273.932 206.988 269.734 206.134C263.189 209.546 256.582 213.124 249.769 215.948C249.012 216.255 248.397 215.05 249.114 214.664C254.98 211.61 260.854 208.598 266.732 205.556L249.321 202.618C248.409 202.773 235.463 210.624 232.527 211.829C232.375 211.908 232.198 211.926 232.033 211.88C231.868 211.834 231.726 211.728 231.636 211.582C231.546 211.436 231.514 211.262 231.547 211.093C231.579 210.925 231.675 210.775 231.813 210.674C236.396 207.494 241.198 204.643 246.183 202.142C243.283 201.718 238.548 201.308 236.034 200.63C235.16 200.392 235.122 198.987 236.125 198.975C238.472 198.975 248.493 200.682 249.031 200.589C253.538 198.128 258.071 195.725 262.63 193.38C263.734 192.802 264.517 194.571 263.413 195.137C259.642 197.08 255.891 199.064 252.161 201.089C258.011 201.987 263.799 202.949 269.622 204.027C274.227 201.601 278.808 199.129 283.364 196.611C284.442 195.897 285.544 197.497 284.454 198.099L284.461 198.151Z" fill="#38A1FF"/>
<path d="M195.997 334.281C195.85 331.385 195.64 328.493 195.369 325.606C195.369 325.415 193.547 323.337 193.393 327.763C193.351 329.987 193.424 332.212 193.612 334.429C193.631 334.745 193.776 335.041 194.013 335.251C194.251 335.46 194.562 335.567 194.878 335.548C195.195 335.528 195.49 335.384 195.7 335.146C195.91 334.909 196.017 334.597 195.997 334.281Z" fill="#38A1FF"/>
<path d="M137.992 309.876C138.23 310.776 200.591 325.272 201.925 325.015C203.258 324.758 235.953 297.893 235.477 296.944C235.001 295.994 179.845 284.871 177.907 284.802C175.97 284.733 137.749 308.978 137.992 309.876ZM191.635 292.258L180.331 300.16L198.187 303.393L210.091 294.065C211.117 293.256 212.59 294.682 211.564 295.494L200.749 303.986L215.081 307.964C216.364 308.312 215.993 310.312 214.733 309.966L198.734 305.579C195.877 307.812 186.593 315.471 184.25 316.611C184.091 316.689 183.91 316.71 183.737 316.671C183.565 316.631 183.411 316.533 183.302 316.393C183.194 316.253 183.137 316.08 183.141 315.902C183.145 315.725 183.211 315.555 183.326 315.421C187.406 311.721 191.69 308.252 196.156 305.029L178.193 301.681C174.422 304.322 167.865 309.212 164.08 311.188C163.366 311.559 162.58 310.609 163.209 310.045C167.144 306.825 171.256 303.827 175.524 301.065C171.309 300.146 167.17 298.906 163.144 297.355C163.026 297.266 162.939 297.142 162.895 297.001C162.85 296.86 162.85 296.709 162.896 296.568C162.941 296.427 163.029 296.304 163.147 296.215C163.265 296.126 163.408 296.076 163.556 296.072C168.265 297.229 172.96 298.422 177.669 299.6L190.666 290.518C191.699 289.785 192.687 291.48 191.635 292.263V292.258Z" fill="#38A1FF"/>
<path d="M185.914 334.729C186.114 331.753 186.324 328.777 186.503 325.748C186.741 321.808 184.746 321.373 184.219 325.313C183.822 328.262 183.719 331.726 183.505 334.717C183.398 336.386 185.81 336.269 185.914 334.729Z" fill="#38A1FF"/>
<path d="M132.862 315.152C131.105 314.073 118.556 311.957 115.399 310.545C115.203 310.446 114.976 310.429 114.768 310.498C114.56 310.566 114.387 310.715 114.288 310.91C114.189 311.106 114.172 311.333 114.241 311.541C114.31 311.75 114.458 311.922 114.654 312.021C119.222 314.074 124.003 315.614 128.91 316.614C123.367 318.832 117.939 321.244 112.306 323.492C101.902 320.27 91.5484 316.602 81.2207 313.457C83.3634 313.147 95.9219 311.84 96.8861 310.89C99.3621 308.429 92.6245 309.443 92.0865 309.517C90.0081 309.826 78.5899 311.121 77.7424 312.559C77.421 313.111 76.871 313.688 77.5495 314.035C87.7935 318.512 98.3461 322.247 109.126 325.211C112.385 326.163 112.459 325.98 115.989 324.837C120.403 323.408 126.124 320.313 129.667 318.911C130.629 318.513 135.326 316.664 132.862 315.152Z" fill="#38A1FF"/>
<path d="M216.705 335.357C215.319 334.141 201.308 331.741 198.82 331.767C198.658 331.785 198.506 331.855 198.387 331.966C198.268 332.078 198.188 332.225 198.159 332.385C198.13 332.546 198.154 332.712 198.227 332.857C198.3 333.003 198.418 333.122 198.563 333.195C201.732 334.479 209.991 335.926 214.293 337.043C208.072 339.826 202.375 341.457 196.332 343.868C196.163 343.728 170.813 337.005 165.923 335.914C170.132 334.486 174.353 333.041 178.541 331.591C180.081 331.065 179.298 328.922 178.041 329.372C172.985 331.042 168.018 332.969 163.159 335.145C162.554 335.467 162.683 336.826 163.299 337.133C167.38 339.121 186.138 343.799 193.464 345.614C196.837 346.449 197.659 345.818 201.277 344.78C202.989 344.237 222.518 338.052 216.705 335.357Z" fill="#38A1FF"/>
<path d="M65.1811 90.5641C67.0752 90.7928 68.9954 90.4808 70.7195 89.664C72.4437 88.8472 73.9015 87.5591 74.9242 85.9486C75.947 84.3381 76.4931 82.471 76.4992 80.5632C76.5054 78.6553 75.9713 76.7847 74.9589 75.1677C71.9568 70.0347 65.0026 69.38 59.5626 71.037C61.2434 63.7614 55.4176 57.8071 47.8087 56.3454C40.8307 54.9978 31.5553 56.4477 27.627 63.0686C25.9986 65.8279 24.9344 70.3823 26.9747 73.2559C14.1186 71.4584 9.11896 85.0335 19.9681 89.1523C26.0248 91.4354 56.9199 90.1474 65.1811 90.5641ZM27.6675 88.0047C9.37132 87.4143 17.6968 73.6083 25.6653 75.6248C28.5222 76.3557 29.515 74.4344 28.9983 72.3131C28.4445 70.7674 28.3203 69.1004 28.6389 67.4896C28.9575 65.8789 29.7071 64.3847 30.8077 63.1662C35.4645 57.7143 47.254 57.2643 52.9774 61.2926C54.5519 62.308 55.7695 63.7903 56.4598 65.532C57.1501 67.2738 57.2785 69.1877 56.8271 71.0061C56.6912 71.2549 56.6324 71.5384 56.6582 71.8207C56.6839 72.103 56.7931 72.3713 56.9718 72.5913C57.1505 72.8114 57.3906 72.9733 57.6616 73.0564C57.9326 73.1396 58.2222 73.1402 58.4936 73.0583C61.7339 72.2771 65.1189 72.3254 68.3357 73.1988C76.0327 75.6748 76.5969 87.9166 64.486 88.0309C44.2257 88.2428 27.6675 88.2904 27.6675 88.0047Z" fill="#38A1FF"/>
<path d="M106.635 48.6339C118.81 46.4912 125.176 34.0732 120.748 24.6811C118.926 21.122 116.039 18.2202 112.489 16.3804C108.939 14.5406 104.903 13.8544 100.945 14.4176C96.3087 14.9992 92.0612 17.3044 89.047 20.8749C86.0328 24.4453 84.4728 29.0193 84.6772 33.6875C85.2486 45.1199 96.462 50.429 106.635 48.6339ZM101.504 17.315C104.466 16.8306 107.504 17.2004 110.262 18.381C113.021 19.5617 115.386 21.5043 117.079 23.9811C123.148 32.7304 116.322 44.3176 106.237 45.7913C98.1547 46.9602 88.277 42.9344 87.5318 33.6494C86.7866 24.6311 93.6646 18.4125 101.452 17.3031L101.504 17.315Z" fill="#38A1FF"/>
<path d="M191.302 51.1481C220.195 50.672 253.183 49.5459 283.064 47.3008C315.625 44.9201 290.377 9.52765 267.077 23.9694C268.36 5.73747 240.376 -1.20246 231.256 11.2156C226.789 -2.1 209.777 -2.69043 199.18 4.8923C195.005 7.77278 192.082 12.1338 191.005 17.0902C189.928 22.0467 190.777 27.2273 193.38 31.5806C179.384 28.0928 173.796 51.4338 191.302 51.1481ZM191.699 33.7233C196.101 33.9233 198.013 34.0566 195.421 30.2212C192.521 25.9359 189.761 14.032 202.144 6.00887C211.714 -0.200155 225.968 0.87833 229.42 14.7725C229.768 16.1723 231.306 15.5295 231.82 14.2844C236.451 3.04721 266.948 4.99943 264.358 25.4216C263.96 28.5642 265.294 28.0643 266.179 27.4738C288.106 12.7322 310.802 42.9869 281.678 44.9105C251.885 46.8151 222.018 47.9651 192.264 48.7602C177.703 49.1721 181.819 33.2781 191.699 33.7233Z" fill="#38A1FF"/>
<path d="M374.864 108.959C373.035 143.603 373.388 183.514 373.581 215.617C373.581 217.452 376.437 217.721 376.454 215.855C376.852 183.036 376.992 143.62 376.692 108.851C376.711 107.768 374.916 107.93 374.864 108.959Z" fill="#38A1FF"/>
<path d="M380.625 109.625C382.563 146.72 384.806 185.81 386.615 220.569C386.718 222.473 389.658 222.097 389.553 220.197C388.182 194.345 385.563 140.023 383.037 111.218C382.651 106.726 380.592 109.021 380.625 109.625Z" fill="#38A1FF"/>
<path d="M347.187 299.703C344.016 300.893 338.207 300.691 335 301.667C334.73 301.737 334.493 301.901 334.334 302.131C334.174 302.36 334.102 302.639 334.131 302.917C334.16 303.195 334.287 303.453 334.491 303.645C334.694 303.837 334.959 303.949 335.238 303.962C339.564 303.784 343.862 303.179 348.068 302.155C349.511 301.588 348.587 299.181 347.187 299.703Z" fill="#191919"/>
<path d="M363.174 188.952C327.648 183.822 283.268 177.406 247.895 172.749C246.729 172.594 172.403 212.215 166.218 215.743C162.647 217.781 162.369 216.743 162.511 221.183C163.14 242.698 164.576 264.446 165.218 286.09C165.266 286.439 165.442 286.758 165.713 286.984C165.984 287.209 166.33 287.326 166.682 287.309C167.034 287.293 167.367 287.146 167.616 286.897C167.865 286.647 168.012 286.313 168.028 285.961C167.899 266.317 166.373 246.048 164.961 220.04C174.432 223.223 247.883 237.053 260.649 239.529C259.906 241.339 261.701 304.962 261.815 311.19C251.552 309.597 241.622 306.338 231.525 304.774C230.461 304.607 230.242 306.224 231.204 306.569C240.661 309.717 250.34 312.153 260.161 313.857C267.598 315.173 270.027 312.311 310.84 307.905C312.664 307.698 312.483 304.85 310.635 305.048C304.222 305.691 271.786 309.571 264.639 311.835C264.82 294.427 263.601 262.044 262.92 240.103C296.277 223.73 329.881 207.86 363.864 192.978C364.316 192.807 364.694 192.484 364.933 192.065C365.173 191.646 365.259 191.157 365.178 190.681C365.096 190.205 364.851 189.772 364.486 189.457C364.12 189.142 363.657 188.963 363.174 188.952ZM262.189 237.477C262.023 237.272 176.482 219.643 167.771 217.955C179.086 212.208 247.319 177.091 248.447 175.27C283.614 181.365 324.606 186.291 360.236 191.423C329.881 204.749 290.93 222.58 262.189 237.465V237.477Z" fill="#191919"/>
<path d="M423.926 238.798C405.001 232.846 386.267 225.968 367.602 220.426C367.435 215.902 367.602 198.128 366.447 194.842C366.1 193.83 364.15 193.468 364.176 194.766C364.766 219.259 365.535 259.816 367.033 276.467C367.109 277.367 368.904 277.2 368.938 276.326C369.504 258.904 368.245 240.993 367.654 223.518C375.149 226.93 411.613 237.632 423.288 241.417C424.683 241.853 425.183 239.186 423.926 238.798Z" fill="#191919"/>
<path d="M420.281 242.531C420.124 241.519 418.601 241.865 418.641 242.736C419.448 258.006 419.089 272.76 419.755 281.88L384.91 287.63C385.256 285.063 382.934 256.235 382.715 250.55C386.858 249.935 390.991 249.266 395.133 248.664C394.864 252.514 396.738 276.89 397.021 280.611C397.162 282.371 399.588 282.435 399.433 280.611C398.869 270.693 397.933 261.944 397.726 250.885C397.726 249.5 397.726 245.433 396.021 245.674C390.953 246.419 385.896 247.19 380.842 247.947C380.541 248.036 380.278 248.22 380.092 248.473C379.907 248.725 379.81 249.032 379.816 249.345C380.175 253.554 381.83 283.987 383.087 287.899C380.284 288.156 377.523 288.751 374.864 289.67C374.728 289.735 374.617 289.84 374.544 289.971C374.472 290.102 374.443 290.253 374.461 290.402C374.479 290.551 374.544 290.69 374.646 290.8C374.747 290.91 374.881 290.986 375.028 291.015C380.161 291.684 410.647 286.294 418.01 284.987C423.798 283.973 422.746 282.678 422.534 278.969C421.848 267.615 421.972 253.38 420.281 242.531Z" fill="#191919"/>
<path d="M175.432 247.112C174.594 248.209 174.956 265.344 175.803 265.601C176.189 265.715 181.755 266.82 187.838 267.982C188.043 261.566 188.414 255.152 188.774 248.736C182.193 247.536 175.782 246.652 175.432 247.112Z" fill="#191919"/>
<path d="M278.866 276.764C278.983 276.931 286.437 275.993 294.125 274.86C293.789 268.894 293.815 262.696 293.686 256.704C286.068 257.704 278.688 258.885 278.509 259.387C278.313 265.182 278.432 270.983 278.866 276.764Z" fill="#191919"/>
<path d="M191.43 249.14C191.243 255.587 191.046 262.045 190.84 268.512C197.332 269.796 203.517 270.874 203.748 270.757C204.225 270.519 204.224 253.259 204.12 252.218C199.993 250.805 195.746 249.775 191.43 249.14Z" fill="#191919"/>
<path d="M216.269 255.137C216.269 255.137 215.424 271.677 216.269 272.881C220.282 274.265 224.426 275.232 228.637 275.769C228.818 269.353 229.075 262.939 229.318 256.449C222.647 255.337 216.538 254.592 216.269 255.137Z" fill="#191919"/>
<path d="M338.426 212.343C338.426 212.343 339.04 229.854 339.899 230.868C340.759 231.882 355.296 229.125 356.053 228.149C356.81 227.173 355.927 210.405 355.246 209.803C354.565 209.2 339.04 211.381 338.426 212.343Z" fill="#191919"/>
<path d="M296.741 256.328L297.241 274.393C304.298 273.303 310.738 272.162 310.957 271.674C311.248 266.197 311.045 260.705 310.352 255.264C305.792 255.203 301.237 255.56 296.741 256.328Z" fill="#191919"/>
<path d="M246.778 260.354C246.662 259.763 239.543 258.223 232.206 256.928C232.047 263.394 231.897 269.855 231.756 276.312C236.467 277.279 241.24 277.915 246.04 278.217C246.665 272.284 246.911 266.318 246.778 260.354Z" fill="#191919"/>
<path d="M52.4417 196.652C52.4179 195.699 50.8895 195.768 50.799 196.652C49.5158 211.829 46.885 227.699 35.3241 238.722C35.0669 220.438 35.2598 202.092 34.117 183.834C34.0856 183.625 33.9782 183.435 33.8155 183.3C33.6527 183.165 33.446 183.095 33.2348 183.103C33.0235 183.111 32.8227 183.196 32.6705 183.343C32.5184 183.49 32.4256 183.687 32.41 183.898C31.8577 197.614 32.2053 211.355 32.3195 225.085C26.689 222.159 20.3252 205.199 21.068 192.907C21.068 192.009 19.6063 191.702 19.4396 192.65C16.6041 209.241 28.2484 228.985 32.3457 228.011C32.5005 243.265 32.6028 258.587 32.8719 273.827C32.8719 275.405 35.4383 275.674 35.6574 274.096C36.7596 266.399 35.4764 250.707 35.374 242.253C49.9396 233.089 52.6608 205.808 52.4417 196.652Z" fill="#191919"/>
<path d="M65.2976 221.697C76.1396 218.964 77.6775 198.473 63.5144 197.318C75.0611 184.924 62.0645 163.231 46.0396 173.699C40.0877 156.198 10.1139 162.869 7.67599 180.115C7.32662 182.062 7.43214 184.064 7.98431 185.964C8.53648 187.863 9.52034 189.61 10.8591 191.066C2.85256 191.412 -4.79444 203.984 3.75011 212.339C5.07499 213.441 6.48215 214.441 7.9593 215.329C-1.18759 223.026 6.05469 243.898 22.0725 236.689C23.739 235.944 22.2772 233.508 20.6226 234.239C6.98319 240.332 2.84066 220.562 11.0138 216.16C13.8707 214.622 11.3971 213.596 8.99731 212.529C-0.328133 208.425 1.61695 197.43 11.2305 193.542C11.8471 193.304 14.6183 192.669 13.297 190.976C11.188 188.22 10.1833 184.776 10.4797 181.319C10.776 177.861 12.352 174.639 14.8992 172.282C22.1629 165.507 37.7903 162.404 42.7922 173.746C44.5516 177.748 44.7183 177.594 48.9513 175.027C56.7387 170.359 69.3782 180.315 62.924 192.285C61.7336 194.492 59.0743 196.135 60.7432 198.559C62.4121 200.982 64.9119 199.328 68.6973 202.408C73.5469 206.399 71.5709 219.788 61.6145 219.343C59.498 219.255 60.3313 221.512 61.9098 222.397C70.2424 227.066 63.9382 247.493 50.3631 238.086C49.4893 237.487 48.3751 238.539 49.0798 239.294C57.972 249.821 76.011 236.041 65.2976 221.697Z" fill="#191919"/>
<path d="M211.888 180.382C213.626 173.327 219.664 125.519 221.049 124.134C223.987 121.234 236.213 162.366 237.253 166.216C237.765 168.14 240.586 167.256 240.179 165.357C236.944 151.172 231.987 137.436 225.418 124.455C222.468 118.91 218.721 120.31 217.657 126.212C215.752 136.823 210.188 170.13 210.253 180.227C210.27 180.421 210.355 180.603 210.493 180.741C210.631 180.879 210.812 180.965 211.006 180.983C211.2 181.002 211.395 180.952 211.556 180.842C211.717 180.732 211.835 180.569 211.888 180.382Z" fill="#191919"/>
<path d="M75.523 196.202C77.6657 186.169 80.1036 161.716 84.2223 154.145C91.9955 161.842 99.4592 216.759 101.183 229.008C101.207 229.209 101.271 229.404 101.372 229.579C101.473 229.755 101.608 229.908 101.77 230.03C101.931 230.152 102.116 230.24 102.312 230.288C102.509 230.337 102.713 230.346 102.913 230.314C103.113 230.282 103.304 230.21 103.475 230.102C103.646 229.994 103.794 229.852 103.909 229.686C104.025 229.52 104.105 229.332 104.146 229.133C104.187 228.935 104.187 228.731 104.147 228.532C102.171 214.676 95.4214 158.519 84.6842 150.872C78.7037 146.613 73.9826 192.673 73.7327 196.033C73.7484 196.248 73.8397 196.45 73.9905 196.604C74.1413 196.758 74.3418 196.854 74.5564 196.874C74.771 196.894 74.9858 196.838 75.1628 196.715C75.3397 196.592 75.4673 196.41 75.523 196.202Z" fill="#191919"/>
<path d="M181.177 175.046C181.534 174.006 180.124 173.237 179.598 174.275C175.93 181.474 171.337 189.557 163.19 192.238C167.525 180.617 169.055 168.136 167.654 155.812C167.578 155.005 166.257 154.86 166.192 155.736C164.911 172.287 164.704 188.238 154.455 202.027C154.455 188.312 154.217 167.195 152.67 153.965C152.67 153.734 152.578 153.512 152.414 153.348C152.251 153.185 152.029 153.093 151.798 153.093C151.567 153.093 151.345 153.185 151.182 153.348C151.019 153.512 150.927 153.734 150.927 153.965C150.336 176.751 151.208 200.604 151.246 223.519C141.842 212.329 136.504 194.983 136.852 180.32C136.852 179.203 135.185 178.891 135.092 180.063C134.165 190.379 135.8 200.766 139.854 210.298C136.389 208.404 133.335 205.84 130.869 202.757C128.402 199.673 126.572 196.131 125.484 192.335C125.136 191.116 123.379 191.695 123.624 192.9C124.905 199.328 131.605 211.517 141.585 214.069C142.868 216.212 148.463 227.145 151.143 227.054C150.951 237.229 151.643 246.576 151.284 256.768C151.208 259.028 153.71 259.706 154.391 257.525C154.762 256.321 154.391 211.234 154.391 206.206C156.75 205.358 160.331 198.43 161.471 196.095C163.485 194.226 174.458 194.611 181.177 175.046Z" fill="#191919"/>
<path d="M114.656 249.64C120.3 233.213 94.331 226.43 88.7243 238.213C80.5511 228.639 62.0764 237.26 70.1543 247.736C45.6325 249.416 55.0413 274.526 65.8309 273.395C66.5618 273.395 66.9974 272.267 66.307 271.869C47.8061 261.13 61.855 247.633 71.6304 250.354C73.8112 250.957 75.8896 249.776 73.466 247.633C63.9977 239.301 82.4462 231.658 87.3601 241.024C88.9386 244.041 90.1718 239.317 92.493 237.691C101.473 231.263 117.282 238.448 111.906 248.466C110.994 250.173 110.263 253.161 113.046 251.892C117.293 249.954 126.455 257.023 119.784 264.108C117.217 266.827 119.243 270.624 123.695 263.477C124.643 262.008 125.145 260.295 125.14 258.546C125.135 256.798 124.624 255.088 123.667 253.624C122.711 252.16 121.351 251.005 119.751 250.298C118.152 249.591 116.382 249.362 114.656 249.64Z" fill="#191919"/>
<path d="M137.106 228.061C130.981 234.529 119.927 234.191 120.66 223.107C120.748 221.823 121.8 216.693 123.674 216.819C125.817 216.988 125.355 213.741 123.814 213.724C113.937 213.584 104.814 202.92 108.163 193.349C111.934 182.598 118.734 185.191 122.186 182.905C124.598 181.288 115.475 178.093 115.77 167.701C116.144 154.474 127.471 153.293 135.016 156C136.094 156.386 136.644 154.512 136.299 153.834C129.883 140.289 154.036 119.26 168.232 133.004C169.836 134.509 171.082 136.354 171.882 138.403C172.681 140.451 173.012 142.653 172.851 144.846C172.711 146.275 174.134 146.477 175.251 146.232C180.665 144.949 185.514 145.603 188.005 152.507C189.288 156.138 188.762 161.204 185.002 162.654C181.924 163.845 183.155 165.864 185.002 165.887C194.547 166.042 203.272 180 194.74 190.983C192.264 194.178 196.023 194.833 198.18 191.407C204.453 181.374 200.373 167.028 188.519 163.887C190.262 161.915 191.3 159.418 191.467 156.79C191.634 154.163 190.922 151.555 189.443 149.377C187.028 145.451 180.358 141.587 175.872 143.396C175.525 124.062 146.877 117.953 135.264 139.804C133.48 143.153 131.647 148.363 133.135 152.25C127.502 150.839 115.172 151.236 112.606 164.747C111.415 170.918 114.272 176.294 118.082 180.477C115.182 181.107 112.495 182.479 110.284 184.457C108.072 186.436 106.411 188.954 105.464 191.766C101.614 202.684 109.875 215.219 120.191 215.721C114.353 222.611 117.882 238.339 131.142 234.734C132.7 234.317 134.159 233.595 135.436 232.611C136.713 231.626 137.782 230.399 138.582 228.999C139.211 228.061 137.794 227.335 137.106 228.061Z" fill="#191919"/>
<path d="M397.907 201.847C401.497 193.252 404.859 164.397 409.261 155.403C409.532 154.85 409.67 154.415 410.287 154.827C413.122 156.71 425.35 196.447 428.595 204.08C429.159 205.363 431.547 205.032 431.161 203.477C429.533 195.945 417.446 163.704 414.353 156.186C411.582 149.437 407.759 150.874 405.528 156.8C402.859 163.942 396.688 194.892 396.65 201.709C396.685 201.841 396.76 201.959 396.863 202.048C396.967 202.137 397.095 202.192 397.231 202.207C397.367 202.222 397.504 202.196 397.625 202.131C397.745 202.067 397.844 201.968 397.907 201.847Z" fill="#191919"/>
<path d="M326.979 179.639C330.384 171.727 333.615 163.909 337.245 156.019C342.312 164.183 346.499 172.862 349.735 181.91C350.658 184.476 354.137 184.822 352.418 180.703C348.735 171.837 345.016 161.921 339.293 154.107C338.305 152.824 336.393 152.203 335.326 153.798C333.422 156.674 326.156 174.058 325.475 179.034C325.289 179.858 326.617 180.484 326.979 179.639Z" fill="#191919"/>
<path d="M304.438 175.815C306.467 166.911 308.288 158.533 310.969 149.743C313.676 152.619 318.873 165.064 321.375 169.504C322.261 171.068 324.775 170.144 324.029 168.399C321.249 161.741 317.96 155.307 314.19 149.155C310.34 144.022 308.814 146.755 307.583 151.169C305.228 159.146 303.512 167.297 302.45 175.546C302.415 175.81 302.485 176.077 302.646 176.288C302.807 176.5 303.046 176.639 303.31 176.674C303.573 176.71 303.84 176.64 304.052 176.478C304.264 176.317 304.402 176.079 304.438 175.815Z" fill="#191919"/>
<path d="M444.965 226.342C443.104 225.297 441.03 224.687 438.899 224.557C442.016 218.655 434.471 207.686 424.527 211.034C423.053 211.524 421.708 212.338 420.589 213.415C414.035 200.442 392.915 208.934 397.995 220.007C398.431 220.959 400.059 220.264 399.702 219.264C396.595 210.836 413.711 205.151 417.73 214.364C418.444 215.991 419.472 218.905 421.127 216.148C422.505 214.691 424.312 213.712 426.286 213.354C428.259 212.996 430.295 213.277 432.097 214.157C436.204 216.417 437.961 222.228 435.473 223.959C434.045 224.935 435.319 226.756 436.626 226.733C443.837 226.654 452.022 233.594 448.956 240.908C448.63 241.939 448.005 242.85 447.159 243.524C446.314 244.198 445.286 244.605 444.208 244.693C441.642 244.693 444.325 247.657 444.749 248.171C455.088 260.473 436.602 267.76 432.252 261.923C430.969 260.256 428.236 261.796 429.969 263.849C437.19 272.443 459.49 261.025 447.146 246.945C454.796 243.186 453.922 231.33 444.965 226.342Z" fill="#191919"/>
</svg>
