<svg width="294" height="159" viewBox="0 0 294 159" fill="none" xmlns="http://www.w3.org/2000/svg">
<path d="M293 93.7734C293.003 87.9179 291.565 82.1518 288.812 76.9852C286.058 71.8185 282.075 67.4106 277.214 64.1512C273.904 47.4979 265.285 32.3684 252.651 21.035C240.017 9.70149 224.05 2.77576 207.147 1.29784C190.245 -0.180088 173.319 3.86956 158.913 12.8386C144.506 21.8077 133.396 35.2121 127.25 51.0388C119.615 51.29 112.14 53.2924 105.401 56.8917C98.6612 60.491 92.8376 65.5911 88.3791 71.7987C83.9205 78.0062 80.9459 85.1556 79.6847 92.6954C78.4234 100.235 78.9092 107.964 81.1046 115.287C83.3 122.609 87.1463 129.329 92.347 134.928C97.5477 140.528 103.964 144.858 111.101 147.583C118.238 150.309 125.905 151.358 133.511 150.65C141.118 149.942 148.46 147.495 154.972 143.499C171.181 155.036 191.171 159.966 210.881 157.287C230.591 154.608 248.542 144.521 261.089 129.075C269.828 128.18 277.926 124.076 283.819 117.557C289.712 111.037 292.983 102.564 293 93.7734Z" stroke="#CFCFCF" stroke-linecap="round" stroke-linejoin="round"/>
<path d="M63.0894 136.286C54.6675 139.699 44.8635 135.248 41.2235 126.265C37.5835 117.282 41.523 107.261 49.9449 103.848C58.3668 100.436 68.1708 104.887 71.8108 113.87C75.4508 122.853 71.5112 132.874 63.0894 136.286Z" fill="white" stroke="#CFCFCF"/>
<path d="M29.6005 138.046C24.2963 140.195 18.104 137.395 15.8015 131.713C13.4991 126.031 15.9955 119.71 21.2997 117.561C26.6039 115.412 32.7962 118.212 35.0987 123.894C37.4011 129.576 34.9047 135.896 29.6005 138.046Z" fill="white" stroke="#CFCFCF"/>
<path d="M10.4918 145.036C7.59787 146.209 4.19769 144.686 2.92928 141.556C1.66087 138.426 3.04163 134.965 5.93557 133.793C8.82951 132.62 12.2297 134.143 13.4981 137.273C14.7665 140.403 13.3858 143.864 10.4918 145.036Z" fill="white" stroke="#CFCFCF"/>
<path d="M170.766 69.583C164.646 79.3458 158.333 89.0018 152.188 98.712C151.942 99.1086 151.75 100.715 152.879 100.822C156.577 101.166 171.937 100.909 177.522 100.892C178.912 100.892 179.043 98.7374 177.61 98.7374C170.049 98.7374 161.943 98.4476 154.443 98.808C160.51 89.9815 166.228 80.8906 171.928 71.8069C173.677 75.2477 179.027 88.9583 180.837 91.2256C181.361 91.8794 182.699 91.624 182.541 90.6171C182.227 88.6667 175.293 74.2335 173.921 71.3125C181.334 70.7475 195.873 70.4305 202.893 69.1774C198.316 76.142 194.159 83.3783 190.443 90.8471C189.999 91.854 191.616 92.6744 192.192 91.729C196.589 84.2438 200.995 76.7586 205.411 69.2734C207.886 73.7573 220.081 97.6092 222.563 99.833C223.193 100.398 224.111 99.6302 223.989 98.9511C223.377 95.4632 204.948 64.286 202.019 59.0162C206.045 58.9161 210.064 59.404 213.952 60.4649C217.625 61.7435 216.497 66.441 211.278 66.5823C209.922 66.5823 209.843 68.7554 211.208 68.7264C218.35 68.5327 219.627 62.1944 216.689 59.6428C213.751 57.0911 204.337 56.7652 200.656 57.1183C200.493 57.1577 200.339 57.2291 200.203 57.3285C200.068 57.4278 199.953 57.5533 199.865 57.6975C199.777 57.8418 199.718 58.0022 199.692 58.1694C199.666 58.3366 199.672 58.5074 199.711 58.6721C199.765 58.8948 203.239 65.4432 203.863 66.5732C196.38 67.2868 179.201 68.5852 173.056 69.4418C172.149 67.626 171.151 65.8581 170.067 64.1448C169.55 63.3335 168.16 64.0216 168.553 64.9307C169.234 66.528 169.988 68.0727 170.766 69.583Z" fill="#38A1FF"/>
<path d="M161.058 61.7109C162.847 61.4381 174.102 60.1881 174.937 61.8355H174.894C175.017 62.0833 175.042 62.369 174.961 62.634C174.881 62.8991 174.702 63.1233 174.462 63.2608C174.462 63.2608 162.135 63.5606 161.254 63.5606C161.031 63.5471 160.82 63.455 160.659 63.3008C160.498 63.1466 160.396 62.9402 160.373 62.7183C160.349 62.4965 160.406 62.2735 160.531 62.089C160.657 61.9046 160.843 61.7706 161.058 61.7109Z" fill="#191919"/>
<path d="M192.321 96.5634C191.883 95.5043 191.174 94.579 190.265 93.8806C189.357 93.1822 188.28 92.7353 187.144 92.5848C186.007 92.4344 184.852 92.5856 183.792 93.0234C182.733 93.4611 181.808 94.17 181.109 95.0787C180.411 95.9874 179.964 97.0639 179.814 98.2C179.663 99.3361 179.815 100.492 180.252 101.551C180.69 102.61 181.399 103.535 182.308 104.233C183.217 104.932 184.294 105.378 185.43 105.529C186.564 105.671 187.716 105.515 188.772 105.075C189.827 104.635 190.748 103.927 191.445 103.02C192.142 102.114 192.589 101.041 192.743 99.9085C192.896 98.7758 192.751 97.6226 192.321 96.5634ZM186.297 103.491C185.707 103.532 185.115 103.45 184.558 103.251C184.001 103.052 183.491 102.74 183.06 102.335C182.63 101.93 182.287 101.44 182.055 100.896C181.822 100.353 181.704 99.7668 181.708 99.1755C181.698 98.1177 182.053 97.0887 182.712 96.2615C183.371 95.4342 184.295 94.8592 185.329 94.633C186.362 94.4068 187.442 94.5433 188.387 95.0196C189.331 95.4958 190.083 96.2828 190.516 97.2481C190.834 97.9358 190.969 98.6941 190.909 99.4495C190.848 100.205 190.593 100.932 190.169 101.56C189.744 102.188 189.165 102.695 188.487 103.034C187.808 103.372 187.054 103.53 186.297 103.491Z" fill="#191919"/>
<circle cx="223.5" cy="99.5" r="17.5" stroke="url(#paint0_linear_463_44761)" stroke-width="2"/>
<circle cx="152.5" cy="99.5" r="17.5" stroke="url(#paint1_linear_463_44761)" stroke-width="2"/>
<defs>
<linearGradient id="paint0_linear_463_44761" x1="223.5" y1="81" x2="223.5" y2="118" gradientUnits="userSpaceOnUse">
<stop offset="0.0104167" stop-color="#38A1FF"/>
<stop offset="0.515625"/>
<stop offset="0.9999" stop-color="#38A1FF"/>
<stop offset="1" stop-opacity="0"/>
</linearGradient>
<linearGradient id="paint1_linear_463_44761" x1="152.5" y1="81" x2="152.5" y2="118" gradientUnits="userSpaceOnUse">
<stop offset="0.0104167" stop-color="#38A1FF"/>
<stop offset="0.515625"/>
<stop offset="0.9999" stop-color="#38A1FF"/>
<stop offset="1" stop-opacity="0"/>
</linearGradient>
</defs>
</svg>
