<svg width="85" height="203" viewBox="0 0 85 203" fill="none" xmlns="http://www.w3.org/2000/svg">
<path d="M20.1546 69.8392C18.1362 68.9328 16.2052 67.8066 14.3904 66.4773C14.2541 66.4029 14.3904 66.2541 14.5255 66.2541C16.2217 67.075 18.0542 68.046 19.8855 68.7181C19.0561 67.1726 17.8756 65.8915 16.46 65.0009C15.0444 64.1103 13.4427 63.6408 11.8123 63.6387C11.7471 63.6409 11.6833 63.6592 11.6255 63.6923C11.5677 63.7254 11.5174 63.7724 11.4783 63.8298C11.4393 63.8872 11.4124 63.9536 11.3999 64.024C11.3873 64.0944 11.3893 64.167 11.4057 64.2364C11.5378 65.2798 11.8884 66.2752 12.4298 67.1438C12.9713 68.0124 13.6887 68.7305 14.5255 69.2414C18.526 70.9589 20.087 69.9136 20.1546 69.8392Z" fill="#38A1FF"/>
<path d="M32.8113 31.82C32.7513 31.8228 32.6925 31.8438 32.6393 31.8814C32.5861 31.9189 32.5397 31.9721 32.5036 32.037C32.4675 32.102 32.4426 32.177 32.4307 32.2566C32.4187 32.3362 32.4201 32.4185 32.4346 32.4973C32.8092 34.6422 33.7463 36.53 35.0719 37.8097C36.3974 39.0895 38.0212 39.674 39.6412 39.4547C40.6441 39.2842 40.3934 38.6914 39.7047 38.0125C38.3203 36.7731 36.8251 35.777 35.2551 35.0482C35.0667 34.9622 35.1927 34.6228 35.3175 34.6228C36.9696 34.7984 38.5533 35.5917 39.8919 36.9142L39.328 35.896C38.5332 34.6046 37.5361 33.5689 36.4089 32.8639C35.2818 32.1589 34.0529 31.8023 32.8113 31.82Z" fill="#38A1FF"/>
<path d="M14.3703 85.583C16.1877 85.4919 17.9048 84.4715 19.1507 82.7421C20.3966 81.0127 21.0713 78.7131 21.0292 76.3399C20.8474 76.5771 20.6656 76.7344 20.4849 76.9717C19.0326 78.7086 17.7621 80.7614 16.4314 82.6569C16.4067 82.6844 16.375 82.6987 16.3426 82.6971C16.3102 82.6954 16.2794 82.6778 16.2565 82.6479C16.2336 82.618 16.2201 82.5778 16.2188 82.5355C16.2176 82.4932 16.2285 82.4518 16.2496 82.4196C17.3742 79.8983 18.8045 77.6317 20.4849 75.708C16.8605 76.4957 15.0848 80.2399 14.0723 84.867C14.0399 84.9375 14.0221 85.0179 14.0208 85.1002C14.0195 85.1824 14.0346 85.2637 14.0647 85.336C14.0948 85.4083 14.1388 85.4691 14.1924 85.5124C14.246 85.5557 14.3073 85.58 14.3703 85.583Z" fill="#38A1FF"/>
<path d="M8.76289 23.2849C8.14306 21.0712 7.01527 19.1374 5.52164 17.7273C4.02801 16.3172 2.2354 15.4938 0.369744 15.3611C0.31258 15.3633 0.256547 15.3817 0.20579 15.4148C0.155033 15.4479 0.110846 15.4949 0.0764985 15.5523C0.0421509 15.6097 0.0185195 15.6761 0.00734988 15.7466C-0.00381976 15.817 -0.00224137 15.8897 0.011968 15.9593C1.32034 20.7394 3.6646 23.1608 5.96517 23.8831C6.58239 24.112 7.22912 24.1883 7.86949 24.1077C7.69164 23.8086 7.51275 23.4351 7.33387 23.136C6.31713 21.4844 5.13687 20.0023 3.82164 18.7255C3.76236 18.6497 3.82164 18.5008 3.88197 18.5753C4.35831 18.9488 4.89393 19.2479 5.37027 19.6972C6.27992 20.5046 7.10037 21.4598 7.81021 22.5378C8.76289 24.032 8.76289 23.4351 8.76289 23.2849Z" fill="#38A1FF"/>
<path d="M63.9202 0.14595C63.879 0.09339 63.8298 0.0533853 63.776 0.0286544C63.7223 0.00392347 63.6652 -0.00495312 63.6086 0.00262483C63.5521 0.0102028 63.4974 0.03406 63.4484 0.0725743C63.3993 0.111089 63.357 0.163358 63.3242 0.225833C62.0115 3.99564 61.1769 12.0972 64.934 14.2638C64.934 9.68259 63.716 3.08052 64.338 3.91576C65.1942 6.63113 65.6401 9.54855 65.6497 12.498C65.6497 12.9002 65.7091 13.301 65.7091 13.7018C67.4981 9.28879 66.427 3.68312 63.9202 0.14595Z" fill="#38A1FF"/>
<path d="M26.3086 26.8377C26.4429 26.7678 26.576 26.7678 26.6425 26.9075C25.1728 28.7315 22.9676 29.7844 21.8317 31.8192C23.6821 31.5844 25.4249 30.7795 26.8401 29.5059C28.2554 28.2324 29.2797 26.5473 29.7839 24.6632C29.8271 24.3972 29.7454 24.0233 29.1816 24.1728C25.4401 24.6632 21.6321 27.3304 21.0309 31.3987C22.6217 29.6754 24.3921 28.1454 26.3086 26.8377Z" fill="#38A1FF"/>
<path d="M2.51992 65.3945C3.8069 64.4602 4.89783 63.0724 5.68521 61.3679C6.4726 59.6635 6.92928 57.7011 7.01024 55.6743C6.05016 56.8995 5.18956 58.2692 4.44405 59.7588C4.15258 60.3296 3.80199 60.8206 3.56861 61.3928C3.51052 61.4742 3.39434 61.3928 3.45243 61.3101C4.31809 58.9342 5.4397 56.759 6.77788 54.8608C6.6617 54.8608 4.96993 55.269 2.57801 58.6998C1.58638 60.1698 0.59986 62.5874 0.947386 64.6624C1.11962 65.7071 1.24701 66.2851 2.51992 65.3945Z" fill="#38A1FF"/>
<path d="M46.0489 38.0775C46.9134 33.2595 48.3913 31.8123 48.5477 31.5168C48.5649 31.5019 48.5851 31.4921 48.6064 31.4881C48.6277 31.4842 48.6496 31.4863 48.67 31.4942C48.6905 31.5021 48.7089 31.5156 48.7237 31.5335C48.7386 31.5514 48.7493 31.5732 48.755 31.5969C48.631 31.9814 48.538 32.378 48.4774 32.7817C47.7849 34.9347 47.2738 37.1578 46.951 39.4211V39.4998C50.2827 37.5237 51.392 31.5969 50.5603 27.8022C50.5445 27.7198 50.5097 27.6437 50.4594 27.5819C50.4092 27.52 50.3453 27.4746 50.2744 27.4504C50.2035 27.4261 50.1282 27.4239 50.0563 27.444C49.9844 27.4641 49.9186 27.5058 49.8656 27.5647C46.8819 30.3265 44.5916 34.6791 45.9859 39.1836C45.9395 38.8139 45.961 38.4372 46.0489 38.0775Z" fill="#38A1FF"/>
<path d="M15.3906 8.30461C15.4525 8.22384 15.5144 8.3046 15.5144 8.38398C15.142 9.18054 14.8305 10.0551 14.4582 10.9338C13.7658 12.5754 13.2238 14.3142 12.843 16.1156C12.7812 16.5139 12.6563 16.9122 12.5945 17.3912C13.4581 16.8304 14.203 16.0095 14.7654 14.9988C16.7274 11.8145 17.7014 7.81133 17.4997 3.76059C17.4994 3.67688 17.4818 3.59478 17.4485 3.52274C17.4153 3.4507 17.3677 3.39133 17.3106 3.35075C17.2536 3.31018 17.1891 3.28986 17.1239 3.29189C17.0587 3.29392 16.995 3.31823 16.9396 3.36231C14.8705 4.53067 13.2274 6.66864 12.3459 9.3393C11.5937 11.5466 10.9478 15.3149 11.7869 17.4692V17.5556C11.7869 17.4706 13.0297 10.9338 15.3906 8.30461Z" fill="#38A1FF"/>
<path d="M9.44321 51.316C7.65201 49.6274 5.76639 48.1098 3.80159 46.7755C3.73627 46.6918 3.80159 46.6066 3.86806 46.6066C4.83984 47.0737 5.49878 47.0208 9.63918 50.3069C9.13921 48.5477 8.25509 47.01 7.09225 45.877C5.92941 44.744 4.53691 44.0636 3.08078 43.917C2.42413 43.8332 -0.461423 43.8332 0.063432 45.43C0.425192 46.5846 0.985775 47.6195 1.70332 48.4575C6.29408 52.829 9.44321 51.316 9.44321 51.316Z" fill="#38A1FF"/>
<path d="M60.0106 45.5299C60.0269 45.4979 60.0517 45.4729 60.0814 45.4585C60.111 45.4441 60.144 45.4411 60.1752 45.4501C60.2064 45.4591 60.2343 45.4794 60.2547 45.5082C60.275 45.5369 60.2868 45.5725 60.2881 45.6095C60.0535 48.3862 59.5415 51.1223 58.7622 53.7635C62.3692 50.9701 62.7849 45.3693 61.6711 40.9725C61.6542 40.8995 61.6234 40.8318 61.5809 40.7744C61.5383 40.717 61.4852 40.6712 61.4253 40.6405C61.3655 40.6099 61.3004 40.595 61.2349 40.5971C61.1694 40.5992 61.1052 40.6182 61.0469 40.6526C57.8556 43.1318 55.6352 49.0468 57.8556 53.1238C58.235 52.6867 58.7028 48.66 60.0106 45.5299Z" fill="#38A1FF"/>
<path d="M46.6109 194.753C47.1729 194.544 47.764 194.486 48.3456 194.581C48.9271 194.676 49.4858 194.923 49.9852 195.304C50.7021 194.386 51.6376 193.776 52.6544 193.566C52.9009 193.025 53.2242 192.543 53.6086 192.145C52.947 188.634 52.4814 185.071 52.215 181.48C51.6619 181.294 51.1279 181.029 50.6235 180.691C46.9089 178.145 47.6018 171.056 47.4405 165.054C47.4405 163.002 46.8044 159.999 47.3138 158.025C48.0133 155.577 50.0508 159.447 50.6235 160.315C50.4323 157.236 48.714 125.172 48.3992 120.991C47.366 105.474 46.1137 83.9596 48.0811 69.1832C48.0811 67.6544 51.243 64.5485 52.155 63.417C55.785 59.2248 59.7279 55.4701 63.9306 52.2033C63.9951 52.1247 63.9306 52.046 63.8672 52.046C62.8484 52.7566 61.8942 53.5459 60.8755 54.1778C56.2856 57.3514 51.9459 59.962 48.9086 63.7344C50.2782 54.7962 52.8838 46.2193 56.6103 38.3832C63.3945 24.5934 69.8862 22.532 76.9807 15.6385C77.8704 14.7706 78.7601 13.8213 79.6498 12.8789C79.9045 12.5643 79.5853 12.011 79.2673 12.3269C74.287 17.0003 66.3451 20.7934 66.3451 21.2501C69.0799 16.3311 72.4553 8.52971 72.2651 2.53445C72.2608 2.44921 72.2324 2.36859 72.1848 2.30678C72.1373 2.24497 72.0738 2.20593 72.0053 2.19654C71.9369 2.18714 71.868 2.20799 71.8108 2.25541C71.7535 2.30284 71.7116 2.37379 71.6923 2.4558C68.4938 18.7886 56.9784 28.2044 49.8584 47.3119L48.1401 52.2889C47.822 50.945 47.5673 49.6024 47.2504 48.3399C46.2128 44.2397 44.6899 40.3536 42.7316 36.8088C41.9954 35.5286 41.1871 34.3145 40.3127 33.1758C40.058 32.8598 39.6754 33.2545 39.8678 33.5704C44.7669 42.03 46.6031 54.3089 47.1247 55.6046C45.1228 62.4194 44.9293 63.9345 43.3055 69.978C42.6683 72.5058 42.0321 75.4269 39.5498 73.2164C34.1391 68.4782 30.5746 60.5815 26.5642 54.1834C24.2086 50.4717 21.7896 46.5944 20.5162 42.0218C19.056 36.5839 19.6921 32.5535 21.1535 26.6217C21.2169 26.3058 20.7709 25.9898 20.6441 26.3844C19.116 30.4907 17.5879 35.3876 18.0339 39.9672C15.2335 35.7036 13.642 30.4907 12.1138 25.4379C10.2896 19.7484 9.02666 13.8061 8.35251 7.74046C8.28912 7.34583 7.84314 7.34583 7.84314 7.74046C7.60291 23.7462 14.4527 38.4274 21.9754 51.4927C20.7569 51.2277 19.5193 51.1218 18.283 51.1768C12.5666 51.0134 6.91201 52.6719 1.85972 55.9937C1.60503 56.1524 1.85971 56.627 2.051 56.4683C7.77975 53.2299 16.31 51.8087 22.3568 54.5725C25.1584 55.8364 27.0035 59.3908 28.4737 62.3905C28.5405 62.5284 32.3507 70.3506 32.611 70.4471C31.398 70.1176 30.147 70.0639 28.9186 70.2885C24.2231 70.7369 19.1927 71.6462 15.2968 74.8694C15.2546 74.9063 15.2244 74.9609 15.2118 75.023C15.1993 75.0852 15.2051 75.1509 15.2282 75.2083C15.2514 75.2656 15.2904 75.3107 15.3381 75.3353C15.3858 75.36 15.439 75.3626 15.4881 75.3427C20.1014 73.5821 25.7634 71.7621 30.638 72.6576C31.5277 72.8163 33.8844 72.9736 34.3304 74.0015C36.9037 79.1574 38.8143 84.7789 39.9935 90.6641C41.069 96.7449 41.2669 107.669 41.9665 127.624C42.1578 127.782 45.7856 132.442 46.3584 135.127C47.4906 139.807 44.2942 143.616 42.7995 139.628C42.6082 139.076 42.418 138.601 42.2267 138.048C42.4692 148.899 42.7973 164.996 42.4814 177.141C42.418 180.695 41.7174 190.409 41.7174 190.566C43.2399 190.409 46.295 191.437 46.6109 194.753Z" fill="#38A1FF"/>
<path d="M54.957 191.188C55.8735 188.009 57.832 189.227 57.832 188.296C57.842 188.166 57.8266 188.034 57.7883 187.92C57.7501 187.806 57.6909 187.717 57.6199 187.665C56.9569 187.523 56.2847 187.755 55.7073 188.326C55.1298 188.897 54.6791 189.774 54.4248 190.823C54.155 191.757 54.5002 192.767 54.957 191.188Z" fill="#191919"/>
<path d="M41.3001 188.57C40.2719 187.814 36.8725 187.153 36.001 188.071C35.8603 188.195 35.9307 188.383 36.143 188.446C37.0576 188.688 38.3648 188.035 40.5225 188.882C40.8051 189.006 42.0037 189.818 42.0037 189.818C42.2888 189.693 41.4408 188.695 41.3001 188.57Z" fill="#191919"/>
<path d="M67.955 190.626C68.2616 190.783 68.4416 190.56 68.3029 190.415C67.8954 188.338 61.9131 187.858 61.3401 190.768C61.3401 190.909 61.48 190.98 61.5493 190.839C62.5932 189.425 65.1007 189.357 66.5619 189.991C67.6922 190.45 67.2347 190.384 67.955 190.626Z" fill="#191919"/>
<path d="M65.4556 196.741C64.4514 195.795 61.6202 197.092 62.3292 197.431C62.5616 197.649 63.0125 197.179 63.9923 197.179C64.4572 197.179 64.9907 197.555 65.4556 197.492C65.5245 197.488 65.5895 197.46 65.6385 197.414C65.6875 197.368 65.7171 197.307 65.7217 197.242C65.6747 197.058 65.5836 196.887 65.4556 196.741Z" fill="#191919"/>
<path d="M39.2484 199.727C40.4864 200.032 41.6223 200.762 42.5156 201.826C42.712 201.983 43.0386 201.826 42.9084 201.517C41.5917 197.514 35.714 198.104 35.0642 200.43C34.9991 200.741 35.1955 200.897 35.457 200.897C36.5385 200.764 36.9096 199.352 39.2484 199.727Z" fill="#191919"/>
<path d="M33.6343 189.89C33.3994 189.904 33.1703 189.982 32.9647 190.12C32.7591 190.257 32.5825 190.449 32.4484 190.681C32.3827 190.839 32.4484 191.077 32.5796 191.077C33.3856 191.2 34.5104 190.385 36.0728 191.63C36.2187 191.708 36.3523 191.815 36.4677 191.947C36.4993 191.983 36.5397 192.006 36.583 192.012C36.6262 192.017 36.6698 192.006 36.7071 191.979C36.7444 191.952 36.7734 191.912 36.7896 191.863C36.8059 191.815 36.8085 191.761 36.797 191.711C36.5074 191.034 36.0415 190.49 35.4705 190.161C34.8994 189.832 34.2546 189.737 33.6343 189.89Z" fill="#191919"/>
<path d="M38.2112 193.891C39.9064 192.371 41.9316 191.759 43.6449 193.265C44.3363 194.078 44.8286 195.106 45.0678 196.235C44.4248 196.5 43.8766 197.024 43.515 197.719C43.3861 197.954 43.645 198.188 43.7738 198.031C44.6727 197.37 45.6566 196.895 46.685 196.625C49.1589 196.34 50.601 198.314 51.148 198.579C51.1842 198.596 51.2238 198.601 51.262 198.591C51.3003 198.582 51.3353 198.559 51.3629 198.526C51.3905 198.493 51.4094 198.45 51.4172 198.404C51.425 198.358 51.4213 198.31 51.4068 198.266C51.3361 197.953 51.2138 197.659 51.0472 197.404C50.8806 197.149 50.6731 196.937 50.4371 196.781C50.6796 196.498 50.9387 196.237 51.2124 196C51.6809 195.681 52.201 195.488 52.7369 195.434C53.2729 195.38 53.8122 195.466 54.318 195.687C54.5768 195.765 56.1941 196.779 55.9997 195.843C55.8697 195.219 53.8648 194.046 53.4117 194.437C54.5834 193.189 56.0153 192.351 57.5525 192.015C59.2986 191.702 60.527 192.718 61.8855 193.968C61.9167 194.004 61.9565 194.026 61.999 194.031C62.0415 194.037 62.0843 194.025 62.1209 193.999C62.1576 193.972 62.1861 193.932 62.2021 193.884C62.2182 193.836 62.2209 193.783 62.2098 193.734C61.7578 191.624 59.4274 190.842 57.8757 190.921C56.8616 191.023 55.8766 191.381 54.9849 191.974C54.0932 192.566 53.3149 193.379 52.7008 194.359C52.7008 194.437 52.6364 194.437 52.6364 194.515C52.0918 194.536 51.5598 194.718 51.0869 195.045C50.614 195.372 50.2148 195.834 49.924 196.39H49.8585C49.2117 195.963 48.4989 195.7 47.7645 195.62C47.0302 195.539 46.2899 195.642 45.5899 195.922C45.9131 193.343 43.3907 191.312 41.5146 191.312C40.26 191.348 39.0431 191.838 38.0214 192.718C36.9679 193.552 36.0488 194.611 35.309 195.843C33.1516 193.85 30.1928 194.775 29.8109 196.313C29.7464 196.468 29.8764 196.625 30.0052 196.625C30.5097 196.48 31.0064 196.297 31.4925 196.079C33.3007 195.454 34.4038 196.625 35.7622 197.798C36.4086 198.344 35.8922 196.627 35.7622 196.47C36.6584 195.687 37.3591 194.654 38.2112 193.891Z" fill="#191919"/>
<path d="M75.0301 197.079C74.9675 197.611 75.5866 197.611 75.7108 197.231C76.7621 193.808 77.6275 190.461 79.5442 187.493C80.1633 186.58 80.8407 185.668 81.4609 184.677C81.5852 184.526 81.3377 184.221 81.2146 184.374C80.7738 184.707 80.3194 185.012 79.8532 185.287C76.8247 187.416 74.5858 190.907 73.6083 195.025C73.6083 195.101 73.7314 195.177 73.7314 195.101C75.0336 191.453 77.1311 188.32 79.7916 186.048C77.2651 188.984 75.5922 192.86 75.0301 197.079Z" fill="#191919"/>
<path d="M84.5678 189.827C83.6247 190.021 82.7141 190.42 81.8753 191.007C79.2779 193.109 77.2979 196.262 76.2466 199.968C76.1857 200.204 76.4305 200.283 76.5523 200.126C78.2155 197.203 79.9652 192.386 83.5278 190.923C83.0543 191.128 81.1549 194.479 80.2848 197.213C79.6523 198.87 79.1602 200.61 78.8173 202.402C78.7553 202.875 79.2448 203.267 79.4287 202.717C80.1373 201.026 81.1581 194.232 84.8735 190.452C85.1792 190.22 84.8725 189.751 84.5678 189.827Z" fill="#191919"/>
<path d="M64.3753 184.826C64.3753 185.059 64.6509 185.293 64.7607 184.982C65.075 183.684 65.3324 182.361 65.5314 181.019C65.8316 179.674 66.1812 178.351 66.5786 177.057C66.6885 176.746 66.3021 176.514 66.1374 176.746C64.3166 179.233 62.4976 182.574 62.2211 186.225C62.1672 186.613 62.6065 186.613 62.6624 186.303C63.2047 183.591 64.1214 181.057 65.3599 178.845C65.015 180.335 64.2067 182.944 64.3753 184.826Z" fill="#191919"/>
<path d="M25.2085 197.386C25.1745 193.76 24.0008 188.095 24.2705 188.7C24.7395 189.756 26.5523 194.666 26.8208 195.195C26.8876 195.421 27.223 195.271 27.1561 195.044C26.5699 190.938 23.9011 185.742 21.6522 182.279C21.5996 182.209 21.527 182.161 21.4466 182.145C21.3663 182.128 21.2833 182.143 21.2119 182.188C21.1404 182.232 21.085 182.304 21.0552 182.389C21.0253 182.475 21.0229 182.569 21.0483 182.657C23.1304 187.265 24.471 192.252 25.008 197.386C24.94 197.537 25.2097 197.537 25.2085 197.386Z" fill="#191919"/>
<path d="M23.307 199.682C23.4357 199.837 23.7586 199.682 23.6299 199.447C23.2634 198.442 22.831 197.474 22.3371 196.552C21.22 194.051 19.7552 191.802 18.0069 189.904C17.684 189.591 17.3611 190.217 17.6196 190.53C19.5117 193.559 20.9348 196.978 21.8199 200.62C21.8854 200.933 22.2716 200.776 22.2084 200.463C21.7504 198.32 21.1462 196.227 20.4018 194.206C21.2625 196.112 22.2334 197.941 23.307 199.682Z" fill="#191919"/>
</svg>
