<svg width="134" height="320" viewBox="0 0 134 320" fill="none" xmlns="http://www.w3.org/2000/svg">
<path d="M31.7732 110.099C28.5913 108.67 25.5471 106.895 22.686 104.799C22.4711 104.682 22.686 104.447 22.899 104.447C25.573 105.741 28.4619 107.272 31.349 108.332C30.0415 105.895 28.1803 103.876 25.9487 102.472C23.7171 101.068 21.192 100.328 18.6217 100.324C18.5191 100.328 18.4184 100.357 18.3273 100.409C18.2361 100.461 18.1568 100.535 18.0952 100.625C18.0337 100.716 17.9914 100.821 17.9716 100.932C17.9518 101.043 17.9549 101.157 17.9808 101.267C18.189 102.911 18.7417 104.481 19.5953 105.85C20.4488 107.219 21.5799 108.351 22.899 109.157C29.2057 111.864 31.6667 110.216 31.7732 110.099Z" fill="#38A1FF"/>
<path d="M51.726 50.1631C51.6314 50.1676 51.5388 50.2007 51.4549 50.2599C51.371 50.3191 51.2979 50.403 51.241 50.5053C51.1841 50.6077 51.1448 50.7259 51.126 50.8515C51.1072 50.977 51.1093 51.1067 51.1322 51.2309C51.7227 54.6123 53.2001 57.5884 55.2898 59.6058C57.3795 61.6233 59.9392 62.5448 62.4931 62.199C64.0742 61.9303 63.6789 60.9957 62.5933 59.9255C60.4108 57.9716 58.0537 56.4012 55.5786 55.2523C55.2817 55.1167 55.4802 54.5817 55.6769 54.5817C58.2815 54.8586 60.7781 56.1092 62.8884 58.1941L61.9995 56.5888C60.7465 54.5531 59.1745 52.9203 57.3976 51.8089C55.6207 50.6975 53.6833 50.1353 51.726 50.1631Z" fill="#38A1FF"/>
<path d="M22.6544 134.919C25.5195 134.775 28.2264 133.167 30.1905 130.44C32.1546 127.714 33.2183 124.089 33.1519 120.347C32.8653 120.721 32.5787 120.969 32.2938 121.343C30.0043 124.082 28.0014 127.318 25.9036 130.306C25.8647 130.349 25.8147 130.372 25.7636 130.369C25.7125 130.367 25.664 130.339 25.6279 130.292C25.5917 130.245 25.5705 130.181 25.5685 130.115C25.5665 130.048 25.5838 129.983 25.617 129.932C27.3898 125.957 29.6447 122.384 32.2938 119.351C26.5801 120.593 23.7808 126.496 22.1845 133.79C22.1334 133.901 22.1055 134.028 22.1034 134.158C22.1013 134.287 22.1252 134.416 22.1726 134.53C22.2201 134.643 22.2894 134.739 22.3739 134.808C22.4584 134.876 22.5551 134.914 22.6544 134.919Z" fill="#38A1FF"/>
<path d="M13.8144 36.708C12.8373 33.2181 11.0594 30.1695 8.7047 27.9465C6.35004 25.7235 3.52404 24.4256 0.582891 24.2163C0.492773 24.2199 0.404439 24.2488 0.324421 24.301C0.244404 24.3531 0.174746 24.4272 0.120598 24.5178C0.0664497 24.6083 0.0291955 24.713 0.0115869 24.824C-0.00602174 24.935 -0.00353346 25.0496 0.0188672 25.1593C2.08148 32.6951 5.77713 36.5124 9.40391 37.651C10.3769 38.0118 11.3965 38.1321 12.406 38.0051C12.1256 37.5336 11.8436 36.9448 11.5616 36.4733C9.95876 33.8695 8.09812 31.533 6.02471 29.5202C5.93125 29.4008 6.02471 29.166 6.11981 29.2834C6.87074 29.8723 7.71513 30.3438 8.46607 31.052C9.90011 32.3249 11.1935 33.8307 12.3126 35.5303C13.8144 37.8857 13.8144 36.9448 13.8144 36.708Z" fill="#38A1FF"/>
<path d="M100.768 0.230087C100.703 0.147227 100.626 0.0841604 100.541 0.0451728C100.456 0.00618524 100.366 -0.00780845 100.277 0.00413796C100.188 0.0160844 100.102 0.0536946 100.024 0.114411C99.9471 0.175128 99.8803 0.257529 99.8288 0.356019C97.7592 6.29901 96.4435 19.0709 102.366 22.4865C102.366 15.2643 100.446 4.85634 101.427 6.17308C102.777 10.4538 103.48 15.053 103.495 19.7028C103.495 20.3368 103.588 20.9687 103.588 21.6006C106.409 14.6435 104.72 5.80634 100.768 0.230087Z" fill="#38A1FF"/>
<path d="M41.4748 42.3088C41.6864 42.1987 41.8962 42.1987 42.0011 42.419C39.6841 45.2944 36.2077 46.9543 34.417 50.1621C37.3342 49.792 40.0816 48.523 42.3127 46.5153C44.5438 44.5076 46.1586 41.851 46.9535 38.8808C47.0216 38.4615 46.8928 37.8721 46.0039 38.1078C40.1055 38.8808 34.1023 43.0857 33.1545 49.4993C35.6624 46.7824 38.4534 44.3705 41.4748 42.3088Z" fill="#38A1FF"/>
<path d="M3.97259 103.093C6.00147 101.62 7.72129 99.4319 8.96258 96.7448C10.2039 94.0578 10.9238 90.9642 11.0515 87.769C9.53791 89.7004 8.1812 91.8598 7.00593 94.208C6.54643 95.1079 5.99374 95.8819 5.62582 96.7841C5.53424 96.9123 5.35109 96.7841 5.44267 96.6536C6.80735 92.9081 8.57554 89.4789 10.6851 86.4866C10.502 86.4866 7.83495 87.13 4.06416 92.5386C2.5009 94.856 0.945673 98.6672 1.49354 101.938C1.76506 103.585 1.96589 104.497 3.97259 103.093Z" fill="#38A1FF"/>
<path d="M72.5947 60.0279C73.9575 52.4325 76.2874 50.1511 76.534 49.6852C76.5611 49.6618 76.5929 49.6463 76.6265 49.64C76.6601 49.6338 76.6946 49.6371 76.7268 49.6496C76.7591 49.662 76.7881 49.6833 76.8115 49.7115C76.8349 49.7398 76.8518 49.7741 76.8608 49.8115C76.6653 50.4176 76.5187 51.0428 76.4231 51.6793C75.3314 55.0734 74.5256 58.5782 74.0168 62.1461V62.2702C79.2691 59.155 81.0179 49.8115 79.7068 43.8292C79.6819 43.6994 79.627 43.5794 79.5478 43.4819C79.4685 43.3844 79.3678 43.3128 79.256 43.2746C79.1442 43.2364 79.0255 43.2329 78.9122 43.2646C78.7989 43.2963 78.6951 43.362 78.6116 43.4548C73.9078 47.8087 70.2973 54.6704 72.4953 61.7717C72.4223 61.1888 72.4561 60.5951 72.5947 60.0279Z" fill="#38A1FF"/>
<path d="M24.2629 13.0918C24.3604 12.9645 24.4579 13.0918 24.4579 13.217C23.871 14.4727 23.3799 15.8514 22.7929 17.2367C21.7014 19.8246 20.847 22.5658 20.2467 25.4057C20.1491 26.0336 19.9524 26.6614 19.8548 27.4166C21.2163 26.5325 22.3906 25.2384 23.2772 23.645C26.3703 18.6251 27.9057 12.3142 27.5877 5.92832C27.5873 5.79636 27.5595 5.66693 27.5071 5.55337C27.4547 5.4398 27.3797 5.3462 27.2897 5.28223C27.1998 5.21826 27.0981 5.18623 26.9953 5.18943C26.8925 5.19263 26.7922 5.23095 26.7048 5.30045C23.443 7.14233 20.8526 10.5128 19.463 14.723C18.2771 18.2027 17.2589 24.1433 18.5817 27.5396V27.6757C18.5817 27.5418 20.541 17.2367 24.2629 13.0918Z" fill="#38A1FF"/>
<path d="M14.8869 80.8982C12.0632 78.2361 9.09054 75.8437 5.99309 73.7403C5.89012 73.6083 5.9931 73.4739 6.09788 73.4739C7.62987 74.2103 8.66866 74.127 15.1959 79.3073C14.4077 76.534 13.0139 74.1098 11.1807 72.3237C9.34754 70.5377 7.1523 69.465 4.85675 69.2338C3.82158 69.1018 -0.72742 69.1018 0.0999986 71.619C0.670302 73.4392 1.55404 75.0708 2.68523 76.3918C9.92244 83.2834 14.8869 80.8982 14.8869 80.8982Z" fill="#38A1FF"/>
<path d="M94.6048 71.7767C94.6305 71.7263 94.6697 71.6868 94.7164 71.6641C94.7632 71.6414 94.8151 71.6368 94.8644 71.6509C94.9136 71.665 94.9576 71.6971 94.9896 71.7424C95.0217 71.7878 95.0402 71.8438 95.0424 71.9022C94.6725 76.2795 93.8653 80.5929 92.6368 84.7568C98.3231 80.353 98.9785 71.5235 97.2225 64.592C97.196 64.477 97.1474 64.3703 97.0803 64.2798C97.0133 64.1892 96.9295 64.1171 96.8352 64.0688C96.7408 64.0204 96.6382 63.997 96.535 64.0003C96.4317 64.0036 96.3304 64.0335 96.2385 64.0878C91.2076 67.9961 87.7071 77.321 91.2076 83.7483C91.8056 83.0591 92.5432 76.7111 94.6048 71.7767Z" fill="#38A1FF"/>
<path d="M73.4807 307.022C74.3668 306.694 75.2987 306.601 76.2154 306.751C77.1322 306.901 78.013 307.29 78.8002 307.892C79.9304 306.443 81.4053 305.483 83.0081 305.151C83.3968 304.298 83.9064 303.539 84.5124 302.911C83.4695 297.376 82.7355 291.758 82.3156 286.098C81.4435 285.804 80.6017 285.387 79.8066 284.854C73.9506 280.841 75.0429 269.664 74.7887 260.202C74.7887 256.968 73.7858 252.234 74.5888 249.122C75.6916 245.263 78.9037 251.364 79.8066 252.733C79.505 247.877 76.7962 197.33 76.3 190.739C74.6712 166.276 72.697 132.36 75.7986 109.066C75.7986 106.655 80.7832 101.759 82.2209 99.9752C87.9435 93.3664 94.1594 87.4471 100.785 82.2972C100.886 82.1732 100.785 82.0492 100.685 82.0492C99.0788 83.1695 97.5744 84.4137 95.9684 85.4099C88.7326 90.413 81.8913 94.5285 77.103 100.476C79.2621 86.3847 83.3699 72.8635 89.2446 60.5102C99.9396 38.771 110.174 35.5212 121.358 24.6538C122.76 23.2855 124.163 21.789 125.566 20.3033C125.967 19.8074 125.464 18.9351 124.963 19.4332C117.111 26.8007 104.591 32.7804 104.591 33.5004C108.902 25.7457 114.224 13.447 113.924 3.99565C113.917 3.86127 113.872 3.73418 113.797 3.63674C113.722 3.5393 113.622 3.47776 113.514 3.46295C113.407 3.44813 113.298 3.481 113.208 3.55576C113.117 3.63052 113.051 3.74238 113.021 3.87166C107.978 29.6198 89.8249 44.4635 78.6003 74.586L75.8915 82.4321C75.3901 80.3134 74.9886 78.1969 74.4889 76.2066C72.8532 69.7428 70.4525 63.6165 67.3653 58.0282C66.2046 56.0099 64.9303 54.096 63.5519 52.3009C63.1504 51.8027 62.5472 52.4248 62.8505 52.923C70.5738 66.2593 73.4685 85.6166 74.2908 87.6591C71.1348 98.4026 70.8298 100.791 68.27 110.318C67.2653 114.303 66.2624 118.908 62.3491 115.424C53.8193 107.954 48.2001 95.5052 41.8777 85.4186C38.1642 79.5673 34.3508 73.4549 32.3433 66.2462C30.0412 57.6737 31.0441 51.3198 33.3479 41.9685C33.4479 41.4704 32.7448 40.9723 32.5449 41.5944C30.1359 48.0679 27.7269 55.7877 28.4299 63.0073C24.0152 56.2859 21.5062 48.0679 19.0972 40.1022C16.2213 31.133 14.2303 21.7651 13.1676 12.2028C13.0676 11.5807 12.3646 11.5807 12.3646 12.2028C11.9858 37.4354 22.7844 60.5798 34.6436 81.177C32.7227 80.7592 30.7717 80.5923 28.8227 80.6788C19.811 80.4213 10.8967 83.0359 2.93186 88.2725C2.53036 88.5227 2.93186 89.271 3.23342 89.0208C12.2646 83.9156 25.7123 81.6751 35.245 86.0321C39.6615 88.0246 42.5702 93.6279 44.8881 98.3569C44.9933 98.5744 51 110.906 51.4103 111.058C49.4982 110.539 47.5259 110.454 45.5894 110.808C38.187 111.515 30.2569 112.948 24.1151 118.03C24.0485 118.088 24.0009 118.174 23.9811 118.272C23.9612 118.37 23.9704 118.473 24.0069 118.564C24.0434 118.654 24.1049 118.725 24.1801 118.764C24.2553 118.803 24.3392 118.807 24.4167 118.776C31.6893 116 40.6153 113.131 48.3 114.543C49.7026 114.793 53.4178 115.041 54.1209 116.661C58.1777 124.789 61.1897 133.652 63.0487 142.929C64.7441 152.516 65.0562 169.737 66.159 201.195C66.4606 201.445 72.1798 208.791 73.0827 213.024C74.8676 220.402 69.8286 226.406 67.4722 220.119C67.1706 219.249 66.8708 218.501 66.5693 217.629C66.9515 234.735 67.4687 260.111 66.9708 279.257C66.8708 284.861 65.7663 300.174 65.7663 300.422C68.1665 300.174 72.9828 301.795 73.4807 307.022Z" fill="#38A1FF"/>
<path d="M86.6381 301.402C88.0829 296.391 91.1705 298.31 91.1705 296.844C91.1862 296.639 91.162 296.43 91.1017 296.251C91.0413 296.071 90.9481 295.93 90.8361 295.848C89.7909 295.624 88.7313 295.99 87.8209 296.89C86.9105 297.79 86.2 299.174 85.7991 300.827C85.3738 302.299 85.918 303.892 86.6381 301.402Z" fill="#191919"/>
<path d="M65.1083 297.276C63.4874 296.083 58.1283 295.042 56.7545 296.489C56.5327 296.685 56.6436 296.98 56.9783 297.08C58.4202 297.461 60.4809 296.432 63.8824 297.767C64.328 297.963 66.2175 299.243 66.2175 299.243C66.667 299.046 65.3302 297.472 65.1083 297.276Z" fill="#191919"/>
<path d="M107.129 300.517C107.612 300.765 107.896 300.412 107.678 300.184C107.035 296.91 97.6043 296.153 96.7009 300.741C96.7009 300.963 96.9215 301.074 97.0308 300.852C98.6765 298.623 102.629 298.516 104.933 299.515C106.715 300.239 105.994 300.136 107.129 300.517Z" fill="#191919"/>
<path d="M103.189 310.156C101.606 308.665 97.1424 310.71 98.26 311.243C98.6265 311.588 99.3374 310.846 100.882 310.846C101.615 310.846 102.456 311.44 103.189 311.34C103.297 311.333 103.4 311.29 103.477 311.218C103.554 311.145 103.601 311.049 103.608 310.947C103.534 310.656 103.391 310.386 103.189 310.156Z" fill="#191919"/>
<path d="M61.8739 314.864C63.8256 315.345 65.6162 316.495 67.0245 318.174C67.3341 318.42 67.849 318.174 67.6438 317.685C65.5681 311.375 56.302 312.305 55.2776 315.972C55.175 316.462 55.4846 316.708 55.8969 316.708C57.6018 316.498 58.1869 314.273 61.8739 314.864Z" fill="#191919"/>
<path d="M53.0234 299.355C52.6531 299.377 52.292 299.501 51.9679 299.718C51.6438 299.934 51.3653 300.237 51.1539 300.603C51.0504 300.852 51.1539 301.227 51.3608 301.227C52.6313 301.421 54.4047 300.136 56.8677 302.099C57.0977 302.222 57.3083 302.39 57.4903 302.599C57.54 302.656 57.6038 302.691 57.6719 302.7C57.7401 302.709 57.8088 302.691 57.8676 302.649C57.9265 302.607 57.9722 302.543 57.9978 302.466C58.0234 302.39 58.0275 302.305 58.0094 302.226C57.5528 301.159 56.8184 300.301 55.9182 299.783C55.0179 299.264 54.0013 299.114 53.0234 299.355Z" fill="#191919"/>
<path d="M60.2388 305.663C62.9112 303.267 66.1039 302.303 68.8049 304.677C69.8947 305.958 70.6709 307.578 71.048 309.358C70.0343 309.776 69.1701 310.602 68.6 311.698C68.3969 312.068 68.8049 312.438 69.008 312.191C70.425 311.148 71.9762 310.399 73.5975 309.974C77.4975 309.524 79.7709 312.636 80.6332 313.054C80.6902 313.081 80.7528 313.088 80.813 313.073C80.8732 313.059 80.9286 313.023 80.972 312.97C81.0155 312.918 81.0453 312.851 81.0575 312.778C81.0698 312.705 81.0641 312.63 81.0412 312.561C80.9298 312.066 80.7369 311.604 80.4743 311.202C80.2116 310.799 79.8845 310.465 79.5125 310.219C79.8948 309.774 80.3032 309.362 80.7347 308.988C81.4734 308.485 82.2932 308.181 83.1382 308.096C83.9831 308.011 84.8333 308.147 85.6307 308.495C86.0387 308.618 88.5882 310.217 88.2818 308.74C88.0769 307.757 84.9162 305.908 84.2018 306.524C86.049 304.556 88.3063 303.236 90.7297 302.705C93.4824 302.213 95.419 303.814 97.5605 305.785C97.6097 305.841 97.6725 305.876 97.7395 305.884C97.8065 305.893 97.874 305.875 97.9317 305.833C97.9895 305.791 98.0345 305.728 98.0597 305.652C98.085 305.577 98.0893 305.494 98.0719 305.415C97.3592 302.09 93.6855 300.857 91.2393 300.981C89.6405 301.141 88.0877 301.707 86.682 302.641C85.2763 303.574 84.0493 304.856 83.0812 306.401C83.0812 306.524 82.9796 306.524 82.9796 306.646C82.1211 306.679 81.2823 306.966 80.5369 307.482C79.7914 307.997 79.162 308.726 78.7037 309.603H78.6003C77.5807 308.929 76.457 308.516 75.2993 308.389C74.1416 308.262 72.9746 308.424 71.8711 308.865C72.3806 304.8 68.404 301.597 65.4465 301.597C63.4686 301.654 61.5503 302.426 59.9395 303.814C58.2786 305.129 56.8297 306.799 55.6635 308.74C52.2624 305.598 47.598 307.057 46.9958 309.481C46.8943 309.726 47.0992 309.974 47.3023 309.974C48.0976 309.744 48.8805 309.457 49.6469 309.113C52.4975 308.127 54.2364 309.974 56.378 311.823C57.3971 312.683 56.5828 309.976 56.378 309.728C57.7908 308.495 58.8954 306.866 60.2388 305.663Z" fill="#191919"/>
<path d="M118.283 310.689C118.184 311.527 119.16 311.527 119.356 310.928C121.013 305.532 122.377 300.256 125.399 295.577C126.375 294.137 127.443 292.7 128.421 291.138C128.617 290.899 128.227 290.42 128.032 290.661C127.337 291.185 126.621 291.666 125.886 292.1C121.112 295.455 117.582 300.959 116.041 307.452C116.041 307.571 116.235 307.691 116.235 307.571C118.288 301.82 121.595 296.88 125.789 293.299C121.806 297.928 119.169 304.037 118.283 310.689Z" fill="#191919"/>
<path d="M133.319 299.256C131.832 299.562 130.396 300.191 129.074 301.116C124.979 304.431 121.858 309.4 120.201 315.243C120.105 315.616 120.49 315.739 120.683 315.492C123.305 310.884 126.063 303.29 131.679 300.984C130.933 301.307 127.938 306.59 126.567 310.9C125.57 313.512 124.794 316.255 124.253 319.081C124.155 319.825 124.927 320.445 125.217 319.576C126.334 316.911 127.943 306.201 133.801 300.241C134.283 299.875 133.799 299.137 133.319 299.256Z" fill="#191919"/>
<path d="M101.486 291.372C101.486 291.74 101.92 292.108 102.093 291.618C102.589 289.573 102.995 287.487 103.308 285.372C103.782 283.251 104.333 281.166 104.959 279.125C105.132 278.635 104.523 278.269 104.264 278.635C101.393 282.555 98.5256 287.822 98.0897 293.578C98.0047 294.19 98.6973 294.19 98.7853 293.7C99.6403 289.425 101.085 285.43 103.038 281.943C102.494 284.293 101.22 288.406 101.486 291.372Z" fill="#191919"/>
<path d="M39.7405 311.174C39.6869 305.456 37.8365 296.527 38.2617 297.48C39.0011 299.144 41.8588 306.886 42.2822 307.72C42.3875 308.076 42.9162 307.839 42.8108 307.481C41.8866 301.008 37.6794 292.817 34.134 287.358C34.0512 287.247 33.9366 287.172 33.81 287.146C33.6833 287.119 33.5525 287.143 33.4399 287.214C33.3272 287.284 33.2399 287.396 33.1929 287.531C33.1458 287.666 33.142 287.816 33.182 287.953C36.4643 295.218 38.5778 303.079 39.4244 311.174C39.3172 311.411 39.7423 311.411 39.7405 311.174Z" fill="#191919"/>
<path d="M36.7428 314.792C36.9457 315.037 37.4548 314.792 37.2519 314.421C36.674 312.837 35.9925 311.311 35.2138 309.858C33.4527 305.916 31.1434 302.371 28.3874 299.378C27.8783 298.884 27.3692 299.871 27.7769 300.364C30.7596 305.139 33.003 310.529 34.3985 316.272C34.5018 316.765 35.1105 316.517 35.0108 316.024C34.2889 312.646 33.3363 309.347 32.1628 306.159C33.5198 309.164 35.0503 312.048 36.7428 314.792Z" fill="#191919"/>
</svg>
