<svg width="148" height="325" viewBox="0 0 148 325" fill="none" xmlns="http://www.w3.org/2000/svg">
<path d="M104.084 324H139.372" stroke="#ADC4D9" stroke-miterlimit="10" stroke-linecap="round"/>
<path d="M83.4956 324H92.3177" stroke="#ADC4D9" stroke-miterlimit="10" stroke-linecap="round"/>
<path d="M68.7908 324H71.7298" stroke="#ADC4D9" stroke-miterlimit="10" stroke-linecap="round"/>
<path opacity="0.15" d="M73.7229 306.741C114.441 306.741 147.446 302.934 147.446 298.234C147.446 293.534 114.441 289.728 73.7229 289.728C33.0052 289.728 0 293.534 0 298.234C0 302.934 33.0052 306.741 73.7229 306.741Z" fill="#45413C"/>
<path d="M36.8608 250.031V280.664C39.4452 279.166 42.3803 278.38 45.3673 278.385H48.2028C51.0999 278.385 53.9492 279.124 56.4804 280.533C59.0116 281.943 61.1409 283.975 62.6663 286.438L63.8203 250.031H36.8608Z" fill="#FFCEBF"/>
<path d="M83.6243 250.031L84.7782 286.438C86.3032 283.975 88.4325 281.942 90.9638 280.533C93.4951 279.123 96.3445 278.384 99.2417 278.385H102.077C105.064 278.38 107.999 279.167 110.584 280.664V250.031H83.6243Z" fill="#FFCEBF"/>
<path d="M36.8608 261.373H63.4603L63.8203 250.031H36.8608V261.373Z" fill="#FFB59E"/>
<path d="M83.9842 261.373H110.584V250.031H83.6243L83.9842 261.373Z" fill="#FFB59E"/>
<path d="M36.8608 250.031V280.664C39.4452 279.166 42.3803 278.38 45.3673 278.385H48.2028C51.0999 278.385 53.9492 279.124 56.4804 280.533C59.0116 281.943 61.1409 283.975 62.6663 286.438L63.8203 250.031H36.8608Z" stroke="#45413C" stroke-linecap="round" stroke-linejoin="round"/>
<path d="M83.6243 250.031L84.7782 286.438C86.3032 283.975 88.4325 281.942 90.9638 280.533C93.4951 279.123 96.3445 278.384 99.2417 278.385H102.077C105.064 278.38 107.999 279.167 110.584 280.664V250.031H83.6243Z" stroke="#45413C" stroke-linecap="round" stroke-linejoin="round"/>
<path d="M62.306 250.03C62.6836 250.03 63.0573 249.954 63.4053 249.807C63.7532 249.661 64.0685 249.446 64.3325 249.176C64.5965 248.906 64.804 248.586 64.9429 248.235C65.0819 247.884 65.1493 247.508 65.1415 247.131L64.599 224.822C64.708 222.481 65.7147 220.272 67.41 218.653C69.1052 217.035 71.3587 216.132 73.7022 216.132C76.0458 216.132 78.2992 217.035 79.9945 218.653C81.6897 220.272 82.6964 222.481 82.8054 224.822L82.2728 247.126C82.2622 247.504 82.3278 247.881 82.4657 248.234C82.6036 248.586 82.8109 248.908 83.0754 249.179C83.3399 249.45 83.6562 249.665 84.0054 249.811C84.3546 249.957 84.7297 250.032 85.1083 250.03H110.46C110.843 250.03 111.221 249.952 111.573 249.802C111.925 249.652 112.242 249.432 112.507 249.155C112.771 248.879 112.977 248.552 113.112 248.194C113.246 247.835 113.307 247.454 113.291 247.072L110.603 190.495H36.8605L34.1631 247.072C34.1457 247.454 34.2061 247.836 34.3406 248.194C34.475 248.553 34.6808 248.88 34.9454 249.157C35.21 249.433 35.5279 249.653 35.88 249.803C36.232 249.954 36.6109 250.031 36.9936 250.03H62.306Z" fill="#38A1FF"/>
<path d="M111.525 210.333L110.583 190.485H36.8604L35.9136 210.333H111.525Z" fill="#0087FF"/>
<path d="M62.306 250.03C62.6836 250.03 63.0573 249.954 63.4053 249.807C63.7532 249.661 64.0685 249.446 64.3325 249.176C64.5965 248.906 64.804 248.586 64.9429 248.235C65.0819 247.884 65.1493 247.508 65.1415 247.131L64.599 224.822C64.708 222.481 65.7147 220.272 67.41 218.653C69.1052 217.035 71.3587 216.132 73.7022 216.132C76.0458 216.132 78.2992 217.035 79.9945 218.653C81.6897 220.272 82.6964 222.481 82.8054 224.822L82.2728 247.126C82.2622 247.504 82.3278 247.881 82.4657 248.234C82.6036 248.586 82.8109 248.908 83.0754 249.179C83.3399 249.45 83.6562 249.665 84.0054 249.811C84.3546 249.957 84.7297 250.032 85.1083 250.03H110.46C110.843 250.03 111.221 249.952 111.573 249.802C111.925 249.652 112.242 249.432 112.507 249.155C112.771 248.879 112.977 248.552 113.112 248.194C113.246 247.835 113.307 247.454 113.291 247.072L110.603 190.495H36.8605L34.1631 247.072C34.1457 247.454 34.2061 247.836 34.3406 248.194C34.475 248.553 34.6808 248.88 34.9454 249.157C35.21 249.433 35.5279 249.653 35.88 249.803C36.232 249.954 36.6109 250.031 36.9936 250.03H62.306Z" stroke="#45413C" stroke-linecap="round" stroke-linejoin="round"/>
<path d="M110.584 206.083C110.642 208.676 111.713 211.144 113.568 212.958C115.423 214.772 117.914 215.788 120.508 215.788C123.103 215.788 125.594 214.772 127.449 212.958C129.304 211.144 130.375 208.676 130.433 206.083V147.952H110.584V206.083Z" fill="#FFCEBF" stroke="#45413C" stroke-linecap="round" stroke-linejoin="round"/>
<path d="M111.885 295.398C112.857 295.407 113.815 295.165 114.667 294.695C115.518 294.226 116.234 293.545 116.745 292.718C117.257 291.891 117.547 290.947 117.587 289.975C117.627 289.004 117.416 288.039 116.974 287.173C115.504 284.509 113.347 282.289 110.726 280.743C108.106 279.197 105.119 278.383 102.077 278.385H99.2414C96.1959 278.38 93.205 279.193 90.581 280.739C87.957 282.285 85.7961 284.507 84.3242 287.173C83.8803 288.04 83.6681 289.007 83.7085 289.981C83.7488 290.955 84.0401 291.901 84.5542 292.729C85.0683 293.557 85.7877 294.237 86.6426 294.705C87.4974 295.173 88.4587 295.411 89.433 295.398H111.885Z" fill="#87898C" stroke="#45413C" stroke-linecap="round" stroke-linejoin="round"/>
<path d="M58.0114 295.399C58.9852 295.411 59.9456 295.171 60.7996 294.703C61.6537 294.235 62.3724 293.555 62.8862 292.727C63.4001 291.9 63.6916 290.954 63.7326 289.981C63.7736 289.008 63.5626 288.041 63.1202 287.173C61.6495 284.51 59.4916 282.291 56.8715 280.745C54.2514 279.2 51.2648 278.385 48.2227 278.386H45.3675C42.3255 278.385 39.3389 279.2 36.7188 280.745C34.0986 282.291 31.9408 284.51 30.4701 287.173C30.0255 288.039 29.8122 289.005 29.8509 289.977C29.8896 290.95 30.1791 291.896 30.6912 292.724C31.2032 293.551 31.9205 294.232 32.7735 294.701C33.6264 295.17 34.586 295.41 35.5592 295.399H58.0114Z" fill="#87898C" stroke="#45413C" stroke-linecap="round" stroke-linejoin="round"/>
<path d="M110.583 147.952V198.991H36.8604V147.952H17.012V142.281C17.012 127.241 22.9868 112.816 33.6219 102.181C44.2571 91.5461 58.6815 85.5713 73.7219 85.5713C88.7623 85.5713 103.187 91.5461 113.822 102.181C124.457 112.816 130.432 127.241 130.432 142.281V147.952H110.583Z" fill="#F8F8F8"/>
<path d="M73.7266 85.5713C58.6861 85.5713 44.2617 91.5461 33.6266 102.181C22.9914 112.816 17.0166 127.241 17.0166 142.281V147.952H18.1557C20.7636 135.138 27.7201 123.618 37.8472 115.345C47.9742 107.071 60.6495 102.552 73.7266 102.552C86.8036 102.552 99.4789 107.071 109.606 115.345C119.733 123.618 126.689 135.138 129.297 147.952H130.437V142.281C130.437 127.241 124.462 112.816 113.827 102.181C103.191 91.5461 88.767 85.5713 73.7266 85.5713Z" fill="white"/>
<path d="M110.579 170.636H36.856" stroke="#87898C" stroke-linecap="round" stroke-linejoin="round"/>
<path d="M36.856 187.649H110.579" stroke="#87898C" stroke-linecap="round" stroke-linejoin="round"/>
<path d="M130.142 136.611H17.2939" stroke="#87898C" stroke-linecap="round" stroke-linejoin="round"/>
<path d="M36.856 153.624H110.579" stroke="#87898C" stroke-linecap="round" stroke-linejoin="round"/>
<path d="M21.7559 119.597H125.678" stroke="#87898C" stroke-linecap="round" stroke-linejoin="round"/>
<path d="M114.189 102.584H83.7729" stroke="#87898C" stroke-linecap="round" stroke-linejoin="round"/>
<path d="M63.663 102.584H33.2517" stroke="#87898C" stroke-linecap="round" stroke-linejoin="round"/>
<path d="M110.583 147.952V198.991H36.8604V147.952H17.012V142.281C17.012 127.241 22.9868 112.816 33.6219 102.181C44.2571 91.5461 58.6815 85.5713 73.7219 85.5713C88.7623 85.5713 103.187 91.5461 113.822 102.181C124.457 112.816 130.432 127.241 130.432 142.281V147.952H110.583Z" stroke="#45413C" stroke-linecap="round" stroke-linejoin="round"/>
<path d="M89.0542 87.7316C88.021 87.4384 87.1118 86.8159 86.4648 85.9588C85.8177 85.1017 85.4681 84.0567 85.4692 82.9827V70.4868H61.9863V82.9926C61.9855 84.0642 61.6357 85.1065 60.9897 85.9615C60.3437 86.8166 59.4368 87.438 58.4062 87.7316L56.7246 88.2247C56.7246 88.2247 56.8923 105.287 73.7376 105.4C90.5829 105.287 90.7506 88.2247 90.7506 88.2247L89.0542 87.7316Z" fill="#FFCEBF" stroke="#45413C" stroke-linecap="round" stroke-linejoin="round"/>
<path d="M36.8608 130.939V147.952" stroke="#45413C" stroke-linecap="round" stroke-linejoin="round"/>
<path d="M110.584 130.939V147.952" stroke="#45413C" stroke-linecap="round" stroke-linejoin="round"/>
<path d="M113.42 46.368C113.405 44.7539 112.833 43.1946 111.799 41.9549C110.765 40.7153 109.334 39.8718 107.749 39.5677V35.026C107.749 26.0017 104.164 17.3471 97.7828 10.966C91.4017 4.58487 82.7471 1 73.7228 1C64.6986 1 56.0439 4.58487 49.6628 10.966C43.2817 17.3471 39.6969 26.0017 39.6969 35.026V39.5677C38.041 39.8746 36.5531 40.7728 35.5103 42.0951C34.4674 43.4173 33.9407 45.0736 34.0282 46.7553C34.1156 48.4371 34.8113 50.0298 35.9857 51.2367C37.1601 52.4437 38.7332 53.1827 40.4119 53.3162C42.0065 60.9712 46.1891 67.8435 52.2558 72.7768C58.3226 77.71 65.9034 80.4032 73.7228 80.4032C81.5422 80.4032 89.123 77.71 95.1898 72.7768C101.257 67.8435 105.439 60.9712 107.034 53.3162C108.771 53.1582 110.387 52.3591 111.568 51.0747C112.748 49.7903 113.409 48.1124 113.42 46.368Z" fill="#FFCEBF" stroke="#45413C" stroke-linecap="round" stroke-linejoin="round"/>
<path d="M65.2155 39.2813C65.2155 40.41 64.7672 41.4925 63.9691 42.2906C63.171 43.0887 62.0885 43.5371 60.9598 43.5371C59.8311 43.5371 58.7487 43.0887 57.9506 42.2906C57.1525 41.4925 56.7041 40.41 56.7041 39.2813C56.7041 38.1527 57.1525 37.0702 57.9506 36.2721C58.7487 35.474 59.8311 35.0256 60.9598 35.0256C62.0885 35.0256 63.171 35.474 63.9691 36.2721C64.7672 37.0702 65.2155 38.1527 65.2155 39.2813Z" fill="#45413C"/>
<path d="M82.2283 39.2813C82.2283 40.41 82.6766 41.4925 83.4747 42.2906C84.2728 43.0887 85.3553 43.5371 86.484 43.5371C87.6127 43.5371 88.6951 43.0887 89.4932 42.2906C90.2913 41.4925 90.7397 40.41 90.7397 39.2813C90.7397 38.1527 90.2913 37.0702 89.4932 36.2721C88.6951 35.474 87.6127 35.0256 86.484 35.0256C85.3553 35.0256 84.2728 35.474 83.4747 36.2721C82.6766 37.0702 82.2283 38.1527 82.2283 39.2813Z" fill="#45413C"/>
<path d="M40 46.5C40 47.4283 39.7893 48.3185 39.4142 48.9749C39.0391 49.6312 38.5304 50 38 50C37.4696 50 36.9609 49.6312 36.5858 48.9749C36.2107 48.3185 36 47.4283 36 46.5C36 45.5717 36.2107 44.6815 36.5858 44.0251C36.9609 43.3687 37.4696 43 38 43C38.5304 43 39.0391 43.3687 39.4142 44.0251C39.7893 44.6815 40 45.5717 40 46.5Z" fill="#FFB59E"/>
<path d="M65.2153 60.8066C67.7345 62.4859 70.6943 63.382 73.7218 63.382C76.7494 63.382 79.7092 62.4859 82.2283 60.8066" stroke="#45413C" stroke-linecap="round" stroke-linejoin="round"/>
<path d="M73.7228 1C64.6985 1 56.0438 4.58487 49.6627 10.966C43.2816 17.3471 39.6968 26.0017 39.6968 35.026V38.4286C39.6968 38.325 39.7264 38.2362 39.7264 38.1327C42.2032 38.0927 44.5657 37.0836 46.3072 35.3219C48.0486 33.5602 49.0303 31.1861 49.0416 28.709C49.1817 27.8198 49.499 26.9679 49.9747 26.2037C50.4503 25.4395 51.0746 24.7787 51.8104 24.2603C52.5463 23.742 53.3788 23.3768 54.2585 23.1863C55.1383 22.9958 56.0473 22.9839 56.9317 23.1514C68.0123 25.3705 79.4233 25.3705 90.504 23.1514C91.3883 22.9846 92.2971 22.997 93.1766 23.1878C94.056 23.3786 94.8882 23.7439 95.624 24.2621C96.3597 24.7803 96.9839 25.4409 97.4598 26.2048C97.9356 26.9686 98.2533 27.8201 98.394 28.709C98.4041 31.1865 99.3853 33.5613 101.127 35.3233C102.869 37.0853 105.232 38.094 107.709 38.1327C107.709 38.2362 107.739 38.325 107.739 38.4286V35.026C107.739 26.0034 104.155 17.3503 97.7764 10.9695C91.3974 4.58864 82.7453 1.00262 73.7228 1Z" fill="black" stroke="#45413C" stroke-linecap="round" stroke-linejoin="round"/>
<path d="M8.50537 207.498C8.50511 205.513 8.9219 203.549 9.72874 201.735C10.5356 199.921 11.7145 198.296 13.1891 196.967C14.6637 195.637 16.4011 194.632 18.2889 194.017C20.1766 193.402 22.1726 193.19 24.1475 193.395C27.7261 193.89 30.9983 195.682 33.3421 198.431C35.6859 201.181 36.9379 204.695 36.8603 208.307V250.031C36.8603 251.535 36.2629 252.977 35.1993 254.041C34.1358 255.104 32.6934 255.702 31.1894 255.702H25.5184C24.0143 255.702 22.5719 255.104 21.5084 254.041C20.4448 252.977 19.8474 251.535 19.8474 250.031V235.853H14.1764C12.6723 235.853 11.2299 235.256 10.1664 234.192C9.10285 233.129 8.50537 231.686 8.50537 230.182V207.498Z" fill="#8A97AC" stroke="#45413C" stroke-linecap="round" stroke-linejoin="round"/>
<path d="M19.8477 235.853V210.333" stroke="#45413C" stroke-linecap="round" stroke-linejoin="round"/>
<path d="M101.046 92.5935L67.5134 152.972C60.1272 166.266 49.6086 177.557 36.8703 185.864C33.8228 187.886 30.6569 189.73 27.3973 191.387C26.3981 191.887 25.5071 192.579 24.7753 193.423C24.0434 194.268 23.485 195.248 23.132 196.308C22.7789 197.368 22.6381 198.487 22.7176 199.602C22.7971 200.716 23.0953 201.804 23.5953 202.803C24.0952 203.802 24.7871 204.693 25.6313 205.425C26.4756 206.157 27.4557 206.715 28.5158 207.068C29.5759 207.422 30.6951 207.562 31.8096 207.483C32.9241 207.403 34.012 207.105 35.0112 206.605C39.4659 204.356 43.7657 201.812 47.8819 198.991C62.1829 189.28 74.006 176.349 82.401 161.237L114.691 103.112C110.702 98.9343 106.102 95.3876 101.046 92.5935Z" fill="#38A1FF" stroke="#45413C" stroke-linecap="round" stroke-linejoin="round"/>
<path d="M36.8565 185.864C33.8089 187.886 30.643 189.73 27.3835 191.387C25.3654 192.399 23.8319 194.171 23.1203 196.313C22.4087 198.455 22.5772 200.792 23.5888 202.81C24.6005 204.828 26.3723 206.362 28.5146 207.074C30.6569 207.785 32.9942 207.617 35.0122 206.605C39.4668 204.356 43.7666 201.812 47.8829 198.991L36.8565 185.864Z" fill="#ADC4D9" stroke="#45413C" stroke-linecap="round" stroke-linejoin="round"/>
<path d="M36.8604 159.294C36.8604 160.039 37.0071 160.777 37.2921 161.465C37.5771 162.153 37.9948 162.778 38.5214 163.304C39.048 163.831 39.6732 164.249 40.3612 164.534C41.0493 164.819 41.7867 164.965 42.5314 164.965H60.9597C62.9521 164.918 64.9124 165.473 66.5854 166.556C68.2583 167.639 69.5663 169.2 70.339 171.038C71.1117 172.875 71.3133 174.902 70.9175 176.855C70.5217 178.808 69.5469 180.597 68.12 181.988C67.1744 182.912 66.054 183.637 64.8246 184.123C63.5951 184.608 62.2811 184.843 60.9597 184.814H42.5314C35.7632 184.814 29.2723 182.125 24.4865 177.339C19.7006 172.554 17.012 166.063 17.012 159.294V147.952H36.8604V159.294Z" fill="#FFCEBF" stroke="#45413C" stroke-linecap="round" stroke-linejoin="round"/>
</svg>
