<svg width="56" height="123" viewBox="0 0 56 123" fill="none" xmlns="http://www.w3.org/2000/svg">
<path d="M22.7583 62.4934H25.8312V85.5402H22.7583V62.4934Z" fill="#E09F7E" stroke="#45413C" stroke-linecap="round" stroke-linejoin="round"/>
<path d="M44.8765 29.7885C44.21 29.22 43.7312 28.4632 43.5029 27.6175C43.1532 26.6194 43.1893 25.5266 43.6043 24.5538C45.6862 19.4313 47.3348 1 27.9186 1C8.50248 1 10.1496 19.4374 12.2315 24.5538C12.6469 25.5264 12.6836 26.6192 12.3344 27.6175C12.105 28.4631 11.6257 29.2197 10.9593 29.7885C10.9168 29.8262 10.8857 29.875 10.8693 29.9294C10.8529 29.9837 10.8519 30.0416 10.8664 30.0965C10.8808 30.1514 10.9103 30.2012 10.9513 30.2404C10.9924 30.2796 11.0436 30.3067 11.0991 30.3186C12.7705 30.6055 14.486 30.4944 16.1064 29.9944C16.2248 31.257 16.0097 32.5285 15.4826 33.6819C15.4137 33.7801 15.3714 33.8946 15.36 34.014C15.3486 34.1335 15.3684 34.2539 15.4175 34.3634C15.4666 34.4729 15.5433 34.5677 15.6401 34.6387C15.7369 34.7097 15.8504 34.7543 15.9696 34.7681C17.0483 34.9934 18.1712 34.8584 19.1657 34.3838C20.1602 33.9091 20.9714 33.1211 21.4747 32.1408C21.8994 32.6263 22.1966 33.2099 22.3393 33.8389C22.482 34.4679 22.4658 35.1226 22.2921 35.7438C22.2467 35.8955 22.2451 36.057 22.2876 36.2096C22.33 36.3622 22.4148 36.4997 22.5322 36.6061C22.6495 36.7125 22.7946 36.7835 22.9506 36.8109C23.1066 36.8383 23.2672 36.821 23.4138 36.7609C25.3113 35.9481 27.9186 34.5822 27.9186 33.2148C27.9186 34.5822 30.5306 35.9481 32.422 36.7609C32.5685 36.821 32.7291 36.8383 32.8851 36.8109C33.0411 36.7835 33.1862 36.7125 33.3035 36.6061C33.4209 36.4997 33.5057 36.3622 33.5482 36.2096C33.5906 36.057 33.5891 35.8955 33.5436 35.7438C33.37 35.1226 33.3538 34.4679 33.4965 33.8389C33.6392 33.2099 33.9363 32.6263 34.361 32.1408C34.8643 33.1211 35.6755 33.9091 36.67 34.3838C37.6645 34.8584 38.7874 34.9934 39.8661 34.7681C39.9853 34.7543 40.0988 34.7097 40.1956 34.6387C40.2924 34.5677 40.3691 34.4729 40.4182 34.3634C40.4673 34.2539 40.4871 34.1335 40.4757 34.014C40.4643 33.8946 40.4221 33.7801 40.3531 33.6819C39.8263 32.5284 39.6117 31.2568 39.7309 29.9944C41.3532 30.4957 43.071 30.6068 44.7443 30.3186C44.8015 30.3089 44.8546 30.2828 44.8971 30.2434C44.9397 30.204 44.9698 30.153 44.9838 30.0968C44.9979 30.0405 44.9952 29.9814 44.9761 29.9266C44.957 29.8719 44.9224 29.8239 44.8765 29.7885Z" fill="black"/>
<path d="M28.025 6.3699C39.7527 6.3699 43.7951 13.095 44.6986 19.5496C45.3869 12.1854 43.0438 1 27.919 1C12.1504 1 10.2744 13.1564 11.2408 20.4684C11.8861 13.7495 15.738 6.3699 28.025 6.3699Z" fill="#947063"/>
<path d="M44.8765 29.7885C44.21 29.22 43.7312 28.4632 43.5029 27.6175C43.1532 26.6194 43.1893 25.5266 43.6043 24.5538C45.6862 19.4313 47.3348 1 27.9186 1C8.50248 1 10.1496 19.4374 12.2315 24.5538C12.6469 25.5264 12.6836 26.6192 12.3344 27.6175C12.105 28.4631 11.6257 29.2197 10.9593 29.7885C10.9168 29.8262 10.8857 29.875 10.8693 29.9294C10.8529 29.9837 10.8519 30.0416 10.8664 30.0965C10.8808 30.1514 10.9103 30.2012 10.9513 30.2404C10.9924 30.2796 11.0436 30.3067 11.0991 30.3186C12.7705 30.6055 14.486 30.4944 16.1064 29.9944C16.2248 31.257 16.0097 32.5285 15.4826 33.6819C15.4137 33.7801 15.3714 33.8946 15.36 34.014C15.3486 34.1335 15.3684 34.2539 15.4175 34.3634C15.4666 34.4729 15.5433 34.5677 15.6401 34.6387C15.7369 34.7097 15.8504 34.7543 15.9696 34.7681C17.0483 34.9934 18.1712 34.8584 19.1657 34.3838C20.1602 33.9091 20.9714 33.1211 21.4747 32.1408C21.8994 32.6263 22.1966 33.2099 22.3393 33.8389C22.482 34.4679 22.4658 35.1226 22.2921 35.7438C22.2467 35.8955 22.2451 36.057 22.2876 36.2096C22.33 36.3622 22.4148 36.4997 22.5322 36.6061C22.6495 36.7125 22.7946 36.7835 22.9506 36.8109C23.1066 36.8383 23.2672 36.821 23.4138 36.7609C25.3113 35.9481 27.9186 34.5822 27.9186 33.2148C27.9186 34.5822 30.5306 35.9481 32.422 36.7609C32.5685 36.821 32.7291 36.8383 32.8851 36.8109C33.0411 36.7835 33.1862 36.7125 33.3035 36.6061C33.4209 36.4997 33.5057 36.3622 33.5482 36.2096C33.5906 36.057 33.5891 35.8955 33.5436 35.7438C33.37 35.1226 33.3538 34.4679 33.4965 33.8389C33.6392 33.2099 33.9363 32.6263 34.361 32.1408C34.8643 33.1211 35.6755 33.9091 36.67 34.3838C37.6645 34.8584 38.7874 34.9934 39.8661 34.7681C39.9853 34.7543 40.0988 34.7097 40.1956 34.6387C40.2924 34.5677 40.3691 34.4729 40.4182 34.3634C40.4673 34.2539 40.4871 34.1335 40.4757 34.014C40.4643 33.8946 40.4221 33.7801 40.3531 33.6819C39.8263 32.5284 39.6117 31.2568 39.7309 29.9944C41.3532 30.4957 43.071 30.6068 44.7443 30.3186C44.8015 30.3089 44.8546 30.2828 44.8971 30.2434C44.9397 30.204 44.9698 30.153 44.9838 30.0968C44.9979 30.0405 44.9952 29.9814 44.9761 29.9266C44.957 29.8719 44.9224 29.8239 44.8765 29.7885Z" stroke="#45413C" stroke-linecap="round" stroke-linejoin="round"/>
<path opacity="0.15" d="M0 119.049C-5.4636e-08 119.472 0.722183 119.891 2.12531 120.282C3.52845 120.673 5.58505 121.028 8.1777 121.327C10.7703 121.626 13.8483 121.864 17.2357 122.026C20.6232 122.187 24.2539 122.271 27.9204 122.271C31.587 122.271 35.2176 122.187 38.6051 122.026C41.9925 121.864 45.0705 121.626 47.6631 121.327C50.2558 121.028 52.3124 120.673 53.7155 120.282C55.1186 119.891 55.8408 119.472 55.8408 119.049C55.8408 118.194 52.8992 117.375 47.6631 116.771C42.427 116.166 35.3254 115.827 27.9204 115.827C20.5155 115.827 13.4138 116.166 8.1777 116.771C2.94161 117.375 0 118.194 0 119.049Z" fill="#45413C"/>
<path d="M13.9602 76.6335V116.366H23.6245L24.4741 89.6319C24.5009 88.7357 24.8757 87.8852 25.5191 87.2608C26.1625 86.6363 27.0238 86.2871 27.9204 86.2871C28.817 86.2871 29.6783 86.6363 30.3217 87.2608C30.9651 87.8852 31.3399 88.7357 31.3667 89.6319L32.2163 116.366H41.8806V76.6335H13.9602Z" fill="#FFDB94"/>
<path d="M24.2037 98.1085L24.4726 89.6365C24.4994 88.7399 24.8744 87.889 25.518 87.2643C26.1617 86.6396 27.0234 86.2901 27.9204 86.2901C28.8174 86.2901 29.6791 86.6396 30.3228 87.2643C30.9665 87.889 31.3414 88.7399 31.3682 89.6365L31.6356 98.1085H41.8806V76.6335H13.9602V98.1085H24.2037Z" fill="#38A1FF"/>
<path d="M13.9602 98.1084H24.2037" stroke="#45413C" stroke-linecap="round" stroke-linejoin="round"/>
<path d="M31.6357 98.1084H41.8808" stroke="#45413C" stroke-linecap="round" stroke-linejoin="round"/>
<path d="M13.9587 76.6318H41.8792V82.0017H13.9587V76.6318Z" fill="#009FD9"/>
<path d="M13.9602 76.6335V116.366H23.6245L24.4741 89.6319C24.5009 88.7357 24.8757 87.8852 25.5191 87.2608C26.1625 86.6363 27.0238 86.2871 27.9204 86.2871C28.817 86.2871 29.6783 86.6363 30.3217 87.2608C30.9651 87.8852 31.3399 88.7357 31.3667 89.6319L32.2163 116.366H41.8806V76.6335H13.9602Z" stroke="#45413C" stroke-linecap="round" stroke-linejoin="round"/>
<path d="M12.8848 98.1084H25.771V103.478H12.8848V98.1084Z" fill="#00B8F0" stroke="#45413C" stroke-linecap="round" stroke-linejoin="round"/>
<path d="M30.0652 98.1084H42.9514V103.478H30.0652V98.1084Z" fill="#00B8F0" stroke="#45413C" stroke-linecap="round" stroke-linejoin="round"/>
<path d="M42.3738 117.439C42.7421 117.442 43.105 117.35 43.4275 117.172C43.7499 116.994 44.0211 116.736 44.2148 116.423C44.4085 116.11 44.5181 115.752 44.5332 115.384C44.5482 115.016 44.4681 114.651 44.3006 114.323C43.7435 113.314 42.9263 112.474 41.934 111.888C40.9418 111.303 39.8107 110.994 38.6587 110.995H37.5832C36.4314 110.994 35.3005 111.303 34.3085 111.888C33.3165 112.474 32.4996 113.314 31.9429 114.323C31.7754 114.651 31.6953 115.016 31.7103 115.384C31.7253 115.752 31.8349 116.11 32.0286 116.423C32.2223 116.736 32.4935 116.994 32.816 117.172C33.1384 117.35 33.5013 117.442 33.8696 117.439H42.3738Z" fill="#915E3A" stroke="#45413C" stroke-linecap="round" stroke-linejoin="round"/>
<path d="M21.9698 117.439C22.3381 117.442 22.7009 117.35 23.0234 117.172C23.3459 116.994 23.6171 116.736 23.8108 116.423C24.0044 116.11 24.1141 115.752 24.1291 115.384C24.1441 115.016 24.064 114.651 23.8965 114.323C23.3398 113.314 22.5229 112.474 21.5309 111.888C20.5389 111.303 19.408 110.994 18.2562 110.995H17.1807C16.0286 110.994 14.8976 111.303 13.9054 111.888C12.9131 112.474 12.0959 113.314 11.5388 114.323C11.3713 114.651 11.2912 115.016 11.3062 115.384C11.3212 115.752 11.4309 116.11 11.6246 116.423C11.8183 116.736 12.0894 116.994 12.4119 117.172C12.7344 117.35 13.0973 117.442 13.4655 117.439H21.9698Z" fill="#915E3A" stroke="#45413C" stroke-linecap="round" stroke-linejoin="round"/>
<path d="M49.3955 58.3772V60.5283H41.8792V76.6333H13.9588V60.5236H6.44095V58.3726C6.41697 55.5369 6.95479 52.7245 8.02337 50.0977C9.09195 47.4709 10.6701 45.0817 12.6669 43.068C14.6636 41.0543 17.0394 39.456 19.657 38.3652C22.2747 37.2745 25.0824 36.7129 27.9183 36.7129C30.7541 36.7129 33.5618 37.2745 36.1795 38.3652C38.7972 39.456 41.1729 41.0543 43.1696 43.068C45.1664 45.0817 46.7446 47.4709 47.8131 50.0977C48.8817 52.7245 49.4195 55.5369 49.3955 58.3726V58.3772Z" fill="#F8F8F8"/>
<path d="M27.919 36.8992C22.2241 36.9041 16.764 39.1685 12.7371 43.1953C8.71023 47.2222 6.4458 52.6824 6.44092 58.3772V60.5283H6.87266C7.86075 55.6746 10.4959 51.3115 14.3318 48.1778C18.1677 45.044 22.9688 43.3322 27.9221 43.3322C32.8753 43.3322 37.6764 45.044 41.5123 48.1778C45.3483 51.3115 47.9834 55.6746 48.9715 60.5283H49.4017V58.3772C49.3988 52.681 47.1344 47.2189 43.1061 43.1915C39.0778 39.164 33.6152 36.9008 27.919 36.8992Z" fill="white"/>
<path d="M49.3956 58.3772V60.5283H41.8792V76.6333H13.9588V60.5236H6.44095V58.3726C6.41697 55.5369 6.95479 52.7245 8.02337 50.0977C9.09195 47.4709 10.6701 45.0817 12.6669 43.068C14.6636 41.0543 17.0394 39.456 19.657 38.3652C22.2747 37.2745 25.0824 36.7129 27.9183 36.7129C30.7541 36.7129 33.5618 37.2745 36.1795 38.3652C38.7972 39.456 41.1729 41.0543 43.1696 43.068C45.1664 45.0817 46.7446 47.4709 47.8131 50.0977C48.8817 52.7245 49.4195 55.5369 49.3956 58.3726V58.3772Z" stroke="#45413C" stroke-linecap="round" stroke-linejoin="round"/>
<path d="M34.0387 37.7902C33.6717 37.6808 33.3499 37.4559 33.121 37.1489C32.892 36.8419 32.7683 36.4693 32.768 36.0863V31.5261H23.0684V36.0863C23.068 36.469 22.9444 36.8414 22.7158 37.1483C22.4872 37.4552 22.1659 37.6803 21.7993 37.7902C22.0759 39.0102 23.3004 43.343 27.919 43.343C32.5376 43.343 33.7621 39.0102 34.0387 37.7902Z" fill="#FFDB94" stroke="#45413C" stroke-linecap="round" stroke-linejoin="round"/>
<path d="M41.8806 54.0813V60.5236" stroke="#45413C" stroke-linecap="round" stroke-linejoin="round"/>
<path d="M16.4444 89.432L12.7185 88.5716C12.0458 88.4163 11.4114 88.1266 10.8535 87.7198C10.2956 87.313 9.82574 86.7975 9.47222 86.2045C9.11869 85.6114 8.88879 84.9529 8.79634 84.2687C8.70389 83.5845 8.75081 82.8886 8.93427 82.2229L16.1064 56.2292H20.4085L21.3211 85.4326C21.3406 86.0419 21.2197 86.6475 20.9678 87.2026C20.7158 87.7577 20.3397 88.2475 19.8683 88.634C19.397 89.0206 18.843 89.2936 18.2494 89.4319C17.6557 89.5703 17.0381 89.5703 16.4444 89.432Z" fill="#FFFEF2" stroke="#45413C" stroke-linecap="round" stroke-linejoin="round"/>
<path d="M20.4012 38.2588C18.8889 38.8234 17.4457 39.558 16.0991 40.4482V56.2291H20.4012V38.2588Z" fill="#38A1FF"/>
<path d="M16.1067 40.4482V46.8906C17.4539 46.0015 18.897 45.267 20.4088 44.7011V38.2588C18.8965 38.8234 17.4532 39.558 16.1067 40.4482Z" fill="#00DBA8"/>
<path d="M20.4012 38.2588C18.8889 38.8234 17.4457 39.558 16.0991 40.4482V56.2291H20.4012V38.2588Z" stroke="#38A1FF" stroke-linecap="round" stroke-linejoin="round"/>
<path d="M13.9588 62.6716C13.9588 63.2421 14.1854 63.7893 14.5888 64.1927C14.9922 64.5961 15.5393 64.8227 16.1098 64.8227H23.0807C24.0774 64.8227 25.0333 65.2186 25.7381 65.9234C26.4429 66.6282 26.8389 67.5841 26.8389 68.5808C26.8389 69.5776 26.4429 70.5335 25.7381 71.2383C25.0333 71.9431 24.0774 72.339 23.0807 72.339H16.1067C14.8375 72.3392 13.5806 72.0894 12.4079 71.6038C11.2352 71.1182 10.1696 70.4064 9.27207 69.5089C8.37449 68.6115 7.66249 67.5461 7.17672 66.3734C6.69095 65.2008 6.44092 63.944 6.44092 62.6747V60.5237H13.9588V62.6716Z" fill="#FFDB94" stroke="#45413C" stroke-linecap="round" stroke-linejoin="round"/>
<path d="M52.6177 69.1155H35.4355V82.0017H51.5437C51.8262 82.0017 52.1059 81.9461 52.3669 81.838C52.6279 81.7299 52.865 81.5714 53.0647 81.3717C53.2645 81.1719 53.4229 80.9348 53.531 80.6738C53.6391 80.4129 53.6947 80.1331 53.6947 79.8507V70.1864C53.6935 69.9017 53.5795 69.6291 53.3776 69.4283C53.1757 69.2276 52.9024 69.1151 52.6177 69.1155Z" fill="#FFE500" stroke="#45413C" stroke-linecap="round" stroke-linejoin="round"/>
<path d="M35.435 69.1155H37.586V79.8599C37.586 80.4304 37.3594 80.9775 36.956 81.3809C36.5526 81.7843 36.0055 82.0109 35.435 82.0109C34.8645 82.0109 34.3174 81.7843 33.914 81.3809C33.5106 80.9775 33.2839 80.4304 33.2839 79.8599V71.2634C33.2847 70.6935 33.5117 70.1471 33.915 69.7444C34.3183 69.3417 34.865 69.1155 35.435 69.1155Z" fill="#FFF5E3" stroke="#45413C" stroke-linecap="round" stroke-linejoin="round"/>
<path d="M41.8789 82.538C41.8789 83.5347 42.2749 84.4906 42.9796 85.1954C43.6844 85.9002 44.6403 86.2961 45.6371 86.2961C46.6338 86.2961 47.5897 85.9002 48.2945 85.1954C48.9993 84.4906 49.3952 83.5347 49.3952 82.538V60.5237H41.8789V82.538Z" fill="#FFDB94"/>
<path d="M41.8789 60.5237H49.3952V65.8936H41.8789V60.5237Z" fill="#FFBE3D"/>
<path d="M41.8789 82.538C41.8789 83.5347 42.2749 84.4906 42.9796 85.1954C43.6844 85.9002 44.6403 86.2961 45.6371 86.2961C46.6338 86.2961 47.5897 85.9002 48.2945 85.1954C48.9993 84.4906 49.3952 83.5347 49.3952 82.538V60.5237H41.8789V82.538Z" stroke="#45413C" stroke-linecap="round" stroke-linejoin="round"/>
<path d="M40.8054 19.9015V18.1822C40.8054 18.1208 40.7962 18.0608 40.7962 18.0009C32.1798 24.5477 23.1546 17.4801 20.2707 14.8128C20.1846 14.7343 20.0786 14.6809 19.9642 14.6584C19.8498 14.636 19.7315 14.6453 19.6221 14.6854C19.5126 14.7254 19.4163 14.7947 19.3434 14.8857C19.2706 14.9767 19.2241 15.0859 19.209 15.2015C18.9355 16.9715 18.0306 19.9015 15.033 19.9015C14.4068 20.0189 13.8446 20.3595 13.4506 20.86C13.0567 21.3606 12.8577 21.9871 12.8907 22.6233C12.9238 23.2595 13.1866 23.862 13.6303 24.3191C14.074 24.7761 14.6685 25.0567 15.3034 25.1085C15.9076 28.0073 17.4917 30.6094 19.7892 32.4774C22.0867 34.3453 24.9574 35.365 27.9184 35.365C30.8794 35.365 33.7501 34.3453 36.0476 32.4774C38.3451 30.6094 39.9292 28.0073 40.5335 25.1085C41.1684 25.0569 41.7631 24.7766 42.207 24.3197C42.6509 23.8627 42.9139 23.2602 42.9471 22.624C42.9803 21.9878 42.7815 21.3611 42.3876 20.8604C41.9938 20.3597 41.4315 20.019 40.8054 19.9015Z" fill="#FFDB94" stroke="#45413C" stroke-linecap="round" stroke-linejoin="round"/>
<path d="M21.2571 20.1671C21.5999 19.8247 22.0647 19.6323 22.5492 19.6323C23.0338 19.6323 23.4986 19.8247 23.8414 20.1671" stroke="#45413C" stroke-linecap="round" stroke-linejoin="round"/>
<path d="M19.3284 24.0882C19.3284 24.5153 19.498 24.9248 19.8 25.2268C20.102 25.5288 20.5115 25.6984 20.9386 25.6984C21.3656 25.6984 21.7752 25.5288 22.0772 25.2268C22.3791 24.9248 22.5488 24.5153 22.5488 24.0882C22.5488 23.6612 22.3791 23.2516 22.0772 22.9496C21.7752 22.6477 21.3656 22.478 20.9386 22.478C20.5115 22.478 20.102 22.6477 19.8 22.9496C19.498 23.2516 19.3284 23.6612 19.3284 24.0882Z" fill="#FFBE3D"/>
<path d="M33.2886 24.0882C33.2886 24.5153 33.4582 24.9248 33.7602 25.2268C34.0622 25.5288 34.4717 25.6984 34.8988 25.6984C35.3258 25.6984 35.7354 25.5288 36.0374 25.2268C36.3393 24.9248 36.509 24.5153 36.509 24.0882C36.509 23.6612 36.3393 23.2516 36.0374 22.9496C35.7354 22.6477 35.3258 22.478 34.8988 22.478C34.4717 22.478 34.0622 22.6477 33.7602 22.9496C33.4582 23.2516 33.2886 23.6612 33.2886 24.0882Z" fill="#FFBE3D"/>
<path d="M31.1394 27.8464C30.2101 28.5434 29.0798 28.9202 27.9182 28.9202C26.7566 28.9202 25.6263 28.5434 24.697 27.8464" stroke="#45413C" stroke-linecap="round" stroke-linejoin="round"/>
</svg>
