<svg width="673" height="467" viewBox="0 0 673 467" fill="none" xmlns="http://www.w3.org/2000/svg">
<path d="M347.084 466H382.372" stroke="#ADC4D9" stroke-miterlimit="10" stroke-linecap="round"/>
<path d="M326.496 466H335.318" stroke="#ADC4D9" stroke-miterlimit="10" stroke-linecap="round"/>
<path d="M311.791 466H314.73" stroke="#ADC4D9" stroke-miterlimit="10" stroke-linecap="round"/>
<path opacity="0.15" d="M316.723 448.741C357.441 448.741 390.446 444.934 390.446 440.234C390.446 435.534 357.441 431.728 316.723 431.728C276.005 431.728 243 435.534 243 440.234C243 444.934 276.005 448.741 316.723 448.741Z" fill="#45413C"/>
<path d="M279.861 392.031V422.664C282.445 421.166 285.38 420.38 288.367 420.385H291.203C294.1 420.385 296.949 421.124 299.48 422.533C302.012 423.943 304.141 425.975 305.666 428.438L306.82 392.031H279.861Z" fill="#FFCEBF"/>
<path d="M326.624 392.031L327.778 428.438C329.303 425.975 331.432 423.942 333.964 422.533C336.495 421.123 339.344 420.384 342.242 420.385H345.077C348.064 420.38 350.999 421.167 353.584 422.664V392.031H326.624Z" fill="#FFCEBF"/>
<path d="M279.861 403.373H306.46L306.82 392.031H279.861V403.373Z" fill="#FFB59E"/>
<path d="M326.984 403.373H353.584V392.031H326.624L326.984 403.373Z" fill="#FFB59E"/>
<path d="M279.861 392.031V422.664C282.445 421.166 285.38 420.38 288.367 420.385H291.203C294.1 420.385 296.949 421.124 299.48 422.533C302.012 423.943 304.141 425.975 305.666 428.438L306.82 392.031H279.861Z" stroke="#45413C" stroke-linecap="round" stroke-linejoin="round"/>
<path d="M326.624 392.031L327.778 428.438C329.303 425.975 331.432 423.942 333.964 422.533C336.495 421.123 339.344 420.384 342.242 420.385H345.077C348.064 420.38 350.999 421.167 353.584 422.664V392.031H326.624Z" stroke="#45413C" stroke-linecap="round" stroke-linejoin="round"/>
<path d="M305.306 392.03C305.684 392.03 306.057 391.954 306.405 391.807C306.753 391.661 307.068 391.446 307.332 391.176C307.597 390.906 307.804 390.586 307.943 390.235C308.082 389.884 308.149 389.508 308.141 389.131L307.599 366.822C307.708 364.481 308.715 362.272 310.41 360.653C312.105 359.035 314.359 358.132 316.702 358.132C319.046 358.132 321.299 359.035 322.994 360.653C324.69 362.272 325.696 364.481 325.805 366.822L325.273 389.126C325.262 389.504 325.328 389.881 325.466 390.234C325.604 390.586 325.811 390.908 326.075 391.179C326.34 391.45 326.656 391.665 327.005 391.811C327.355 391.957 327.73 392.032 328.108 392.03H353.46C353.843 392.03 354.221 391.952 354.573 391.802C354.925 391.652 355.242 391.432 355.507 391.155C355.771 390.879 355.977 390.552 356.112 390.194C356.246 389.835 356.307 389.454 356.291 389.072L353.603 332.495H279.86L277.163 389.072C277.146 389.454 277.206 389.836 277.341 390.194C277.475 390.553 277.681 390.88 277.945 391.157C278.21 391.433 278.528 391.653 278.88 391.803C279.232 391.954 279.611 392.031 279.994 392.03H305.306Z" fill="#38A1FF"/>
<path d="M354.525 352.333L353.583 332.485H279.86L278.914 352.333H354.525Z" fill="#0087FF"/>
<path d="M305.306 392.03C305.684 392.03 306.057 391.954 306.405 391.807C306.753 391.661 307.068 391.446 307.332 391.176C307.597 390.906 307.804 390.586 307.943 390.235C308.082 389.884 308.149 389.508 308.141 389.131L307.599 366.822C307.708 364.481 308.715 362.272 310.41 360.653C312.105 359.035 314.359 358.132 316.702 358.132C319.046 358.132 321.299 359.035 322.994 360.653C324.69 362.272 325.696 364.481 325.805 366.822L325.273 389.126C325.262 389.504 325.328 389.881 325.466 390.234C325.604 390.586 325.811 390.908 326.075 391.179C326.34 391.45 326.656 391.665 327.005 391.811C327.355 391.957 327.73 392.032 328.108 392.03H353.46C353.843 392.03 354.221 391.952 354.573 391.802C354.925 391.652 355.242 391.432 355.507 391.155C355.771 390.879 355.977 390.552 356.112 390.194C356.246 389.835 356.307 389.454 356.291 389.072L353.603 332.495H279.86L277.163 389.072C277.146 389.454 277.206 389.836 277.341 390.194C277.475 390.553 277.681 390.88 277.945 391.157C278.21 391.433 278.528 391.653 278.88 391.803C279.232 391.954 279.611 392.031 279.994 392.03H305.306Z" stroke="#45413C" stroke-linecap="round" stroke-linejoin="round"/>
<path d="M353.584 348.083C353.642 350.676 354.713 353.144 356.568 354.958C358.423 356.772 360.914 357.788 363.508 357.788C366.103 357.788 368.594 356.772 370.449 354.958C372.304 353.144 373.375 350.676 373.433 348.083V289.952H353.584V348.083Z" fill="#FFCEBF" stroke="#45413C" stroke-linecap="round" stroke-linejoin="round"/>
<path d="M354.885 437.398C355.857 437.407 356.815 437.165 357.667 436.695C358.518 436.226 359.234 435.545 359.745 434.718C360.257 433.891 360.547 432.947 360.587 431.975C360.627 431.004 360.416 430.039 359.974 429.173C358.504 426.509 356.347 424.289 353.726 422.743C351.106 421.197 348.119 420.383 345.077 420.385H342.241C339.196 420.38 336.205 421.193 333.581 422.739C330.957 424.285 328.796 426.507 327.324 429.173C326.88 430.04 326.668 431.007 326.708 431.981C326.749 432.955 327.04 433.901 327.554 434.729C328.068 435.557 328.788 436.237 329.643 436.705C330.497 437.173 331.459 437.411 332.433 437.398H354.885Z" fill="#87898C" stroke="#45413C" stroke-linecap="round" stroke-linejoin="round"/>
<path d="M301.011 437.399C301.985 437.411 302.946 437.171 303.8 436.703C304.654 436.235 305.372 435.555 305.886 434.727C306.4 433.9 306.692 432.954 306.733 431.981C306.774 431.008 306.563 430.041 306.12 429.173C304.649 426.51 302.492 424.291 299.872 422.745C297.251 421.2 294.265 420.385 291.223 420.386H288.368C285.326 420.385 282.339 421.2 279.719 422.745C277.099 424.291 274.941 426.51 273.47 429.173C273.025 430.039 272.812 431.005 272.851 431.977C272.89 432.95 273.179 433.896 273.691 434.724C274.203 435.551 274.921 436.232 275.773 436.701C276.626 437.17 277.586 437.41 278.559 437.399H301.011Z" fill="#87898C" stroke="#45413C" stroke-linecap="round" stroke-linejoin="round"/>
<path d="M353.583 289.952V340.991H279.86V289.952H260.012V284.281C260.012 269.241 265.987 254.816 276.622 244.181C287.257 233.546 301.682 227.571 316.722 227.571C331.762 227.571 346.187 233.546 356.822 244.181C367.457 254.816 373.432 269.241 373.432 284.281V289.952H353.583Z" fill="#F8F8F8"/>
<path d="M316.727 227.571C301.686 227.571 287.262 233.546 276.627 244.181C265.991 254.816 260.017 269.241 260.017 284.281V289.952H261.156C263.764 277.138 270.72 265.618 280.847 257.345C290.974 249.071 303.649 244.552 316.727 244.552C329.804 244.552 342.479 249.071 352.606 257.345C362.733 265.618 369.689 277.138 372.297 289.952H373.437V284.281C373.437 269.241 367.462 254.816 356.827 244.181C346.191 233.546 331.767 227.571 316.727 227.571Z" fill="white"/>
<path d="M353.579 312.636H279.856" stroke="#87898C" stroke-linecap="round" stroke-linejoin="round"/>
<path d="M279.856 329.649H353.579" stroke="#87898C" stroke-linecap="round" stroke-linejoin="round"/>
<path d="M373.142 278.611H260.294" stroke="#87898C" stroke-linecap="round" stroke-linejoin="round"/>
<path d="M279.856 295.624H353.579" stroke="#87898C" stroke-linecap="round" stroke-linejoin="round"/>
<path d="M264.756 261.597H368.678" stroke="#87898C" stroke-linecap="round" stroke-linejoin="round"/>
<path d="M357.189 244.584H326.773" stroke="#87898C" stroke-linecap="round" stroke-linejoin="round"/>
<path d="M306.663 244.584H276.252" stroke="#87898C" stroke-linecap="round" stroke-linejoin="round"/>
<path d="M353.583 289.952V340.991H279.86V289.952H260.012V284.281C260.012 269.241 265.987 254.816 276.622 244.181C287.257 233.546 301.682 227.571 316.722 227.571C331.762 227.571 346.187 233.546 356.822 244.181C367.457 254.816 373.432 269.241 373.432 284.281V289.952H353.583Z" stroke="#45413C" stroke-linecap="round" stroke-linejoin="round"/>
<path d="M332.054 229.732C331.021 229.438 330.112 228.816 329.465 227.959C328.818 227.102 328.468 226.057 328.469 224.983V212.487H304.986V224.993C304.986 226.064 304.636 227.106 303.99 227.962C303.344 228.817 302.437 229.438 301.406 229.732L299.725 230.225C299.725 230.225 299.892 247.287 316.738 247.4C333.583 247.287 333.751 230.225 333.751 230.225L332.054 229.732Z" fill="#FFCEBF" stroke="#45413C" stroke-linecap="round" stroke-linejoin="round"/>
<path d="M279.861 272.939V289.952" stroke="#45413C" stroke-linecap="round" stroke-linejoin="round"/>
<path d="M353.584 272.939V289.952" stroke="#45413C" stroke-linecap="round" stroke-linejoin="round"/>
<path d="M356.42 188.368C356.405 186.754 355.833 185.195 354.799 183.955C353.765 182.715 352.334 181.872 350.749 181.568V177.026C350.749 168.002 347.164 159.347 340.783 152.966C334.402 146.585 325.747 143 316.723 143C307.699 143 299.044 146.585 292.663 152.966C286.282 159.347 282.697 168.002 282.697 177.026V181.568C281.041 181.875 279.553 182.773 278.51 184.095C277.467 185.417 276.941 187.074 277.028 188.755C277.116 190.437 277.811 192.03 278.986 193.237C280.16 194.444 281.733 195.183 283.412 195.316C285.007 202.971 289.189 209.844 295.256 214.777C301.323 219.71 308.903 222.403 316.723 222.403C324.542 222.403 332.123 219.71 338.19 214.777C344.257 209.844 348.439 202.971 350.034 195.316C351.771 195.158 353.387 194.359 354.568 193.075C355.748 191.79 356.409 190.112 356.42 188.368Z" fill="#FFCEBF" stroke="#45413C" stroke-linecap="round" stroke-linejoin="round"/>
<path d="M308.216 181.281C308.216 182.41 307.767 183.492 306.969 184.291C306.171 185.089 305.088 185.537 303.96 185.537C302.831 185.537 301.749 185.089 300.951 184.291C300.152 183.492 299.704 182.41 299.704 181.281C299.704 180.153 300.152 179.07 300.951 178.272C301.749 177.474 302.831 177.026 303.96 177.026C305.088 177.026 306.171 177.474 306.969 178.272C307.767 179.07 308.216 180.153 308.216 181.281Z" fill="#45413C"/>
<path d="M325.228 181.281C325.228 182.41 325.677 183.492 326.475 184.291C327.273 185.089 328.355 185.537 329.484 185.537C330.613 185.537 331.695 185.089 332.493 184.291C333.291 183.492 333.74 182.41 333.74 181.281C333.74 180.153 333.291 179.07 332.493 178.272C331.695 177.474 330.613 177.026 329.484 177.026C328.355 177.026 327.273 177.474 326.475 178.272C325.677 179.07 325.228 180.153 325.228 181.281Z" fill="#45413C"/>
<path d="M283 188.5C283 189.428 282.789 190.318 282.414 190.975C282.039 191.631 281.53 192 281 192C280.47 192 279.961 191.631 279.586 190.975C279.211 190.318 279 189.428 279 188.5C279 187.572 279.211 186.682 279.586 186.025C279.961 185.369 280.47 185 281 185C281.53 185 282.039 185.369 282.414 186.025C282.789 186.682 283 187.572 283 188.5Z" fill="#FFB59E"/>
<path d="M308.215 202.807C310.734 204.486 313.694 205.382 316.722 205.382C319.749 205.382 322.709 204.486 325.228 202.807" stroke="#45413C" stroke-linecap="round" stroke-linejoin="round"/>
<path d="M316.723 143C307.699 143 299.044 146.585 292.663 152.966C286.282 159.347 282.697 168.002 282.697 177.026V180.429C282.697 180.325 282.726 180.236 282.726 180.133C285.203 180.093 287.566 179.084 289.307 177.322C291.049 175.56 292.03 173.186 292.042 170.709C292.182 169.82 292.499 168.968 292.975 168.204C293.45 167.44 294.075 166.779 294.81 166.26C295.546 165.742 296.379 165.377 297.259 165.186C298.138 164.996 299.047 164.984 299.932 165.151C311.012 167.37 322.423 167.37 333.504 165.151C334.388 164.985 335.297 164.997 336.177 165.188C337.056 165.379 337.888 165.744 338.624 166.262C339.36 166.78 339.984 167.441 340.46 168.205C340.936 168.969 341.253 169.82 341.394 170.709C341.404 173.186 342.385 175.561 344.127 177.323C345.869 179.085 348.232 180.094 350.709 180.133C350.709 180.236 350.739 180.325 350.739 180.429V177.026C350.739 168.003 347.155 159.35 340.776 152.969C334.397 146.589 325.745 143.003 316.723 143Z" fill="black" stroke="#45413C" stroke-linecap="round" stroke-linejoin="round"/>
<path d="M251.505 349.498C251.505 347.513 251.922 345.549 252.729 343.735C253.536 341.921 254.714 340.296 256.189 338.967C257.664 337.637 259.401 336.632 261.289 336.017C263.177 335.402 265.173 335.19 267.147 335.395C270.726 335.89 273.998 337.682 276.342 340.431C278.686 343.181 279.938 346.695 279.86 350.307V392.031C279.86 393.535 279.263 394.977 278.199 396.041C277.136 397.104 275.693 397.702 274.189 397.702H268.518C267.014 397.702 265.572 397.104 264.508 396.041C263.445 394.977 262.847 393.535 262.847 392.031V377.853H257.176C255.672 377.853 254.23 377.256 253.166 376.192C252.103 375.129 251.505 373.686 251.505 372.182V349.498Z" fill="#8A97AC" stroke="#45413C" stroke-linecap="round" stroke-linejoin="round"/>
<path d="M262.848 377.853V352.333" stroke="#45413C" stroke-linecap="round" stroke-linejoin="round"/>
<path d="M344.046 234.594L310.513 294.972C303.127 308.266 292.609 319.557 279.87 327.864C276.823 329.886 273.657 331.73 270.397 333.387C269.398 333.887 268.507 334.579 267.775 335.423C267.043 336.268 266.485 337.248 266.132 338.308C265.779 339.368 265.638 340.487 265.718 341.602C265.797 342.716 266.095 343.804 266.595 344.803C267.095 345.802 267.787 346.693 268.631 347.425C269.476 348.157 270.456 348.715 271.516 349.068C272.576 349.422 273.695 349.562 274.81 349.483C275.924 349.403 277.012 349.105 278.011 348.605C282.466 346.356 286.766 343.812 290.882 340.991C305.183 331.28 317.006 318.349 325.401 303.237L357.691 245.112C353.702 240.934 349.102 237.388 344.046 234.594Z" fill="#38A1FF" stroke="#45413C" stroke-linecap="round" stroke-linejoin="round"/>
<path d="M279.856 327.864C276.809 329.886 273.643 331.73 270.383 333.387C268.365 334.399 266.832 336.171 266.12 338.313C265.409 340.455 265.577 342.792 266.589 344.81C267.6 346.828 269.372 348.362 271.515 349.074C273.657 349.785 275.994 349.617 278.012 348.605C282.467 346.356 286.767 343.812 290.883 340.991L279.856 327.864Z" fill="#ADC4D9" stroke="#45413C" stroke-linecap="round" stroke-linejoin="round"/>
<path d="M279.86 301.294C279.86 302.039 280.007 302.777 280.292 303.465C280.577 304.153 280.995 304.778 281.521 305.304C282.048 305.831 282.673 306.249 283.361 306.534C284.049 306.819 284.787 306.965 285.531 306.965H303.96C305.952 306.918 307.912 307.473 309.585 308.556C311.258 309.639 312.566 311.2 313.339 313.038C314.112 314.875 314.313 316.902 313.918 318.855C313.522 320.808 312.547 322.597 311.12 323.988C310.174 324.912 309.054 325.637 307.825 326.123C306.595 326.608 305.281 326.843 303.96 326.814H285.531C278.763 326.814 272.272 324.125 267.486 319.339C262.701 314.554 260.012 308.063 260.012 301.294V289.952H279.86V301.294Z" fill="#FFCEBF" stroke="#45413C" stroke-linecap="round" stroke-linejoin="round"/>
<path d="M672 93.7734C672.003 87.9179 670.565 82.1518 667.812 76.9852C665.058 71.8185 661.075 67.4106 656.214 64.1512C652.904 47.4979 644.285 32.3684 631.651 21.035C619.017 9.70149 603.05 2.77576 586.147 1.29784C569.245 -0.180088 552.319 3.86956 537.913 12.8386C523.506 21.8077 512.396 35.2121 506.25 51.0388C498.615 51.29 491.14 53.2924 484.401 56.8917C477.661 60.491 471.838 65.5911 467.379 71.7987C462.92 78.0062 459.946 85.1556 458.685 92.6954C457.423 100.235 457.909 107.964 460.105 115.287C462.3 122.609 466.146 129.329 471.347 134.928C476.548 140.528 482.964 144.858 490.101 147.583C497.238 150.309 504.905 151.358 512.511 150.65C520.118 149.942 527.46 147.495 533.972 143.499C550.181 155.036 570.171 159.966 589.881 157.287C609.591 154.608 627.542 144.521 640.089 129.075C648.828 128.18 656.926 124.076 662.819 117.557C668.712 111.037 671.983 102.564 672 93.7734Z" stroke="#CFCFCF" stroke-linecap="round" stroke-linejoin="round"/>
<path d="M442.089 136.286C433.667 139.699 423.863 135.248 420.223 126.265C416.583 117.282 420.523 107.261 428.945 103.848C437.367 100.436 447.171 104.887 450.811 113.87C454.451 122.853 450.511 132.874 442.089 136.286Z" fill="white" stroke="#CFCFCF"/>
<path d="M408.601 138.046C403.296 140.195 397.104 137.395 394.802 131.713C392.499 126.031 394.996 119.71 400.3 117.561C405.604 115.412 411.796 118.212 414.099 123.894C416.401 129.576 413.905 135.896 408.601 138.046Z" fill="white" stroke="#CFCFCF"/>
<path d="M389.492 145.036C386.598 146.209 383.198 144.686 381.929 141.556C380.661 138.426 382.042 134.965 384.936 133.793C387.83 132.62 391.23 134.143 392.498 137.273C393.767 140.403 392.386 143.864 389.492 145.036Z" fill="white" stroke="#CFCFCF"/>
<path d="M549.766 69.583C543.646 79.3458 537.333 89.0018 531.188 98.712C530.942 99.1086 530.75 100.715 531.879 100.822C535.577 101.166 550.937 100.909 556.522 100.892C557.912 100.892 558.043 98.7374 556.61 98.7374C549.049 98.7374 540.943 98.4476 533.443 98.808C539.51 89.9815 545.228 80.8906 550.928 71.8069C552.677 75.2477 558.027 88.9583 559.837 91.2256C560.361 91.8794 561.699 91.624 561.541 90.6171C561.227 88.6667 554.293 74.2335 552.921 71.3125C560.334 70.7475 574.873 70.4305 581.893 69.1774C577.316 76.142 573.159 83.3783 569.443 90.8471C568.999 91.854 570.616 92.6744 571.192 91.729C575.589 84.2438 579.995 76.7586 584.411 69.2734C586.886 73.7573 599.081 97.6092 601.563 99.833C602.193 100.398 603.111 99.6302 602.989 98.9511C602.377 95.4632 583.948 64.286 581.019 59.0162C585.045 58.9161 589.064 59.404 592.952 60.4649C596.625 61.7435 595.497 66.441 590.278 66.5823C588.922 66.5823 588.843 68.7554 590.208 68.7264C597.35 68.5327 598.627 62.1944 595.689 59.6428C592.751 57.0911 583.337 56.7652 579.656 57.1183C579.493 57.1577 579.339 57.2291 579.203 57.3285C579.068 57.4278 578.953 57.5533 578.865 57.6975C578.777 57.8418 578.718 58.0022 578.692 58.1694C578.666 58.3366 578.672 58.5074 578.711 58.6721C578.765 58.8948 582.239 65.4432 582.863 66.5732C575.38 67.2868 558.201 68.5852 552.056 69.4418C551.149 67.626 550.151 65.8581 549.067 64.1448C548.55 63.3335 547.16 64.0216 547.553 64.9307C548.234 66.528 548.988 68.0727 549.766 69.583Z" fill="#38A1FF"/>
<path d="M540.058 61.7109C541.847 61.4381 553.102 60.1881 553.937 61.8355H553.894C554.017 62.0833 554.042 62.369 553.961 62.634C553.881 62.8991 553.702 63.1233 553.462 63.2608C553.462 63.2608 541.135 63.5606 540.254 63.5606C540.031 63.5471 539.82 63.455 539.659 63.3008C539.498 63.1466 539.396 62.9402 539.373 62.7183C539.349 62.4965 539.406 62.2735 539.531 62.089C539.657 61.9046 539.843 61.7706 540.058 61.7109Z" fill="#191919"/>
<path d="M571.321 96.5634C570.883 95.5043 570.174 94.579 569.265 93.8806C568.357 93.1822 567.28 92.7353 566.144 92.5848C565.007 92.4344 563.852 92.5856 562.792 93.0234C561.733 93.4611 560.808 94.17 560.109 95.0787C559.411 95.9874 558.964 97.0639 558.814 98.2C558.663 99.3361 558.815 100.492 559.252 101.551C559.69 102.61 560.399 103.535 561.308 104.233C562.217 104.932 563.294 105.378 564.43 105.529C565.564 105.671 566.716 105.515 567.772 105.075C568.827 104.635 569.748 103.927 570.445 103.02C571.142 102.114 571.589 101.041 571.743 99.9085C571.896 98.7758 571.751 97.6226 571.321 96.5634ZM565.297 103.491C564.707 103.532 564.115 103.45 563.558 103.251C563.001 103.052 562.491 102.74 562.06 102.335C561.63 101.93 561.287 101.44 561.055 100.896C560.822 100.353 560.704 99.7668 560.708 99.1755C560.698 98.1177 561.053 97.0887 561.712 96.2615C562.371 95.4342 563.295 94.8592 564.329 94.633C565.362 94.4068 566.442 94.5433 567.387 95.0196C568.331 95.4958 569.083 96.2828 569.516 97.2481C569.834 97.9358 569.969 98.6941 569.909 99.4495C569.848 100.205 569.593 100.932 569.169 101.56C568.744 102.188 568.165 102.695 567.487 103.034C566.808 103.372 566.054 103.53 565.297 103.491Z" fill="#191919"/>
<circle cx="602.5" cy="99.5" r="17.5" stroke="url(#paint0_linear_486_6914)" stroke-width="2"/>
<circle cx="531.5" cy="99.5" r="17.5" stroke="url(#paint1_linear_486_6914)" stroke-width="2"/>
<path d="M31.7732 256.099C28.5913 254.67 25.5471 252.895 22.686 250.799C22.4711 250.682 22.686 250.447 22.899 250.447C25.573 251.741 28.4619 253.272 31.349 254.332C30.0415 251.895 28.1803 249.876 25.9487 248.472C23.7171 247.068 21.192 246.328 18.6217 246.324C18.5191 246.328 18.4184 246.357 18.3273 246.409C18.2361 246.461 18.1568 246.535 18.0952 246.625C18.0337 246.716 17.9914 246.821 17.9716 246.932C17.9518 247.043 17.9549 247.157 17.9808 247.267C18.189 248.911 18.7417 250.481 19.5953 251.85C20.4488 253.219 21.5799 254.351 22.899 255.157C29.2057 257.864 31.6667 256.216 31.7732 256.099Z" fill="#38A1FF"/>
<path d="M51.726 196.163C51.6314 196.168 51.5388 196.201 51.4549 196.26C51.371 196.319 51.2979 196.403 51.241 196.505C51.1841 196.608 51.1448 196.726 51.126 196.851C51.1072 196.977 51.1093 197.107 51.1322 197.231C51.7227 200.612 53.2001 203.588 55.2898 205.606C57.3795 207.623 59.9392 208.545 62.4931 208.199C64.0742 207.93 63.6789 206.996 62.5933 205.925C60.4108 203.972 58.0537 202.401 55.5786 201.252C55.2817 201.117 55.4802 200.582 55.6769 200.582C58.2815 200.859 60.7781 202.109 62.8884 204.194L61.9995 202.589C60.7465 200.553 59.1745 198.92 57.3976 197.809C55.6207 196.697 53.6833 196.135 51.726 196.163Z" fill="#38A1FF"/>
<path d="M22.6544 280.919C25.5195 280.775 28.2264 279.167 30.1905 276.44C32.1546 273.714 33.2183 270.089 33.1519 266.347C32.8653 266.721 32.5787 266.969 32.2938 267.343C30.0043 270.082 28.0014 273.318 25.9036 276.306C25.8647 276.349 25.8147 276.372 25.7636 276.369C25.7125 276.367 25.664 276.339 25.6279 276.292C25.5917 276.245 25.5705 276.181 25.5685 276.115C25.5665 276.048 25.5838 275.983 25.617 275.932C27.3898 271.957 29.6447 268.384 32.2938 265.351C26.5801 266.593 23.7808 272.496 22.1845 279.79C22.1334 279.901 22.1055 280.028 22.1034 280.158C22.1013 280.287 22.1252 280.416 22.1726 280.53C22.2201 280.643 22.2894 280.739 22.3739 280.808C22.4584 280.876 22.5551 280.914 22.6544 280.919Z" fill="#38A1FF"/>
<path d="M13.8144 182.708C12.8373 179.218 11.0594 176.17 8.7047 173.947C6.35004 171.724 3.52404 170.426 0.582891 170.216C0.492773 170.22 0.404439 170.249 0.324421 170.301C0.244404 170.353 0.174746 170.427 0.120598 170.518C0.0664497 170.608 0.0291955 170.713 0.0115869 170.824C-0.00602174 170.935 -0.00353346 171.05 0.0188672 171.159C2.08148 178.695 5.77713 182.512 9.40391 183.651C10.3769 184.012 11.3965 184.132 12.406 184.005C12.1256 183.534 11.8436 182.945 11.5616 182.473C9.95876 179.87 8.09812 177.533 6.02471 175.52C5.93125 175.401 6.02471 175.166 6.11981 175.283C6.87074 175.872 7.71513 176.344 8.46607 177.052C9.90011 178.325 11.1935 179.831 12.3126 181.53C13.8144 183.886 13.8144 182.945 13.8144 182.708Z" fill="#38A1FF"/>
<path d="M100.768 146.23C100.703 146.147 100.626 146.084 100.541 146.045C100.456 146.006 100.366 145.992 100.277 146.004C100.188 146.016 100.102 146.054 100.024 146.114C99.9471 146.175 99.8803 146.258 99.8288 146.356C97.7592 152.299 96.4435 165.071 102.366 168.486C102.366 161.264 100.446 150.856 101.427 152.173C102.777 156.454 103.48 161.053 103.495 165.703C103.495 166.337 103.588 166.969 103.588 167.601C106.409 160.644 104.72 151.806 100.768 146.23Z" fill="#38A1FF"/>
<path d="M41.4748 188.309C41.6864 188.199 41.8962 188.199 42.0011 188.419C39.6841 191.294 36.2077 192.954 34.417 196.162C37.3342 195.792 40.0816 194.523 42.3127 192.515C44.5438 190.508 46.1586 187.851 46.9535 184.881C47.0216 184.461 46.8928 183.872 46.0039 184.108C40.1055 184.881 34.1023 189.086 33.1545 195.499C35.6624 192.782 38.4534 190.37 41.4748 188.309Z" fill="#38A1FF"/>
<path d="M3.97259 249.093C6.00147 247.62 7.72129 245.432 8.96258 242.745C10.2039 240.058 10.9238 236.964 11.0515 233.769C9.53791 235.7 8.1812 237.86 7.00593 240.208C6.54643 241.108 5.99374 241.882 5.62582 242.784C5.53424 242.912 5.35109 242.784 5.44267 242.654C6.80735 238.908 8.57554 235.479 10.6851 232.487C10.502 232.487 7.83495 233.13 4.06416 238.539C2.5009 240.856 0.945673 244.667 1.49354 247.938C1.76506 249.585 1.96589 250.497 3.97259 249.093Z" fill="#38A1FF"/>
<path d="M72.5947 206.028C73.9575 198.433 76.2874 196.151 76.534 195.685C76.5611 195.662 76.5929 195.646 76.6265 195.64C76.6601 195.634 76.6946 195.637 76.7268 195.65C76.7591 195.662 76.7881 195.683 76.8115 195.712C76.8349 195.74 76.8518 195.774 76.8608 195.811C76.6653 196.418 76.5187 197.043 76.4231 197.679C75.3314 201.073 74.5256 204.578 74.0168 208.146V208.27C79.2691 205.155 81.0179 195.811 79.7068 189.829C79.6819 189.699 79.627 189.579 79.5478 189.482C79.4685 189.384 79.3678 189.313 79.256 189.275C79.1442 189.236 79.0255 189.233 78.9122 189.265C78.7989 189.296 78.6951 189.362 78.6116 189.455C73.9078 193.809 70.2973 200.67 72.4953 207.772C72.4223 207.189 72.4561 206.595 72.5947 206.028Z" fill="#38A1FF"/>
<path d="M24.2629 159.092C24.3604 158.965 24.4579 159.092 24.4579 159.217C23.871 160.473 23.3799 161.851 22.7929 163.237C21.7014 165.825 20.847 168.566 20.2467 171.406C20.1491 172.034 19.9524 172.661 19.8548 173.417C21.2163 172.532 22.3906 171.238 23.2772 169.645C26.3703 164.625 27.9057 158.314 27.5877 151.928C27.5873 151.796 27.5595 151.667 27.5071 151.553C27.4547 151.44 27.3797 151.346 27.2897 151.282C27.1998 151.218 27.0981 151.186 26.9953 151.189C26.8925 151.193 26.7922 151.231 26.7048 151.3C23.443 153.142 20.8526 156.513 19.463 160.723C18.2771 164.203 17.2589 170.143 18.5817 173.54V173.676C18.5817 173.542 20.541 163.237 24.2629 159.092Z" fill="#38A1FF"/>
<path d="M14.8869 226.898C12.0632 224.236 9.09054 221.844 5.99309 219.74C5.89012 219.608 5.9931 219.474 6.09788 219.474C7.62987 220.21 8.66866 220.127 15.1959 225.307C14.4077 222.534 13.0139 220.11 11.1807 218.324C9.34754 216.538 7.1523 215.465 4.85675 215.234C3.82158 215.102 -0.72742 215.102 0.0999986 217.619C0.670302 219.439 1.55404 221.071 2.68523 222.392C9.92244 229.283 14.8869 226.898 14.8869 226.898Z" fill="#38A1FF"/>
<path d="M94.6048 217.777C94.6305 217.726 94.6697 217.687 94.7164 217.664C94.7632 217.641 94.8151 217.637 94.8644 217.651C94.9136 217.665 94.9576 217.697 94.9896 217.742C95.0217 217.788 95.0402 217.844 95.0424 217.902C94.6725 222.28 93.8653 226.593 92.6368 230.757C98.3231 226.353 98.9785 217.524 97.2225 210.592C97.196 210.477 97.1474 210.37 97.0803 210.28C97.0133 210.189 96.9295 210.117 96.8352 210.069C96.7408 210.02 96.6382 209.997 96.535 210C96.4317 210.004 96.3304 210.034 96.2385 210.088C91.2076 213.996 87.7071 223.321 91.2076 229.748C91.8056 229.059 92.5432 222.711 94.6048 217.777Z" fill="#38A1FF"/>
<path d="M73.4807 453.022C74.3668 452.694 75.2987 452.601 76.2154 452.751C77.1322 452.901 78.013 453.29 78.8002 453.892C79.9304 452.443 81.4053 451.483 83.0081 451.151C83.3968 450.298 83.9064 449.539 84.5124 448.911C83.4695 443.376 82.7355 437.758 82.3156 432.098C81.4435 431.804 80.6017 431.387 79.8066 430.854C73.9506 426.841 75.0429 415.664 74.7887 406.202C74.7887 402.968 73.7858 398.234 74.5888 395.122C75.6916 391.263 78.9037 397.364 79.8066 398.733C79.505 393.877 76.7962 343.33 76.3 336.739C74.6712 312.276 72.697 278.36 75.7986 255.066C75.7986 252.655 80.7832 247.759 82.2209 245.975C87.9435 239.366 94.1594 233.447 100.785 228.297C100.886 228.173 100.785 228.049 100.685 228.049C99.0788 229.169 97.5744 230.414 95.9684 231.41C88.7326 236.413 81.8913 240.528 77.103 246.476C79.2621 232.385 83.3699 218.864 89.2446 206.51C99.9396 184.771 110.174 181.521 121.358 170.654C122.76 169.286 124.163 167.789 125.566 166.303C125.967 165.807 125.464 164.935 124.963 165.433C117.111 172.801 104.591 178.78 104.591 179.5C108.902 171.746 114.224 159.447 113.924 149.996C113.917 149.861 113.872 149.734 113.797 149.637C113.722 149.539 113.622 149.478 113.514 149.463C113.407 149.448 113.298 149.481 113.208 149.556C113.117 149.631 113.051 149.742 113.021 149.872C107.978 175.62 89.8249 190.464 78.6003 220.586L75.8915 228.432C75.3901 226.313 74.9886 224.197 74.4889 222.207C72.8532 215.743 70.4525 209.616 67.3653 204.028C66.2046 202.01 64.9303 200.096 63.5519 198.301C63.1504 197.803 62.5472 198.425 62.8505 198.923C70.5738 212.259 73.4685 231.617 74.2908 233.659C71.1348 244.403 70.8298 246.791 68.27 256.318C67.2653 260.303 66.2624 264.908 62.3491 261.424C53.8193 253.954 48.2001 241.505 41.8777 231.419C38.1642 225.567 34.3508 219.455 32.3433 212.246C30.0412 203.674 31.0441 197.32 33.3479 187.969C33.4479 187.47 32.7448 186.972 32.5449 187.594C30.1359 194.068 27.7269 201.788 28.4299 209.007C24.0152 202.286 21.5062 194.068 19.0972 186.102C16.2213 177.133 14.2303 167.765 13.1676 158.203C13.0676 157.581 12.3646 157.581 12.3646 158.203C11.9858 183.435 22.7844 206.58 34.6436 227.177C32.7227 226.759 30.7717 226.592 28.8227 226.679C19.811 226.421 10.8967 229.036 2.93186 234.273C2.53036 234.523 2.93186 235.271 3.23342 235.021C12.2646 229.916 25.7123 227.675 35.245 232.032C39.6615 234.025 42.5702 239.628 44.8881 244.357C44.9933 244.574 51 256.906 51.4103 257.058C49.4982 256.539 47.5259 256.454 45.5894 256.808C38.187 257.515 30.2569 258.948 24.1151 264.03C24.0485 264.088 24.0009 264.174 23.9811 264.272C23.9612 264.37 23.9704 264.473 24.0069 264.564C24.0434 264.654 24.1049 264.725 24.1801 264.764C24.2553 264.803 24.3392 264.807 24.4167 264.776C31.6893 262 40.6153 259.131 48.3 260.543C49.7026 260.793 53.4178 261.041 54.1209 262.661C58.1777 270.789 61.1897 279.652 63.0487 288.929C64.7441 298.516 65.0562 315.737 66.159 347.195C66.4606 347.445 72.1798 354.791 73.0827 359.024C74.8676 366.402 69.8286 372.406 67.4722 366.119C67.1706 365.249 66.8708 364.501 66.5693 363.629C66.9515 380.735 67.4687 406.111 66.9708 425.257C66.8708 430.861 65.7663 446.174 65.7663 446.422C68.1665 446.174 72.9828 447.795 73.4807 453.022Z" fill="#38A1FF"/>
<path d="M86.6381 447.402C88.0829 442.391 91.1705 444.31 91.1705 442.844C91.1862 442.639 91.162 442.43 91.1017 442.251C91.0413 442.071 90.9481 441.93 90.8361 441.848C89.7909 441.624 88.7313 441.99 87.8209 442.89C86.9105 443.79 86.2 445.174 85.7991 446.827C85.3738 448.299 85.918 449.892 86.6381 447.402Z" fill="#191919"/>
<path d="M65.1083 443.276C63.4874 442.083 58.1283 441.042 56.7545 442.489C56.5327 442.685 56.6436 442.98 56.9783 443.08C58.4202 443.461 60.4809 442.432 63.8824 443.767C64.328 443.963 66.2175 445.243 66.2175 445.243C66.667 445.046 65.3302 443.472 65.1083 443.276Z" fill="#191919"/>
<path d="M107.129 446.517C107.612 446.765 107.896 446.412 107.678 446.184C107.035 442.91 97.6043 442.153 96.7009 446.741C96.7009 446.963 96.9215 447.074 97.0308 446.852C98.6765 444.623 102.629 444.516 104.933 445.515C106.715 446.239 105.994 446.136 107.129 446.517Z" fill="#191919"/>
<path d="M103.189 456.156C101.606 454.665 97.1424 456.71 98.26 457.243C98.6265 457.588 99.3374 456.846 100.882 456.846C101.615 456.846 102.456 457.44 103.189 457.34C103.297 457.333 103.4 457.29 103.477 457.218C103.554 457.145 103.601 457.049 103.608 456.947C103.534 456.656 103.391 456.386 103.189 456.156Z" fill="#191919"/>
<path d="M61.8739 460.864C63.8256 461.345 65.6162 462.495 67.0245 464.174C67.3341 464.42 67.849 464.174 67.6438 463.685C65.5681 457.375 56.302 458.305 55.2776 461.972C55.175 462.462 55.4846 462.708 55.8969 462.708C57.6018 462.498 58.1869 460.273 61.8739 460.864Z" fill="#191919"/>
<path d="M53.0234 445.355C52.6531 445.377 52.292 445.501 51.9679 445.718C51.6438 445.934 51.3653 446.237 51.1539 446.603C51.0504 446.852 51.1539 447.227 51.3608 447.227C52.6313 447.421 54.4047 446.136 56.8677 448.099C57.0977 448.222 57.3083 448.39 57.4903 448.599C57.54 448.656 57.6038 448.691 57.6719 448.7C57.7401 448.709 57.8088 448.691 57.8676 448.649C57.9265 448.607 57.9722 448.543 57.9978 448.466C58.0234 448.39 58.0275 448.305 58.0094 448.226C57.5528 447.159 56.8184 446.301 55.9182 445.783C55.0179 445.264 54.0013 445.114 53.0234 445.355Z" fill="#191919"/>
<path d="M60.2388 451.663C62.9112 449.267 66.1039 448.303 68.8049 450.677C69.8947 451.958 70.6709 453.578 71.048 455.358C70.0343 455.776 69.1701 456.602 68.6 457.698C68.3969 458.068 68.8049 458.438 69.008 458.191C70.425 457.148 71.9762 456.399 73.5975 455.974C77.4975 455.524 79.7709 458.636 80.6332 459.054C80.6902 459.081 80.7528 459.088 80.813 459.073C80.8732 459.059 80.9286 459.023 80.972 458.97C81.0155 458.918 81.0453 458.851 81.0575 458.778C81.0698 458.705 81.0641 458.63 81.0412 458.561C80.9298 458.066 80.7369 457.604 80.4743 457.202C80.2116 456.799 79.8845 456.465 79.5125 456.219C79.8948 455.774 80.3032 455.362 80.7347 454.988C81.4734 454.485 82.2932 454.181 83.1382 454.096C83.9831 454.011 84.8333 454.147 85.6307 454.495C86.0387 454.618 88.5882 456.217 88.2818 454.74C88.0769 453.757 84.9162 451.908 84.2018 452.524C86.049 450.556 88.3063 449.236 90.7297 448.705C93.4824 448.213 95.419 449.814 97.5605 451.785C97.6097 451.841 97.6725 451.876 97.7395 451.884C97.8065 451.893 97.874 451.875 97.9317 451.833C97.9895 451.791 98.0345 451.728 98.0597 451.652C98.085 451.577 98.0893 451.494 98.0719 451.415C97.3592 448.09 93.6855 446.857 91.2393 446.981C89.6405 447.141 88.0877 447.707 86.682 448.641C85.2763 449.574 84.0493 450.856 83.0812 452.401C83.0812 452.524 82.9796 452.524 82.9796 452.646C82.1211 452.679 81.2823 452.966 80.5369 453.482C79.7914 453.997 79.162 454.726 78.7037 455.603H78.6003C77.5807 454.929 76.457 454.516 75.2993 454.389C74.1416 454.262 72.9746 454.424 71.8711 454.865C72.3806 450.8 68.404 447.597 65.4465 447.597C63.4686 447.654 61.5503 448.426 59.9395 449.814C58.2786 451.129 56.8297 452.799 55.6635 454.74C52.2624 451.598 47.598 453.057 46.9958 455.481C46.8943 455.726 47.0992 455.974 47.3023 455.974C48.0976 455.744 48.8805 455.457 49.6469 455.113C52.4975 454.127 54.2364 455.974 56.378 457.823C57.3971 458.683 56.5828 455.976 56.378 455.728C57.7908 454.495 58.8954 452.866 60.2388 451.663Z" fill="#191919"/>
<path d="M118.283 456.689C118.184 457.527 119.16 457.527 119.356 456.928C121.013 451.532 122.377 446.256 125.399 441.577C126.375 440.137 127.443 438.7 128.421 437.138C128.617 436.899 128.227 436.42 128.032 436.661C127.337 437.185 126.621 437.666 125.886 438.1C121.112 441.455 117.582 446.959 116.041 453.452C116.041 453.571 116.235 453.691 116.235 453.571C118.288 447.82 121.595 442.88 125.789 439.299C121.806 443.928 119.169 450.037 118.283 456.689Z" fill="#191919"/>
<path d="M133.319 445.256C131.832 445.562 130.396 446.191 129.074 447.116C124.979 450.431 121.858 455.4 120.201 461.243C120.105 461.616 120.49 461.739 120.683 461.492C123.305 456.884 126.063 449.29 131.679 446.984C130.933 447.307 127.938 452.59 126.567 456.9C125.57 459.512 124.794 462.255 124.253 465.081C124.155 465.825 124.927 466.445 125.217 465.576C126.334 462.911 127.943 452.201 133.801 446.241C134.283 445.875 133.799 445.137 133.319 445.256Z" fill="#191919"/>
<path d="M101.486 437.372C101.486 437.74 101.92 438.108 102.093 437.618C102.589 435.573 102.995 433.487 103.308 431.372C103.782 429.251 104.333 427.166 104.959 425.125C105.132 424.635 104.523 424.269 104.264 424.635C101.393 428.555 98.5256 433.822 98.0897 439.578C98.0047 440.19 98.6973 440.19 98.7853 439.7C99.6403 435.425 101.085 431.43 103.038 427.943C102.494 430.293 101.22 434.406 101.486 437.372Z" fill="#191919"/>
<path d="M39.7405 457.174C39.6869 451.456 37.8365 442.527 38.2617 443.48C39.0011 445.144 41.8588 452.886 42.2822 453.72C42.3875 454.076 42.9162 453.839 42.8108 453.481C41.8866 447.008 37.6794 438.817 34.134 433.358C34.0512 433.247 33.9366 433.172 33.81 433.146C33.6833 433.119 33.5525 433.143 33.4399 433.214C33.3272 433.284 33.2399 433.396 33.1929 433.531C33.1458 433.666 33.142 433.816 33.182 433.953C36.4643 441.218 38.5778 449.079 39.4244 457.174C39.3172 457.411 39.7423 457.411 39.7405 457.174Z" fill="#191919"/>
<path d="M36.7428 460.792C36.9457 461.037 37.4548 460.792 37.2519 460.421C36.674 458.837 35.9925 457.311 35.2138 455.858C33.4527 451.916 31.1434 448.371 28.3874 445.378C27.8783 444.884 27.3692 445.871 27.7769 446.364C30.7596 451.139 33.003 456.529 34.3985 462.272C34.5018 462.765 35.1105 462.517 35.0108 462.024C34.2889 458.646 33.3363 455.347 32.1628 452.159C33.5198 455.164 35.0503 458.048 36.7428 460.792Z" fill="#191919"/>
<path d="M142.155 330.839C140.136 329.933 138.205 328.807 136.39 327.477C136.254 327.403 136.39 327.254 136.526 327.254C138.222 328.075 140.054 329.046 141.886 329.718C141.056 328.173 139.876 326.892 138.46 326.001C137.045 325.11 135.443 324.641 133.812 324.639C133.747 324.641 133.683 324.659 133.626 324.692C133.568 324.725 133.517 324.772 133.478 324.83C133.439 324.887 133.413 324.954 133.4 325.024C133.387 325.094 133.389 325.167 133.406 325.236C133.538 326.28 133.889 327.275 134.43 328.144C134.971 329.012 135.689 329.731 136.526 330.241C140.526 331.959 142.087 330.914 142.155 330.839Z" fill="#38A1FF"/>
<path d="M154.811 292.82C154.751 292.823 154.693 292.844 154.639 292.881C154.586 292.919 154.54 292.972 154.504 293.037C154.468 293.102 154.443 293.177 154.431 293.257C154.419 293.336 154.42 293.418 154.435 293.497C154.809 295.642 155.746 297.53 157.072 298.81C158.397 300.089 160.021 300.674 161.641 300.455C162.644 300.284 162.393 299.691 161.705 299.013C160.32 297.773 158.825 296.777 157.255 296.048C157.067 295.962 157.193 295.623 157.317 295.623C158.97 295.798 160.553 296.592 161.892 297.914L161.328 296.896C160.533 295.605 159.536 294.569 158.409 293.864C157.282 293.159 156.053 292.802 154.811 292.82Z" fill="#38A1FF"/>
<path d="M136.37 346.583C138.188 346.492 139.905 345.472 141.151 343.742C142.397 342.013 143.071 339.713 143.029 337.34C142.847 337.577 142.666 337.734 142.485 337.972C141.033 339.709 139.762 341.761 138.431 343.657C138.407 343.684 138.375 343.699 138.343 343.697C138.31 343.695 138.279 343.678 138.256 343.648C138.234 343.618 138.22 343.578 138.219 343.536C138.218 343.493 138.229 343.452 138.25 343.42C139.374 340.898 140.804 338.632 142.485 336.708C138.861 337.496 137.085 341.24 136.072 345.867C136.04 345.938 136.022 346.018 136.021 346.1C136.02 346.182 136.035 346.264 136.065 346.336C136.095 346.408 136.139 346.469 136.192 346.512C136.246 346.556 136.307 346.58 136.37 346.583Z" fill="#38A1FF"/>
<path d="M130.763 284.285C130.143 282.071 129.015 280.137 127.522 278.727C126.028 277.317 124.235 276.494 122.37 276.361C122.313 276.363 122.257 276.382 122.206 276.415C122.155 276.448 122.111 276.495 122.076 276.552C122.042 276.61 122.019 276.676 122.007 276.747C121.996 276.817 121.998 276.89 122.012 276.959C123.32 281.739 125.665 284.161 127.965 284.883C128.582 285.112 129.229 285.188 129.869 285.108C129.692 284.809 129.513 284.435 129.334 284.136C128.317 282.484 127.137 281.002 125.822 279.725C125.762 279.65 125.822 279.501 125.882 279.575C126.358 279.949 126.894 280.248 127.37 280.697C128.28 281.505 129.1 282.46 129.81 283.538C130.763 285.032 130.763 284.435 130.763 284.285Z" fill="#38A1FF"/>
<path d="M185.92 261.146C185.879 261.093 185.83 261.053 185.776 261.029C185.722 261.004 185.665 260.995 185.609 261.003C185.552 261.01 185.497 261.034 185.448 261.073C185.399 261.111 185.357 261.163 185.324 261.226C184.011 264.996 183.177 273.097 186.934 275.264C186.934 270.683 185.716 264.081 186.338 264.916C187.194 267.631 187.64 270.549 187.65 273.498C187.65 273.9 187.709 274.301 187.709 274.702C189.498 270.289 188.427 264.683 185.92 261.146Z" fill="#38A1FF"/>
<path d="M148.309 287.838C148.443 287.768 148.576 287.768 148.642 287.908C147.173 289.731 144.967 290.784 143.832 292.819C145.682 292.584 147.425 291.779 148.84 290.506C150.255 289.232 151.28 287.547 151.784 285.663C151.827 285.397 151.745 285.023 151.181 285.173C147.44 285.663 143.632 288.33 143.031 292.399C144.622 290.675 146.392 289.145 148.309 287.838Z" fill="#38A1FF"/>
<path d="M124.52 326.395C125.807 325.46 126.898 324.072 127.685 322.368C128.473 320.663 128.929 318.701 129.01 316.674C128.05 317.899 127.19 319.269 126.444 320.759C126.153 321.33 125.802 321.821 125.569 322.393C125.511 322.474 125.394 322.393 125.452 322.31C126.318 319.934 127.44 317.759 128.778 315.861C128.662 315.861 126.97 316.269 124.578 319.7C123.586 321.17 122.6 323.587 122.947 325.662C123.12 326.707 123.247 327.285 124.52 326.395Z" fill="#38A1FF"/>
<path d="M168.049 299.077C168.913 294.26 170.391 292.812 170.548 292.517C170.565 292.502 170.585 292.492 170.606 292.488C170.628 292.484 170.65 292.486 170.67 292.494C170.69 292.502 170.709 292.516 170.724 292.533C170.739 292.551 170.749 292.573 170.755 292.597C170.631 292.981 170.538 293.378 170.477 293.782C169.785 295.935 169.274 298.158 168.951 300.421V300.5C172.283 298.524 173.392 292.597 172.56 288.802C172.545 288.72 172.51 288.644 172.459 288.582C172.409 288.52 172.345 288.475 172.274 288.45C172.203 288.426 172.128 288.424 172.056 288.444C171.984 288.464 171.919 288.506 171.866 288.565C168.882 291.326 166.592 295.679 167.986 300.184C167.94 299.814 167.961 299.437 168.049 299.077Z" fill="#38A1FF"/>
<path d="M137.391 269.305C137.453 269.224 137.514 269.305 137.514 269.384C137.142 270.181 136.831 271.055 136.458 271.934C135.766 273.575 135.224 275.314 134.843 277.116C134.781 277.514 134.656 277.912 134.595 278.391C135.458 277.83 136.203 277.009 136.766 275.999C138.728 272.815 139.702 268.811 139.5 264.761C139.5 264.677 139.482 264.595 139.449 264.523C139.415 264.451 139.368 264.391 139.311 264.351C139.254 264.31 139.189 264.29 139.124 264.292C139.059 264.294 138.995 264.318 138.94 264.362C136.871 265.531 135.227 267.669 134.346 270.339C133.594 272.547 132.948 276.315 133.787 278.469V278.556C133.787 278.471 135.03 271.934 137.391 269.305Z" fill="#38A1FF"/>
<path d="M131.443 312.316C129.652 310.627 127.766 309.11 125.802 307.776C125.736 307.692 125.802 307.607 125.868 307.607C126.84 308.074 127.499 308.021 131.639 311.307C131.139 309.548 130.255 308.01 129.092 306.877C127.929 305.744 126.537 305.064 125.081 304.917C124.424 304.833 121.539 304.833 122.063 306.43C122.425 307.585 122.986 308.62 123.703 309.457C128.294 313.829 131.443 312.316 131.443 312.316Z" fill="#38A1FF"/>
<path d="M182.011 306.53C182.027 306.498 182.052 306.473 182.081 306.458C182.111 306.444 182.144 306.441 182.175 306.45C182.206 306.459 182.234 306.479 182.255 306.508C182.275 306.537 182.287 306.572 182.288 306.61C182.054 309.386 181.541 312.122 180.762 314.764C184.369 311.97 184.785 306.369 183.671 301.972C183.654 301.9 183.623 301.832 183.581 301.774C183.538 301.717 183.485 301.671 183.425 301.641C183.365 301.61 183.3 301.595 183.235 301.597C183.169 301.599 183.105 301.618 183.047 301.653C179.856 304.132 177.635 310.047 179.856 314.124C180.235 313.687 180.703 309.66 182.011 306.53Z" fill="#38A1FF"/>
<path d="M168.611 455.753C169.173 455.544 169.764 455.486 170.346 455.581C170.927 455.676 171.486 455.923 171.985 456.304C172.702 455.386 173.638 454.776 174.654 454.566C174.901 454.025 175.224 453.543 175.609 453.145C174.947 449.634 174.482 446.071 174.215 442.48C173.662 442.294 173.128 442.029 172.624 441.691C168.909 439.145 169.602 432.056 169.441 426.054C169.441 424.002 168.805 420.999 169.314 419.025C170.013 416.577 172.051 420.447 172.624 421.315C172.432 418.236 170.714 386.172 170.399 381.991C169.366 366.474 168.114 344.96 170.081 330.183C170.081 328.654 173.243 325.548 174.155 324.417C177.785 320.225 181.728 316.47 185.931 313.203C185.995 313.125 185.931 313.046 185.867 313.046C184.849 313.757 183.894 314.546 182.876 315.178C178.286 318.351 173.946 320.962 170.909 324.734C172.278 315.796 174.884 307.219 178.61 299.383C185.395 285.593 191.886 283.532 198.981 276.638C199.871 275.771 200.76 274.821 201.65 273.879C201.905 273.564 201.585 273.011 201.267 273.327C196.287 278 188.345 281.793 188.345 282.25C191.08 277.331 194.455 269.53 194.265 263.534C194.261 263.449 194.232 263.369 194.185 263.307C194.137 263.245 194.074 263.206 194.005 263.197C193.937 263.187 193.868 263.208 193.811 263.255C193.754 263.303 193.712 263.374 193.692 263.456C190.494 279.789 178.979 289.204 171.859 308.312L170.14 313.289C169.822 311.945 169.567 310.602 169.25 309.34C168.213 305.24 166.69 301.354 164.732 297.809C163.996 296.529 163.187 295.315 162.313 294.176C162.058 293.86 161.676 294.254 161.868 294.57C166.767 303.03 168.603 315.309 169.125 316.605C167.123 323.419 166.929 324.934 165.306 330.978C164.668 333.506 164.032 336.427 161.55 334.216C156.139 329.478 152.575 321.582 148.564 315.183C146.209 311.472 143.79 307.594 142.516 303.022C141.056 297.584 141.692 293.554 143.154 287.622C143.217 287.306 142.771 286.99 142.644 287.384C141.116 291.491 139.588 296.388 140.034 300.967C137.234 296.704 135.642 291.491 134.114 286.438C132.29 280.748 131.027 274.806 130.353 268.74C130.289 268.346 129.843 268.346 129.843 268.74C129.603 284.746 136.453 299.427 143.976 312.493C142.757 312.228 141.519 312.122 140.283 312.177C134.567 312.013 128.912 313.672 123.86 316.994C123.605 317.152 123.86 317.627 124.051 317.468C129.78 314.23 138.31 312.809 144.357 315.572C147.159 316.836 149.004 320.391 150.474 323.39C150.541 323.528 154.351 331.351 154.611 331.447C153.398 331.118 152.147 331.064 150.919 331.288C146.223 331.737 141.193 332.646 137.297 335.869C137.255 335.906 137.225 335.961 137.212 336.023C137.199 336.085 137.205 336.151 137.228 336.208C137.252 336.266 137.29 336.311 137.338 336.335C137.386 336.36 137.439 336.363 137.488 336.343C142.102 334.582 147.764 332.762 152.638 333.658C153.528 333.816 155.885 333.974 156.33 335.002C158.904 340.157 160.814 345.779 161.994 351.664C163.069 357.745 163.267 368.669 163.967 388.624C164.158 388.782 167.786 393.442 168.359 396.127C169.491 400.807 166.294 404.616 164.8 400.628C164.608 400.076 164.418 399.601 164.227 399.048C164.469 409.899 164.797 425.996 164.482 438.141C164.418 441.695 163.717 451.409 163.717 451.566C165.24 451.409 168.295 452.437 168.611 455.753Z" fill="#38A1FF"/>
<path d="M176.957 452.188C177.873 449.009 179.832 450.227 179.832 449.296C179.842 449.166 179.827 449.034 179.788 448.92C179.75 448.806 179.691 448.717 179.62 448.665C178.957 448.523 178.285 448.755 177.707 449.326C177.13 449.897 176.679 450.774 176.425 451.823C176.155 452.757 176.5 453.767 176.957 452.188Z" fill="#191919"/>
<path d="M163.3 449.57C162.272 448.814 158.872 448.153 158.001 449.071C157.86 449.195 157.931 449.383 158.143 449.446C159.057 449.688 160.365 449.035 162.522 449.882C162.805 450.006 164.004 450.818 164.004 450.818C164.289 450.693 163.441 449.695 163.3 449.57Z" fill="#191919"/>
<path d="M189.955 451.626C190.262 451.783 190.442 451.56 190.303 451.415C189.895 449.338 183.913 448.858 183.34 451.768C183.34 451.909 183.48 451.98 183.549 451.839C184.593 450.425 187.101 450.357 188.562 450.991C189.692 451.45 189.235 451.384 189.955 451.626Z" fill="#191919"/>
<path d="M187.456 457.741C186.451 456.795 183.62 458.092 184.329 458.431C184.562 458.649 185.013 458.179 185.992 458.179C186.457 458.179 186.991 458.555 187.456 458.492C187.525 458.488 187.59 458.46 187.639 458.414C187.687 458.368 187.717 458.307 187.722 458.242C187.675 458.058 187.584 457.887 187.456 457.741Z" fill="#191919"/>
<path d="M161.248 460.727C162.486 461.032 163.622 461.762 164.515 462.826C164.712 462.983 165.038 462.826 164.908 462.517C163.592 458.514 157.714 459.104 157.064 461.43C156.999 461.741 157.195 461.897 157.457 461.897C158.538 461.764 158.91 460.352 161.248 460.727Z" fill="#191919"/>
<path d="M155.634 450.89C155.399 450.904 155.17 450.982 154.965 451.12C154.759 451.257 154.582 451.449 154.448 451.681C154.383 451.839 154.448 452.077 154.58 452.077C155.386 452.2 156.51 451.385 158.073 452.63C158.219 452.708 158.352 452.815 158.468 452.947C158.499 452.983 158.54 453.006 158.583 453.012C158.626 453.017 158.67 453.006 158.707 452.979C158.744 452.952 158.773 452.912 158.79 452.863C158.806 452.815 158.808 452.761 158.797 452.711C158.507 452.034 158.042 451.49 157.47 451.161C156.899 450.832 156.255 450.737 155.634 450.89Z" fill="#191919"/>
<path d="M160.211 454.891C161.906 453.371 163.932 452.759 165.645 454.265C166.336 455.078 166.828 456.106 167.068 457.235C166.425 457.5 165.877 458.024 165.515 458.719C165.386 458.954 165.645 459.188 165.774 459.031C166.673 458.37 167.656 457.895 168.685 457.625C171.159 457.34 172.601 459.314 173.148 459.579C173.184 459.596 173.224 459.601 173.262 459.591C173.3 459.582 173.335 459.559 173.363 459.526C173.39 459.493 173.409 459.45 173.417 459.404C173.425 459.358 173.421 459.31 173.407 459.266C173.336 458.953 173.214 458.659 173.047 458.404C172.88 458.149 172.673 457.937 172.437 457.781C172.679 457.498 172.939 457.237 173.212 457C173.681 456.681 174.201 456.488 174.737 456.434C175.273 456.38 175.812 456.466 176.318 456.687C176.577 456.765 178.194 457.779 178 456.843C177.87 456.219 175.865 455.046 175.412 455.437C176.583 454.189 178.015 453.351 179.552 453.015C181.298 452.702 182.527 453.718 183.885 454.968C183.917 455.004 183.956 455.026 183.999 455.031C184.041 455.037 184.084 455.025 184.121 454.999C184.157 454.972 184.186 454.932 184.202 454.884C184.218 454.836 184.221 454.783 184.21 454.734C183.758 452.624 181.427 451.842 179.876 451.921C178.861 452.023 177.876 452.381 176.985 452.974C176.093 453.566 175.315 454.379 174.701 455.359C174.701 455.437 174.636 455.437 174.636 455.515C174.092 455.536 173.56 455.718 173.087 456.045C172.614 456.372 172.215 456.834 171.924 457.39H171.858C171.212 456.963 170.499 456.7 169.764 456.62C169.03 456.539 168.29 456.642 167.59 456.922C167.913 454.343 165.391 452.312 163.515 452.312C162.26 452.348 161.043 452.838 160.021 453.718C158.968 454.552 158.049 455.611 157.309 456.843C155.151 454.85 152.193 455.775 151.811 457.313C151.746 457.468 151.876 457.625 152.005 457.625C152.51 457.48 153.006 457.297 153.492 457.079C155.301 456.454 156.404 457.625 157.762 458.798C158.409 459.344 157.892 457.627 157.762 457.47C158.658 456.687 159.359 455.654 160.211 454.891Z" fill="#191919"/>
<path d="M197.03 458.079C196.967 458.611 197.586 458.611 197.711 458.231C198.762 454.808 199.627 451.461 201.544 448.493C202.163 447.58 202.841 446.668 203.461 445.677C203.585 445.526 203.338 445.221 203.214 445.374C202.774 445.707 202.319 446.012 201.853 446.287C198.825 448.416 196.586 451.907 195.608 456.025C195.608 456.101 195.731 456.177 195.731 456.101C197.034 452.453 199.131 449.32 201.792 447.048C199.265 449.984 197.592 453.86 197.03 458.079Z" fill="#191919"/>
<path d="M206.568 450.827C205.625 451.021 204.714 451.42 203.875 452.007C201.278 454.109 199.298 457.262 198.247 460.968C198.186 461.204 198.43 461.283 198.552 461.126C200.216 458.203 201.965 453.386 205.528 451.923C205.054 452.128 203.155 455.479 202.285 458.213C201.652 459.87 201.16 461.61 200.817 463.402C200.755 463.875 201.245 464.267 201.429 463.717C202.137 462.026 203.158 455.232 206.874 451.452C207.179 451.22 206.872 450.751 206.568 450.827Z" fill="#191919"/>
<path d="M186.375 445.826C186.375 446.059 186.651 446.293 186.761 445.982C187.075 444.684 187.332 443.361 187.531 442.019C187.832 440.674 188.181 439.351 188.579 438.057C188.688 437.746 188.302 437.514 188.137 437.746C186.317 440.233 184.498 443.574 184.221 447.225C184.167 447.613 184.606 447.613 184.662 447.303C185.205 444.591 186.121 442.057 187.36 439.845C187.015 441.335 186.207 443.944 186.375 445.826Z" fill="#191919"/>
<path d="M147.208 458.386C147.174 454.76 146.001 449.095 146.27 449.7C146.739 450.756 148.552 455.666 148.821 456.195C148.888 456.421 149.223 456.271 149.156 456.044C148.57 451.938 145.901 446.742 143.652 443.279C143.6 443.209 143.527 443.161 143.447 443.145C143.366 443.128 143.283 443.143 143.212 443.188C143.14 443.232 143.085 443.304 143.055 443.389C143.025 443.475 143.023 443.569 143.048 443.657C145.13 448.265 146.471 453.252 147.008 458.386C146.94 458.537 147.21 458.537 147.208 458.386Z" fill="#191919"/>
<path d="M145.307 460.682C145.436 460.837 145.759 460.682 145.63 460.447C145.263 459.442 144.831 458.474 144.337 457.552C143.22 455.051 141.755 452.802 140.007 450.904C139.684 450.591 139.361 451.217 139.62 451.53C141.512 454.559 142.935 457.978 143.82 461.62C143.885 461.933 144.272 461.776 144.208 461.463C143.75 459.32 143.146 457.227 142.402 455.206C143.263 457.112 144.233 458.941 145.307 460.682Z" fill="#191919"/>
<path d="M599.155 317.839C597.136 316.933 595.205 315.807 593.39 314.477C593.254 314.403 593.39 314.254 593.525 314.254C595.222 315.075 597.054 316.046 598.886 316.718C598.056 315.173 596.876 313.892 595.46 313.001C594.044 312.11 592.443 311.641 590.812 311.639C590.747 311.641 590.683 311.659 590.625 311.692C590.568 311.725 590.517 311.772 590.478 311.83C590.439 311.887 590.412 311.954 590.4 312.024C590.387 312.094 590.389 312.167 590.406 312.236C590.538 313.28 590.888 314.275 591.43 315.144C591.971 316.012 592.689 316.731 593.525 317.241C597.526 318.959 599.087 317.914 599.155 317.839Z" fill="#38A1FF"/>
<path d="M611.811 279.82C611.751 279.823 611.693 279.844 611.639 279.881C611.586 279.919 611.54 279.972 611.504 280.037C611.468 280.102 611.443 280.177 611.431 280.257C611.419 280.336 611.42 280.418 611.435 280.497C611.809 282.642 612.746 284.53 614.072 285.81C615.397 287.089 617.021 287.674 618.641 287.455C619.644 287.284 619.393 286.691 618.705 286.013C617.32 284.773 615.825 283.777 614.255 283.048C614.067 282.962 614.193 282.623 614.317 282.623C615.97 282.798 617.553 283.592 618.892 284.914L618.328 283.896C617.533 282.605 616.536 281.569 615.409 280.864C614.282 280.159 613.053 279.802 611.811 279.82Z" fill="#38A1FF"/>
<path d="M593.37 333.583C595.188 333.492 596.905 332.472 598.151 330.742C599.397 329.013 600.071 326.713 600.029 324.34C599.847 324.577 599.666 324.734 599.485 324.972C598.033 326.709 596.762 328.761 595.431 330.657C595.407 330.684 595.375 330.699 595.343 330.697C595.31 330.695 595.279 330.678 595.256 330.648C595.234 330.618 595.22 330.578 595.219 330.536C595.218 330.493 595.229 330.452 595.25 330.42C596.374 327.898 597.804 325.632 599.485 323.708C595.861 324.496 594.085 328.24 593.072 332.867C593.04 332.938 593.022 333.018 593.021 333.1C593.02 333.182 593.035 333.264 593.065 333.336C593.095 333.408 593.139 333.469 593.192 333.512C593.246 333.556 593.307 333.58 593.37 333.583Z" fill="#38A1FF"/>
<path d="M587.763 271.285C587.143 269.071 586.015 267.137 584.522 265.727C583.028 264.317 581.235 263.494 579.37 263.361C579.313 263.363 579.257 263.382 579.206 263.415C579.155 263.448 579.111 263.495 579.076 263.552C579.042 263.61 579.019 263.676 579.007 263.747C578.996 263.817 578.998 263.89 579.012 263.959C580.32 268.739 582.665 271.161 584.965 271.883C585.582 272.112 586.229 272.188 586.869 272.108C586.692 271.809 586.513 271.435 586.334 271.136C585.317 269.484 584.137 268.002 582.822 266.725C582.762 266.65 582.822 266.501 582.882 266.575C583.358 266.949 583.894 267.248 584.37 267.697C585.28 268.505 586.1 269.46 586.81 270.538C587.763 272.032 587.763 271.435 587.763 271.285Z" fill="#38A1FF"/>
<path d="M642.92 248.146C642.879 248.093 642.83 248.053 642.776 248.029C642.722 248.004 642.665 247.995 642.609 248.003C642.552 248.01 642.497 248.034 642.448 248.073C642.399 248.111 642.357 248.163 642.324 248.226C641.011 251.996 640.177 260.097 643.934 262.264C643.934 257.683 642.716 251.081 643.338 251.916C644.194 254.631 644.64 257.549 644.65 260.498C644.65 260.9 644.709 261.301 644.709 261.702C646.498 257.289 645.427 251.683 642.92 248.146Z" fill="#38A1FF"/>
<path d="M605.309 274.838C605.443 274.768 605.576 274.768 605.643 274.908C604.173 276.731 601.968 277.784 600.832 279.819C602.682 279.584 604.425 278.779 605.84 277.506C607.255 276.232 608.28 274.547 608.784 272.663C608.827 272.397 608.745 272.023 608.182 272.173C604.44 272.663 600.632 275.33 600.031 279.399C601.622 277.675 603.392 276.145 605.309 274.838Z" fill="#38A1FF"/>
<path d="M581.52 313.395C582.807 312.46 583.898 311.072 584.685 309.368C585.473 307.663 585.929 305.701 586.01 303.674C585.05 304.899 584.19 306.269 583.444 307.759C583.153 308.33 582.802 308.821 582.569 309.393C582.511 309.474 582.394 309.393 582.452 309.31C583.318 306.934 584.44 304.759 585.778 302.861C585.662 302.861 583.97 303.269 581.578 306.7C580.586 308.17 579.6 310.587 579.947 312.662C580.12 313.707 580.247 314.285 581.52 313.395Z" fill="#38A1FF"/>
<path d="M625.049 286.077C625.913 281.26 627.391 279.812 627.548 279.517C627.565 279.502 627.585 279.492 627.606 279.488C627.628 279.484 627.65 279.486 627.67 279.494C627.69 279.502 627.709 279.516 627.724 279.533C627.739 279.551 627.749 279.573 627.755 279.597C627.631 279.981 627.538 280.378 627.477 280.782C626.785 282.935 626.274 285.158 625.951 287.421V287.5C629.283 285.524 630.392 279.597 629.56 275.802C629.545 275.72 629.51 275.644 629.459 275.582C629.409 275.52 629.345 275.475 629.274 275.45C629.203 275.426 629.128 275.424 629.056 275.444C628.984 275.464 628.919 275.506 628.866 275.565C625.882 278.326 623.592 282.679 624.986 287.184C624.94 286.814 624.961 286.437 625.049 286.077Z" fill="#38A1FF"/>
<path d="M594.391 256.305C594.452 256.224 594.514 256.305 594.514 256.384C594.142 257.181 593.831 258.055 593.458 258.934C592.766 260.575 592.224 262.314 591.843 264.116C591.781 264.514 591.656 264.912 591.594 265.391C592.458 264.83 593.203 264.009 593.765 262.999C595.727 259.815 596.701 255.811 596.5 251.761C596.499 251.677 596.482 251.595 596.449 251.523C596.415 251.451 596.368 251.391 596.311 251.351C596.254 251.31 596.189 251.29 596.124 251.292C596.059 251.294 595.995 251.318 595.94 251.362C593.871 252.531 592.227 254.669 591.346 257.339C590.594 259.547 589.948 263.315 590.787 265.469V265.556C590.787 265.471 592.03 258.934 594.391 256.305Z" fill="#38A1FF"/>
<path d="M588.443 299.316C586.652 297.627 584.766 296.11 582.802 294.776C582.736 294.692 582.802 294.607 582.868 294.607C583.84 295.074 584.499 295.021 588.639 298.307C588.139 296.548 587.255 295.01 586.092 293.877C584.929 292.744 583.537 292.064 582.081 291.917C581.424 291.833 578.539 291.833 579.063 293.43C579.425 294.585 579.986 295.62 580.703 296.457C585.294 300.829 588.443 299.316 588.443 299.316Z" fill="#38A1FF"/>
<path d="M639.011 293.53C639.027 293.498 639.052 293.473 639.081 293.458C639.111 293.444 639.144 293.441 639.175 293.45C639.206 293.459 639.234 293.479 639.255 293.508C639.275 293.537 639.287 293.572 639.288 293.61C639.054 296.386 638.541 299.122 637.762 301.764C641.369 298.97 641.785 293.369 640.671 288.972C640.654 288.9 640.623 288.832 640.581 288.774C640.538 288.717 640.485 288.671 640.425 288.641C640.365 288.61 640.3 288.595 640.235 288.597C640.169 288.599 640.105 288.618 640.047 288.653C636.856 291.132 634.635 297.047 636.856 301.124C637.235 300.687 637.703 296.66 639.011 293.53Z" fill="#38A1FF"/>
<path d="M625.611 442.753C626.173 442.544 626.764 442.486 627.346 442.581C627.927 442.676 628.486 442.923 628.985 443.304C629.702 442.386 630.638 441.776 631.654 441.566C631.901 441.025 632.224 440.543 632.609 440.145C631.947 436.634 631.481 433.071 631.215 429.48C630.662 429.294 630.128 429.029 629.624 428.691C625.909 426.145 626.602 419.056 626.441 413.054C626.441 411.002 625.804 407.999 626.314 406.025C627.013 403.577 629.051 407.447 629.624 408.315C629.432 405.236 627.714 373.172 627.399 368.991C626.366 353.474 625.114 331.96 627.081 317.183C627.081 315.654 630.243 312.548 631.155 311.417C634.785 307.225 638.728 303.47 642.931 300.203C642.995 300.125 642.931 300.046 642.867 300.046C641.848 300.757 640.894 301.546 639.875 302.178C635.286 305.351 630.946 307.962 627.909 311.734C629.278 302.796 631.884 294.219 635.61 286.383C642.394 272.593 648.886 270.532 655.981 263.638C656.87 262.771 657.76 261.821 658.65 260.879C658.905 260.564 658.585 260.011 658.267 260.327C653.287 265 645.345 268.793 645.345 269.25C648.08 264.331 651.455 256.53 651.265 250.534C651.261 250.449 651.232 250.369 651.185 250.307C651.137 250.245 651.074 250.206 651.005 250.197C650.937 250.187 650.868 250.208 650.811 250.255C650.754 250.303 650.712 250.374 650.692 250.456C647.494 266.789 635.978 276.204 628.858 295.312L627.14 300.289C626.822 298.945 626.567 297.602 626.25 296.34C625.213 292.24 623.69 288.354 621.732 284.809C620.995 283.529 620.187 282.315 619.313 281.176C619.058 280.86 618.675 281.254 618.868 281.57C623.767 290.03 625.603 302.309 626.125 303.605C624.123 310.419 623.929 311.934 622.306 317.978C621.668 320.506 621.032 323.427 618.55 321.216C613.139 316.478 609.575 308.582 605.564 302.183C603.209 298.472 600.79 294.594 599.516 290.022C598.056 284.584 598.692 280.554 600.153 274.622C600.217 274.306 599.771 273.99 599.644 274.384C598.116 278.491 596.588 283.388 597.034 287.967C594.233 283.704 592.642 278.491 591.114 273.438C589.29 267.748 588.027 261.806 587.353 255.74C587.289 255.346 586.843 255.346 586.843 255.74C586.603 271.746 593.453 286.427 600.975 299.493C599.757 299.228 598.519 299.122 597.283 299.177C591.567 299.013 585.912 300.672 580.86 303.994C580.605 304.152 580.86 304.627 581.051 304.468C586.78 301.23 595.31 299.809 601.357 302.572C604.158 303.836 606.003 307.391 607.474 310.39C607.54 310.528 611.351 318.351 611.611 318.447C610.398 318.118 609.147 318.064 607.919 318.288C603.223 318.737 598.193 319.646 594.297 322.869C594.255 322.906 594.224 322.961 594.212 323.023C594.199 323.085 594.205 323.151 594.228 323.208C594.251 323.266 594.29 323.311 594.338 323.335C594.386 323.36 594.439 323.363 594.488 323.343C599.101 321.582 604.763 319.762 609.638 320.658C610.528 320.816 612.884 320.974 613.33 322.002C615.904 327.157 617.814 332.779 618.994 338.664C620.069 344.745 620.267 355.669 620.966 375.624C621.158 375.782 624.786 380.442 625.358 383.127C626.491 387.807 623.294 391.616 621.799 387.628C621.608 387.076 621.418 386.601 621.227 386.048C621.469 396.899 621.797 412.996 621.481 425.141C621.418 428.695 620.717 438.409 620.717 438.566C622.24 438.409 625.295 439.437 625.611 442.753Z" fill="#38A1FF"/>
<path d="M633.957 439.188C634.873 436.009 636.832 437.227 636.832 436.296C636.842 436.166 636.827 436.034 636.788 435.92C636.75 435.806 636.691 435.717 636.62 435.665C635.957 435.523 635.285 435.755 634.707 436.326C634.13 436.897 633.679 437.774 633.425 438.823C633.155 439.757 633.5 440.767 633.957 439.188Z" fill="#191919"/>
<path d="M620.3 436.57C619.272 435.814 615.872 435.153 615.001 436.071C614.86 436.195 614.931 436.383 615.143 436.446C616.058 436.688 617.365 436.035 619.522 436.882C619.805 437.006 621.004 437.818 621.004 437.818C621.289 437.693 620.441 436.695 620.3 436.57Z" fill="#191919"/>
<path d="M646.955 438.626C647.262 438.783 647.442 438.56 647.303 438.415C646.895 436.338 640.913 435.858 640.34 438.768C640.34 438.909 640.48 438.98 640.549 438.839C641.593 437.425 644.101 437.357 645.562 437.991C646.692 438.45 646.235 438.384 646.955 438.626Z" fill="#191919"/>
<path d="M644.456 444.741C643.451 443.795 640.62 445.092 641.329 445.431C641.562 445.649 642.013 445.179 642.992 445.179C643.457 445.179 643.991 445.555 644.456 445.492C644.525 445.488 644.59 445.46 644.639 445.414C644.687 445.368 644.717 445.307 644.722 445.242C644.675 445.058 644.584 444.887 644.456 444.741Z" fill="#191919"/>
<path d="M618.248 447.727C619.486 448.032 620.622 448.762 621.516 449.826C621.712 449.983 622.039 449.826 621.908 449.517C620.592 445.514 614.714 446.104 614.064 448.43C613.999 448.741 614.196 448.897 614.457 448.897C615.538 448.764 615.91 447.352 618.248 447.727Z" fill="#191919"/>
<path d="M612.634 437.89C612.399 437.904 612.17 437.982 611.965 438.12C611.759 438.257 611.582 438.449 611.448 438.681C611.383 438.839 611.448 439.077 611.58 439.077C612.386 439.2 613.51 438.385 615.073 439.63C615.219 439.708 615.352 439.815 615.468 439.947C615.499 439.983 615.54 440.006 615.583 440.012C615.626 440.017 615.67 440.006 615.707 439.979C615.744 439.952 615.773 439.912 615.79 439.863C615.806 439.815 615.808 439.761 615.797 439.711C615.507 439.034 615.042 438.49 614.47 438.161C613.899 437.832 613.255 437.737 612.634 437.89Z" fill="#191919"/>
<path d="M617.211 441.891C618.906 440.371 620.932 439.759 622.645 441.265C623.336 442.078 623.829 443.106 624.068 444.235C623.425 444.5 622.877 445.024 622.515 445.719C622.386 445.954 622.645 446.188 622.774 446.031C623.673 445.37 624.657 444.895 625.685 444.625C628.159 444.34 629.601 446.314 630.148 446.579C630.184 446.596 630.224 446.601 630.262 446.591C630.3 446.582 630.335 446.559 630.363 446.526C630.39 446.493 630.409 446.45 630.417 446.404C630.425 446.358 630.421 446.31 630.407 446.266C630.336 445.953 630.214 445.659 630.047 445.404C629.881 445.149 629.673 444.937 629.437 444.781C629.68 444.498 629.939 444.237 630.212 444C630.681 443.681 631.201 443.488 631.737 443.434C632.273 443.38 632.812 443.466 633.318 443.687C633.577 443.765 635.194 444.779 635 443.843C634.87 443.219 632.865 442.046 632.412 442.437C633.583 441.189 635.015 440.351 636.552 440.015C638.299 439.702 639.527 440.718 640.885 441.968C640.917 442.004 640.957 442.026 640.999 442.031C641.041 442.037 641.084 442.025 641.121 441.999C641.158 441.972 641.186 441.932 641.202 441.884C641.218 441.836 641.221 441.783 641.21 441.734C640.758 439.624 638.427 438.842 636.876 438.921C635.862 439.023 634.877 439.381 633.985 439.974C633.093 440.566 632.315 441.379 631.701 442.359C631.701 442.437 631.636 442.437 631.636 442.515C631.092 442.536 630.56 442.718 630.087 443.045C629.614 443.372 629.215 443.834 628.924 444.39H628.858C628.212 443.963 627.499 443.7 626.765 443.62C626.03 443.539 625.29 443.642 624.59 443.922C624.913 441.343 622.391 439.312 620.515 439.312C619.26 439.348 618.043 439.838 617.021 440.718C615.968 441.552 615.049 442.611 614.309 443.843C612.152 441.85 609.193 442.775 608.811 444.313C608.746 444.468 608.876 444.625 609.005 444.625C609.51 444.48 610.006 444.297 610.493 444.079C612.301 443.454 613.404 444.625 614.762 445.798C615.409 446.344 614.892 444.627 614.762 444.47C615.658 443.687 616.359 442.654 617.211 441.891Z" fill="#191919"/>
<path d="M654.03 445.079C653.967 445.611 654.587 445.611 654.711 445.231C655.762 441.808 656.628 438.461 658.544 435.493C659.163 434.58 659.841 433.668 660.461 432.677C660.585 432.526 660.338 432.221 660.215 432.374C659.774 432.707 659.319 433.012 658.853 433.287C655.825 435.416 653.586 438.907 652.608 443.025C652.608 443.101 652.731 443.177 652.731 443.101C654.034 439.453 656.131 436.32 658.792 434.048C656.265 436.984 654.592 440.86 654.03 445.079Z" fill="#191919"/>
<path d="M663.568 437.827C662.625 438.021 661.714 438.42 660.875 439.007C658.278 441.109 656.298 444.262 655.247 447.968C655.186 448.204 655.43 448.283 655.552 448.126C657.216 445.203 658.965 440.386 662.528 438.923C662.054 439.128 660.155 442.479 659.285 445.213C658.652 446.87 658.16 448.61 657.817 450.402C657.755 450.875 658.245 451.267 658.429 450.717C659.137 449.026 660.158 442.232 663.874 438.452C664.179 438.22 663.872 437.751 663.568 437.827Z" fill="#191919"/>
<path d="M643.375 432.826C643.375 433.059 643.651 433.293 643.761 432.982C644.075 431.684 644.332 430.361 644.531 429.019C644.832 427.674 645.181 426.351 645.579 425.057C645.688 424.746 645.302 424.514 645.137 424.746C643.317 427.233 641.498 430.574 641.221 434.225C641.167 434.613 641.606 434.613 641.662 434.303C642.205 431.591 643.121 429.057 644.36 426.845C644.015 428.335 643.207 430.944 643.375 432.826Z" fill="#191919"/>
<path d="M604.209 445.386C604.175 441.76 603.001 436.095 603.27 436.7C603.739 437.756 605.552 442.666 605.821 443.195C605.888 443.421 606.223 443.271 606.156 443.044C605.57 438.938 602.901 433.742 600.652 430.279C600.6 430.209 600.527 430.161 600.447 430.145C600.366 430.128 600.283 430.143 600.212 430.188C600.14 430.232 600.085 430.304 600.055 430.389C600.025 430.475 600.023 430.569 600.048 430.657C602.13 435.265 603.471 440.252 604.008 445.386C603.94 445.537 604.21 445.537 604.209 445.386Z" fill="#191919"/>
<path d="M602.307 447.682C602.436 447.837 602.759 447.682 602.63 447.447C602.263 446.442 601.831 445.474 601.337 444.552C600.22 442.051 598.755 439.802 597.007 437.904C596.684 437.591 596.361 438.217 596.62 438.53C598.512 441.559 599.935 444.978 600.82 448.62C600.885 448.933 601.272 448.776 601.208 448.463C600.75 446.32 600.146 444.227 599.402 442.206C600.263 444.112 601.233 445.941 602.307 447.682Z" fill="#191919"/>
<path d="M471.758 319.493H474.831V342.54H471.758V319.493Z" fill="#E09F7E" stroke="#45413C" stroke-linecap="round" stroke-linejoin="round"/>
<path d="M493.876 286.789C493.21 286.22 492.731 285.463 492.503 284.617C492.153 283.619 492.189 282.527 492.604 281.554C494.686 276.431 496.335 258 476.919 258C457.502 258 459.15 276.437 461.231 281.554C461.647 282.526 461.684 283.619 461.334 284.617C461.105 285.463 460.626 286.22 459.959 286.789C459.917 286.826 459.886 286.875 459.869 286.929C459.853 286.984 459.852 287.042 459.866 287.096C459.881 287.151 459.91 287.201 459.951 287.24C459.992 287.28 460.044 287.307 460.099 287.319C461.77 287.605 463.486 287.494 465.106 286.994C465.225 288.257 465.01 289.528 464.483 290.682C464.414 290.78 464.371 290.895 464.36 291.014C464.349 291.133 464.368 291.254 464.418 291.363C464.467 291.473 464.543 291.568 464.64 291.639C464.737 291.71 464.85 291.754 464.97 291.768C466.048 291.993 467.171 291.858 468.166 291.384C469.16 290.909 469.971 290.121 470.475 289.141C470.899 289.626 471.197 290.21 471.339 290.839C471.482 291.468 471.466 292.123 471.292 292.744C471.247 292.896 471.245 293.057 471.288 293.21C471.33 293.362 471.415 293.5 471.532 293.606C471.65 293.712 471.795 293.783 471.951 293.811C472.107 293.838 472.267 293.821 472.414 293.761C474.311 292.948 476.919 291.582 476.919 290.215C476.919 291.582 479.531 292.948 481.422 293.761C481.569 293.821 481.729 293.838 481.885 293.811C482.041 293.783 482.186 293.712 482.304 293.606C482.421 293.5 482.506 293.362 482.548 293.21C482.591 293.057 482.589 292.896 482.544 292.744C482.37 292.123 482.354 291.468 482.496 290.839C482.639 290.21 482.936 289.626 483.361 289.141C483.864 290.121 484.676 290.909 485.67 291.384C486.665 291.858 487.787 291.993 488.866 291.768C488.985 291.754 489.099 291.71 489.196 291.639C489.292 291.568 489.369 291.473 489.418 291.363C489.467 291.254 489.487 291.133 489.476 291.014C489.464 290.895 489.422 290.78 489.353 290.682C488.826 289.528 488.612 288.257 488.731 286.994C490.353 287.496 492.071 287.607 493.744 287.319C493.801 287.309 493.855 287.283 493.897 287.243C493.94 287.204 493.97 287.153 493.984 287.097C493.998 287.041 493.995 286.981 493.976 286.927C493.957 286.872 493.922 286.824 493.876 286.789Z" fill="black"/>
<path d="M477.025 263.37C488.753 263.37 492.795 270.095 493.699 276.55C494.387 269.185 492.044 258 476.919 258C461.15 258 459.274 270.156 460.241 277.468C460.886 270.749 464.738 263.37 477.025 263.37Z" fill="#947063"/>
<path d="M493.876 286.789C493.21 286.22 492.731 285.463 492.503 284.617C492.153 283.619 492.189 282.527 492.604 281.554C494.686 276.431 496.335 258 476.919 258C457.502 258 459.15 276.437 461.231 281.554C461.647 282.526 461.684 283.619 461.334 284.617C461.105 285.463 460.626 286.22 459.959 286.789C459.917 286.826 459.886 286.875 459.869 286.929C459.853 286.984 459.852 287.042 459.866 287.096C459.881 287.151 459.91 287.201 459.951 287.24C459.992 287.28 460.044 287.307 460.099 287.319C461.77 287.605 463.486 287.494 465.106 286.994C465.225 288.257 465.01 289.528 464.483 290.682C464.414 290.78 464.371 290.895 464.36 291.014C464.349 291.133 464.368 291.254 464.418 291.363C464.467 291.473 464.543 291.568 464.64 291.639C464.737 291.71 464.85 291.754 464.97 291.768C466.048 291.993 467.171 291.858 468.166 291.384C469.16 290.909 469.971 290.121 470.475 289.141C470.899 289.626 471.197 290.21 471.339 290.839C471.482 291.468 471.466 292.123 471.292 292.744C471.247 292.896 471.245 293.057 471.288 293.21C471.33 293.362 471.415 293.5 471.532 293.606C471.65 293.712 471.795 293.783 471.951 293.811C472.107 293.838 472.267 293.821 472.414 293.761C474.311 292.948 476.919 291.582 476.919 290.215C476.919 291.582 479.531 292.948 481.422 293.761C481.569 293.821 481.729 293.838 481.885 293.811C482.041 293.783 482.186 293.712 482.304 293.606C482.421 293.5 482.506 293.362 482.548 293.21C482.591 293.057 482.589 292.896 482.544 292.744C482.37 292.123 482.354 291.468 482.496 290.839C482.639 290.21 482.936 289.626 483.361 289.141C483.864 290.121 484.676 290.909 485.67 291.384C486.665 291.858 487.787 291.993 488.866 291.768C488.985 291.754 489.099 291.71 489.196 291.639C489.292 291.568 489.369 291.473 489.418 291.363C489.467 291.254 489.487 291.133 489.476 291.014C489.464 290.895 489.422 290.78 489.353 290.682C488.826 289.528 488.612 288.257 488.731 286.994C490.353 287.496 492.071 287.607 493.744 287.319C493.801 287.309 493.855 287.283 493.897 287.243C493.94 287.204 493.97 287.153 493.984 287.097C493.998 287.041 493.995 286.981 493.976 286.927C493.957 286.872 493.922 286.824 493.876 286.789Z" stroke="#45413C" stroke-linecap="round" stroke-linejoin="round"/>
<path opacity="0.15" d="M449 376.049C449 376.472 449.722 376.891 451.125 377.282C452.528 377.673 454.585 378.028 457.178 378.327C459.77 378.626 462.848 378.864 466.236 379.026C469.623 379.187 473.254 379.271 476.92 379.271C480.587 379.271 484.218 379.187 487.605 379.026C490.993 378.864 494.07 378.626 496.663 378.327C499.256 378.028 501.312 377.673 502.715 377.282C504.119 376.891 504.841 376.472 504.841 376.049C504.841 375.194 501.899 374.375 496.663 373.771C491.427 373.166 484.325 372.827 476.92 372.827C469.515 372.827 462.414 373.166 457.178 373.771C451.942 374.375 449 375.194 449 376.049Z" fill="#45413C"/>
<path d="M462.96 333.634V373.366H472.624L473.474 346.632C473.501 345.736 473.876 344.885 474.519 344.261C475.162 343.636 476.024 343.287 476.92 343.287C477.817 343.287 478.678 343.636 479.322 344.261C479.965 344.885 480.34 345.736 480.367 346.632L481.216 373.366H490.881V333.634H462.96Z" fill="#FFDB94"/>
<path d="M473.204 355.109L473.473 346.637C473.499 345.74 473.874 344.889 474.518 344.264C475.162 343.64 476.023 343.29 476.92 343.29C477.817 343.29 478.679 343.64 479.323 344.264C479.966 344.889 480.341 345.74 480.368 346.637L480.636 355.109H490.881V333.634H462.96V355.109H473.204Z" fill="#38A1FF"/>
<path d="M462.96 355.108H473.204" stroke="#45413C" stroke-linecap="round" stroke-linejoin="round"/>
<path d="M480.636 355.108H490.881" stroke="#45413C" stroke-linecap="round" stroke-linejoin="round"/>
<path d="M462.959 333.632H490.879V339.002H462.959V333.632Z" fill="#009FD9"/>
<path d="M462.96 333.634V373.366H472.624L473.474 346.632C473.501 345.736 473.876 344.885 474.519 344.261C475.162 343.636 476.024 343.287 476.92 343.287C477.817 343.287 478.678 343.636 479.322 344.261C479.965 344.885 480.34 345.736 480.367 346.632L481.216 373.366H490.881V333.634H462.96Z" stroke="#45413C" stroke-linecap="round" stroke-linejoin="round"/>
<path d="M461.885 355.108H474.771V360.478H461.885V355.108Z" fill="#00B8F0" stroke="#45413C" stroke-linecap="round" stroke-linejoin="round"/>
<path d="M479.065 355.108H491.951V360.478H479.065V355.108Z" fill="#00B8F0" stroke="#45413C" stroke-linecap="round" stroke-linejoin="round"/>
<path d="M491.374 374.439C491.742 374.442 492.105 374.35 492.427 374.172C492.75 373.994 493.021 373.736 493.215 373.423C493.408 373.11 493.518 372.752 493.533 372.384C493.548 372.016 493.468 371.651 493.301 371.323C492.743 370.314 491.926 369.474 490.934 368.888C489.942 368.303 488.811 367.994 487.659 367.995H486.583C485.431 367.994 484.301 368.303 483.308 368.888C482.316 369.474 481.5 370.314 480.943 371.323C480.775 371.651 480.695 372.016 480.71 372.384C480.725 372.752 480.835 373.11 481.029 373.423C481.222 373.736 481.493 373.994 481.816 374.172C482.138 374.35 482.501 374.442 482.87 374.439H491.374Z" fill="#915E3A" stroke="#45413C" stroke-linecap="round" stroke-linejoin="round"/>
<path d="M470.97 374.439C471.338 374.442 471.701 374.35 472.023 374.172C472.346 373.994 472.617 373.736 472.811 373.423C473.004 373.11 473.114 372.752 473.129 372.384C473.144 372.016 473.064 371.651 472.897 371.323C472.34 370.314 471.523 369.474 470.531 368.888C469.539 368.303 468.408 367.994 467.256 367.995H466.181C465.029 367.994 463.898 368.303 462.905 368.888C461.913 369.474 461.096 370.314 460.539 371.323C460.371 371.651 460.291 372.016 460.306 372.384C460.321 372.752 460.431 373.11 460.625 373.423C460.818 373.736 461.089 373.994 461.412 374.172C461.734 374.35 462.097 374.442 462.466 374.439H470.97Z" fill="#915E3A" stroke="#45413C" stroke-linecap="round" stroke-linejoin="round"/>
<path d="M498.396 315.377V317.528H490.879V333.633H462.959V317.524H455.441V315.373C455.417 312.537 455.955 309.724 457.023 307.098C458.092 304.471 459.67 302.082 461.667 300.068C463.664 298.054 466.039 296.456 468.657 295.365C471.275 294.274 474.082 293.713 476.918 293.713C479.754 293.713 482.562 294.274 485.179 295.365C487.797 296.456 490.173 298.054 492.17 300.068C494.166 302.082 495.745 304.471 496.813 307.098C497.882 309.724 498.42 312.537 498.396 315.373V315.377Z" fill="#F8F8F8"/>
<path d="M476.919 293.899C471.224 293.904 465.764 296.168 461.737 300.195C457.71 304.222 455.446 309.682 455.441 315.377V317.528H455.873C456.861 312.675 459.496 308.311 463.332 305.178C467.168 302.044 471.969 300.332 476.922 300.332C481.875 300.332 486.676 302.044 490.512 305.178C494.348 308.311 496.983 312.675 497.971 317.528H498.402V315.377C498.399 309.681 496.134 304.219 492.106 300.191C488.078 296.164 482.615 293.901 476.919 293.899Z" fill="white"/>
<path d="M498.396 315.377V317.528H490.879V333.633H462.959V317.524H455.441V315.373C455.417 312.537 455.955 309.724 457.023 307.098C458.092 304.471 459.67 302.082 461.667 300.068C463.664 298.054 466.039 296.456 468.657 295.365C471.275 294.274 474.082 293.713 476.918 293.713C479.754 293.713 482.562 294.274 485.179 295.365C487.797 296.456 490.173 298.054 492.17 300.068C494.166 302.082 495.745 304.471 496.813 307.098C497.882 309.724 498.42 312.537 498.396 315.373V315.377Z" stroke="#45413C" stroke-linecap="round" stroke-linejoin="round"/>
<path d="M483.039 294.79C482.672 294.681 482.35 294.456 482.121 294.149C481.892 293.842 481.768 293.469 481.768 293.086V288.526H472.068V293.086C472.068 293.469 471.944 293.841 471.716 294.148C471.487 294.455 471.166 294.68 470.799 294.79C471.076 296.01 472.3 300.343 476.919 300.343C481.538 300.343 482.762 296.01 483.039 294.79Z" fill="#FFDB94" stroke="#45413C" stroke-linecap="round" stroke-linejoin="round"/>
<path d="M490.881 311.081V317.524" stroke="#45413C" stroke-linecap="round" stroke-linejoin="round"/>
<path d="M465.444 346.432L461.719 345.572C461.046 345.416 460.411 345.127 459.853 344.72C459.296 344.313 458.826 343.798 458.472 343.204C458.119 342.611 457.889 341.953 457.796 341.269C457.704 340.584 457.751 339.889 457.934 339.223L465.106 313.229H469.408L470.321 342.433C470.341 343.042 470.22 343.647 469.968 344.203C469.716 344.758 469.34 345.247 468.868 345.634C468.397 346.021 467.843 346.294 467.249 346.432C466.656 346.57 466.038 346.57 465.444 346.432Z" fill="#FFFEF2" stroke="#45413C" stroke-linecap="round" stroke-linejoin="round"/>
<path d="M469.401 295.259C467.889 295.823 466.446 296.558 465.099 297.448V313.229H469.401V295.259Z" fill="#38A1FF"/>
<path d="M465.107 297.448V303.891C466.454 303.001 467.897 302.267 469.409 301.701V295.259C467.896 295.823 466.453 296.558 465.107 297.448Z" fill="#00DBA8"/>
<path d="M469.401 295.259C467.889 295.823 466.446 296.558 465.099 297.448V313.229H469.401V295.259Z" stroke="#38A1FF" stroke-linecap="round" stroke-linejoin="round"/>
<path d="M462.959 319.672C462.959 320.242 463.185 320.789 463.589 321.193C463.992 321.596 464.539 321.823 465.11 321.823H472.081C473.077 321.823 474.033 322.219 474.738 322.923C475.443 323.628 475.839 324.584 475.839 325.581C475.839 326.578 475.443 327.533 474.738 328.238C474.033 328.943 473.077 329.339 472.081 329.339H465.107C463.837 329.339 462.581 329.089 461.408 328.604C460.235 328.118 459.17 327.406 458.272 326.509C457.374 325.612 456.662 324.546 456.177 323.373C455.691 322.201 455.441 320.944 455.441 319.675V317.524H462.959V319.672Z" fill="#FFDB94" stroke="#45413C" stroke-linecap="round" stroke-linejoin="round"/>
<path d="M501.618 326.115H484.436V339.002H500.544C500.826 339.002 501.106 338.946 501.367 338.838C501.628 338.73 501.865 338.571 502.065 338.372C502.264 338.172 502.423 337.935 502.531 337.674C502.639 337.413 502.695 337.133 502.695 336.851V327.186C502.694 326.902 502.579 326.629 502.378 326.428C502.176 326.228 501.902 326.115 501.618 326.115Z" fill="#FFE500" stroke="#45413C" stroke-linecap="round" stroke-linejoin="round"/>
<path d="M484.435 326.115H486.586V336.86C486.586 337.43 486.359 337.977 485.956 338.381C485.553 338.784 485.005 339.011 484.435 339.011C483.864 339.011 483.317 338.784 482.914 338.381C482.511 337.977 482.284 337.43 482.284 336.86V328.263C482.285 327.693 482.512 327.147 482.915 326.744C483.318 326.342 483.865 326.115 484.435 326.115Z" fill="#FFF5E3" stroke="#45413C" stroke-linecap="round" stroke-linejoin="round"/>
<path d="M490.879 339.538C490.879 340.535 491.275 341.491 491.98 342.195C492.684 342.9 493.64 343.296 494.637 343.296C495.634 343.296 496.59 342.9 497.294 342.195C497.999 341.491 498.395 340.535 498.395 339.538V317.524H490.879V339.538Z" fill="#FFDB94"/>
<path d="M490.879 317.524H498.395V322.894H490.879V317.524Z" fill="#FFBE3D"/>
<path d="M490.879 339.538C490.879 340.535 491.275 341.491 491.98 342.195C492.684 342.9 493.64 343.296 494.637 343.296C495.634 343.296 496.59 342.9 497.294 342.195C497.999 341.491 498.395 340.535 498.395 339.538V317.524H490.879V339.538Z" stroke="#45413C" stroke-linecap="round" stroke-linejoin="round"/>
<path d="M489.805 276.902V275.182C489.805 275.121 489.796 275.061 489.796 275.001C481.18 281.548 472.155 274.48 469.271 271.813C469.185 271.734 469.079 271.681 468.964 271.658C468.85 271.636 468.731 271.645 468.622 271.685C468.513 271.725 468.416 271.795 468.343 271.886C468.271 271.977 468.224 272.086 468.209 272.202C467.936 273.971 467.031 276.902 464.033 276.902C463.407 277.019 462.845 277.359 462.451 277.86C462.057 278.361 461.858 278.987 461.891 279.623C461.924 280.259 462.187 280.862 462.63 281.319C463.074 281.776 463.668 282.057 464.303 282.109C464.908 285.007 466.492 287.609 468.789 289.477C471.087 291.345 473.957 292.365 476.918 292.365C479.879 292.365 482.75 291.345 485.048 289.477C487.345 287.609 488.929 285.007 489.533 282.109C490.168 282.057 490.763 281.777 491.207 281.32C491.651 280.863 491.914 280.26 491.947 279.624C491.98 278.988 491.782 278.361 491.388 277.86C490.994 277.36 490.432 277.019 489.805 276.902Z" fill="#FFDB94" stroke="#45413C" stroke-linecap="round" stroke-linejoin="round"/>
<path d="M470.257 277.167C470.6 276.825 471.065 276.632 471.549 276.632C472.034 276.632 472.499 276.825 472.841 277.167" stroke="#45413C" stroke-linecap="round" stroke-linejoin="round"/>
<path d="M468.328 281.088C468.328 281.515 468.498 281.925 468.8 282.227C469.102 282.529 469.512 282.698 469.939 282.698C470.366 282.698 470.775 282.529 471.077 282.227C471.379 281.925 471.549 281.515 471.549 281.088C471.549 280.661 471.379 280.252 471.077 279.95C470.775 279.648 470.366 279.478 469.939 279.478C469.512 279.478 469.102 279.648 468.8 279.95C468.498 280.252 468.328 280.661 468.328 281.088Z" fill="#FFBE3D"/>
<path d="M482.289 281.088C482.289 281.515 482.458 281.925 482.76 282.227C483.062 282.529 483.472 282.698 483.899 282.698C484.326 282.698 484.735 282.529 485.037 282.227C485.339 281.925 485.509 281.515 485.509 281.088C485.509 280.661 485.339 280.252 485.037 279.95C484.735 279.648 484.326 279.478 483.899 279.478C483.472 279.478 483.062 279.648 482.76 279.95C482.458 280.252 482.289 280.661 482.289 281.088Z" fill="#FFBE3D"/>
<path d="M480.139 284.846C479.21 285.543 478.08 285.92 476.918 285.92C475.757 285.92 474.626 285.543 473.697 284.846" stroke="#45413C" stroke-linecap="round" stroke-linejoin="round"/>
<defs>
<linearGradient id="paint0_linear_486_6914" x1="602.5" y1="81" x2="602.5" y2="118" gradientUnits="userSpaceOnUse">
<stop offset="0.0104167" stop-color="#38A1FF"/>
<stop offset="0.515625"/>
<stop offset="0.9999" stop-color="#38A1FF"/>
<stop offset="1" stop-opacity="0"/>
</linearGradient>
<linearGradient id="paint1_linear_486_6914" x1="531.5" y1="81" x2="531.5" y2="118" gradientUnits="userSpaceOnUse">
<stop offset="0.0104167" stop-color="#38A1FF"/>
<stop offset="0.515625"/>
<stop offset="0.9999" stop-color="#38A1FF"/>
<stop offset="1" stop-opacity="0"/>
</linearGradient>
</defs>
</svg>
