<svg width="48" height="48" viewBox="0 0 48 48" fill="none" xmlns="http://www.w3.org/2000/svg">
<path d="M30.4004 11.2C27.3004 11.2 24.8004 8.7 24.8004 5.6C24.8004 2.5 27.3004 0 30.4004 0C33.5004 0 35.9004 2.6 35.9004 5.7C35.9004 8.8 33.4004 11.2 30.4004 11.2ZM30.4004 2.1C28.4004 2.1 26.8004 3.7 26.8004 5.7C26.8004 7.7 28.4004 9.3 30.4004 9.3C32.4004 9.3 34.0004 7.7 34.0004 5.7C33.9004 3.7 32.3004 2.1 30.4004 2.1Z" fill="#B61B83"/>
<path d="M46.1003 26.4004C45.4003 27.2004 44.4003 27.7004 43.4003 27.7004C42.4003 27.8004 41.4003 27.4004 40.6003 26.7004L37.4003 23.9004V25.9004L43.5003 31.2004C44.4003 32.0004 44.8003 33.0004 44.8003 34.2004V43.2004C44.8003 45.4004 43.0003 47.1004 40.9003 47.1004C38.8003 47.1004 37.0003 45.3004 37.0003 43.2004V36.1004L31.7003 32.5004C30.9003 34.8004 29.1003 40.5004 27.9003 44.3004C27.4003 46.0004 25.9003 47.1004 24.1003 47.1004C23.7003 47.1004 23.3003 47.0004 23.0003 46.9004C22.0003 46.6004 21.2003 45.9004 20.7003 45.0004C20.2003 44.1004 20.1003 43.0004 20.4003 42.0004L24.4003 28.7004V24.6004L21.7003 26.5004C21.0003 27.0004 20.3003 27.2004 19.5003 27.2004L19.0223 27.8789L16.4003 31.6004L17.8003 32.6004L8.80034 45.3004L7.90034 44.6004L7.20034 45.5004L5.60034 44.3004L5.90034 43.6004L3.50034 41.9004L2.80034 42.8004L1.20034 41.6004L1.90034 40.7004L1.00034 40.0004L10.0003 27.3004L14.5003 30.5004L16.9875 27L17.2003 26.7004C16.7003 26.4004 16.3003 26.0004 16.0003 25.6004C14.8003 23.8004 15.2003 21.4004 17.0003 20.1004L24.3003 15.0004C24.5003 13.1004 26.2003 11.6004 28.2003 11.6004H33.4003C33.7003 11.6004 35.1003 11.5004 36.2003 12.5004L45.8003 20.9004C47.3003 22.3004 47.5003 24.8004 46.1003 26.4004ZM3.70034 39.6004L8.00034 42.6004L14.7003 33.1004L10.4003 30.1004L3.70034 39.6004ZM22.1003 42.6004C22.0003 43.1004 22.0003 43.6004 22.3003 44.1004C22.5003 44.6004 23.0003 44.9004 23.4003 45.0004C24.4003 45.3004 25.5003 44.7004 25.8003 43.7004C28.1003 36.2004 29.2003 32.9004 29.8003 31.4004L26.1003 29.0004L22.1003 42.6004ZM17.6003 24.5004C18.2003 25.3004 19.4003 25.6004 20.3003 25.0004L24.2003 22.3004V17.6004L18.1003 21.9004C17.2003 22.4004 17.0003 23.6004 17.6003 24.5004ZM44.4003 22.4004L34.8003 14.0004C34.3003 13.5004 33.5003 13.6004 33.5003 13.6004H28.1003C27.0003 13.6004 26.2003 14.5004 26.2003 15.5004V23.2004V26.5004L38.4003 34.7004L38.8003 35.0004V43.1004C38.8003 44.2004 39.7003 45.0004 40.7003 45.0004C41.7003 45.0004 42.6003 44.1004 42.6003 43.1004V34.1004C42.6003 33.5004 42.4003 33.0004 41.9003 32.6004L35.1003 26.7004V22.0004L31.8003 19.1004L33.1003 17.6004L35.1003 19.3004L37.1003 21.1004L41.6003 25.1004C42.0003 25.4004 42.5003 25.6004 43.0003 25.6004C43.5003 25.6004 44.0003 25.3004 44.4003 24.9004C45.3003 24.3004 45.2003 23.1004 44.4003 22.4004Z" fill="#B61B83"/>
<path fill-rule="evenodd" clip-rule="evenodd" d="M19.4908 27.1673L17.7245 25.9316L14.6532 30.3214L9.97458 27.048L0.864463 40.069L1.78073 40.7101L1.13472 41.6334L2.91839 42.8814L3.5644 41.958L8.77827 45.6059L17.8884 32.5849L16.4195 31.5572L19.4908 27.1673ZM10.4307 30.2952L14.5953 33.209L8.07656 42.5261L3.91199 39.6124L10.4307 30.2952ZM5.8358 43.5487L7.6667 44.8297L7.06425 45.6908L5.23335 44.4098L5.8358 43.5487Z" fill="#0802A3"/>
<path d="M10.724 32.5608L12.3574 33.7148L9.06852 38.37L7.43512 37.216L10.724 32.5608Z" fill="#0802A3"/>
</svg>
