<svg width="64" height="64" viewBox="0 0 64 64" fill="none" xmlns="http://www.w3.org/2000/svg">
<path d="M56.2742 25.039C56.1852 25.013 56.0929 24.9998 56.0002 25H41.4942L38.0942 19.99C38.859 19.9354 39.574 19.59 40.0921 19.0247C40.6102 18.4595 40.8922 17.7173 40.8802 16.9505C40.8682 16.1838 40.563 15.4508 40.0274 14.9021C39.4918 14.3534 38.7664 14.0306 38.0002 14H34.0302L31.3152 10H32.0002C32.7958 10 33.5589 9.68393 34.1215 9.12132C34.6841 8.55871 35.0002 7.79565 35.0002 7C35.0002 6.20435 34.6841 5.44129 34.1215 4.87868C33.5589 4.31607 32.7958 4 32.0002 4H27.2442L24.8272 0.438C24.7355 0.303081 24.6122 0.192634 24.4681 0.11629C24.3239 0.0399462 24.1633 2.25402e-05 24.0002 1.54494e-07H17.0002C16.8453 -8.59153e-05 16.6926 0.0357918 16.554 0.104806C16.4153 0.17382 16.2946 0.274085 16.2014 0.397698C16.1081 0.521312 16.0448 0.664898 16.0165 0.817139C15.9882 0.969381 15.9956 1.12612 16.0382 1.275L22.8162 25H12.3212L9.87819 20.521C9.79213 20.3633 9.66518 20.2317 9.51068 20.14C9.35618 20.0483 9.17984 20 9.00019 20H1.00019C0.826674 20 0.65614 20.0451 0.505344 20.1309C0.354548 20.2167 0.228678 20.3403 0.140105 20.4895C0.051533 20.6387 0.00330593 20.8084 0.000164 20.9819C-0.00297793 21.1554 0.0390734 21.3267 0.122185 21.479L4.22418 29H3.00019C2.20454 29 1.44147 29.3161 0.878865 29.8787C0.316256 30.4413 0.000185145 31.2044 0.000185145 32C0.000185145 32.7956 0.316256 33.5587 0.878865 34.1213C1.44147 34.6839 2.20454 35 3.00019 35H4.22518L0.125185 42.521C0.0421942 42.6731 0.000141574 42.8441 0.0031485 43.0174C0.00615543 43.1906 0.0541187 43.3601 0.142338 43.5092C0.230557 43.6583 0.356005 43.7819 0.506388 43.868C0.656771 43.954 0.826928 43.9995 1.00019 44H9.00019C9.17984 44 9.35618 43.9517 9.51068 43.86C9.66518 43.7683 9.79213 43.6367 9.87819 43.479C9.87819 43.479 14.8072 34.404 14.8222 34.367C15.1882 34.0904 15.485 33.7327 15.6894 33.322C15.8938 32.9113 16.0002 32.4588 16.0002 32C16.0002 31.5412 15.8938 31.0887 15.6894 30.678C15.485 30.2673 15.1882 29.9096 14.8222 29.633C14.8072 29.6 13.4122 27 13.4122 27H55.8552C57.6862 27.554 62.0002 29.411 62.0002 32C62.0002 34.589 57.6862 36.445 55.8552 37H16.0002C15.735 37 15.4806 37.1054 15.2931 37.2929C15.1055 37.4804 15.0002 37.7348 15.0002 38C15.0002 38.2652 15.1055 38.5196 15.2931 38.7071C15.4806 38.8946 15.735 39 16.0002 39H22.8172L16.0382 62.726C15.9958 62.8748 15.9885 63.0314 16.0169 63.1836C16.0453 63.3357 16.1086 63.4791 16.2019 63.6026C16.2951 63.7261 16.4158 63.8263 16.5543 63.8952C16.6928 63.9642 16.8454 64 17.0002 64H24.0002C24.1633 64 24.3239 63.9601 24.4681 63.8837C24.6122 63.8074 24.7355 63.6969 24.8272 63.562L27.2442 60H32.0002C32.7958 60 33.5589 59.6839 34.1215 59.1213C34.6841 58.5587 35.0002 57.7956 35.0002 57C35.0002 56.2044 34.6841 55.4413 34.1215 54.8787C33.5589 54.3161 32.7958 54 32.0002 54H31.3152L34.0302 50H38.0002C38.7664 49.9694 39.4918 49.6466 40.0274 49.0979C40.563 48.5492 40.8682 47.8162 40.8802 47.0495C40.8922 46.2827 40.6102 45.5405 40.0921 44.9753C39.574 44.41 38.859 44.0646 38.0942 44.01L41.4942 39H56.0002C56.0928 39 56.185 38.9872 56.2742 38.962C56.5902 38.871 64.0002 36.7 64.0002 32C64.0002 27.3 56.5902 25.128 56.2742 25.039ZM2.68519 22H8.40619L12.2242 29H6.50019L2.68519 22ZM2.00019 32C2.00019 31.7348 2.10554 31.4804 2.29308 31.2929C2.48061 31.1054 2.73497 31 3.00019 31H13.0002C13.2654 31 13.5198 31.1054 13.7073 31.2929C13.8948 31.4804 14.0002 31.7348 14.0002 32C14.0002 32.2652 13.8948 32.5196 13.7073 32.7071C13.5198 32.8946 13.2654 33 13.0002 33H3.00019C2.73497 33 2.48061 32.8946 2.29308 32.7071C2.10554 32.5196 2.00019 32.2652 2.00019 32ZM8.40619 42H2.68519L6.50019 35H12.2222L8.40619 42ZM38.0002 16C38.2654 16 38.5198 16.1054 38.7073 16.2929C38.8948 16.4804 39.0002 16.7348 39.0002 17C39.0002 17.2652 38.8948 17.5196 38.7073 17.7071C38.5198 17.8946 38.2654 18 38.0002 18H36.7442L35.3872 16H38.0002ZM32.0002 6C32.2654 6 32.5198 6.10536 32.7073 6.29289C32.8948 6.48043 33.0002 6.73478 33.0002 7C33.0002 7.26522 32.8948 7.51957 32.7073 7.70711C32.5198 7.89464 32.2654 8 32.0002 8H29.9582L28.6002 6H32.0002ZM18.3262 2H23.4702L39.0772 25H24.9002L18.3262 2ZM32.0002 56C32.2654 56 32.5198 56.1054 32.7073 56.2929C32.8948 56.4804 33.0002 56.7348 33.0002 57C33.0002 57.2652 32.8948 57.5196 32.7073 57.7071C32.5198 57.8946 32.2654 58 32.0002 58H28.6002L29.9572 56H32.0002ZM38.0002 46C38.2654 46 38.5198 46.1054 38.7073 46.2929C38.8948 46.4804 39.0002 46.7348 39.0002 47C39.0002 47.2652 38.8948 47.5196 38.7073 47.7071C38.5198 47.8946 38.2654 48 38.0002 48H35.3872L36.7442 46H38.0002ZM23.4702 62H18.3262L24.9002 39H39.0802L23.4702 62Z" fill="#B61B83"/>
<path d="M55.5525 34.1C55.3151 34.2185 55.1346 34.4265 55.0506 34.6782C54.9666 34.9299 54.986 35.2046 55.1045 35.442C55.2231 35.6793 55.4311 35.8599 55.6827 35.9439C55.9344 36.0279 56.2091 36.0085 56.4465 35.89C57.1735 35.5195 57.7913 34.9658 58.2391 34.2836C58.6868 33.6015 58.9489 32.8144 58.9995 32C58.9496 31.1847 58.6879 30.3966 58.2401 29.7135C57.7924 29.0304 57.1741 28.476 56.4465 28.105C56.2095 27.9856 55.9349 27.9653 55.6829 28.0485C55.431 28.1316 55.2224 28.3115 55.103 28.5485C54.9837 28.7854 54.9633 29.0601 55.0465 29.3121C55.1297 29.564 55.3095 29.7726 55.5465 29.892C55.943 30.0973 56.2828 30.397 56.5362 30.7646C56.7896 31.1321 56.9487 31.5564 56.9995 32C56.9482 32.4416 56.7895 32.8639 56.5373 33.23C56.285 33.5961 55.9469 33.8948 55.5525 34.1Z" fill="#0802A3"/>
<path fill-rule="evenodd" clip-rule="evenodd" d="M51 28H53V30H51V28ZM51 34H53V36H51V34ZM50 34H48V36H50V34ZM48 28H50V30H48V28ZM47 34H45V36H47V34ZM45 28H47V30H45V28ZM41 34H39V36H41V34ZM39 28H41V30H39V28ZM3 31C2.44772 31 2 31.4477 2 32C2 32.5523 2.44772 33 3 33H13C13.5523 33 14 32.5523 14 32C14 31.4477 13.5523 31 13 31H3ZM42 34H44V36H42V34ZM44 28H42V30H44V28Z" fill="#0802A3"/>
</svg>
