<svg width="515" height="488" viewBox="0 0 515 488" fill="none" xmlns="http://www.w3.org/2000/svg">
<path d="M514.778 349.382V267.784C514.778 245.855 496.936 228.013 475.006 228.013C453.076 228.013 435.234 245.855 435.234 267.784V287.12C416.727 272.051 390.597 271.257 371.283 285.18V184.696C371.283 182.829 370.322 181.094 368.738 180.104L241.328 100.473V38.4957C241.328 35.5056 238.905 33.0808 235.914 33.0808H214.254V6.00663C214.254 3.01656 211.831 0.591797 208.839 0.591797H40.9794C37.9883 0.591797 35.5646 3.01656 35.5646 6.00663V33.0808H19.3201C16.3289 33.0808 13.9053 35.5056 13.9053 38.4957V477.097H5.783C2.79184 477.097 0.368164 479.521 0.368164 482.512C0.368164 485.503 2.79184 487.927 5.783 487.927C21.8207 487.927 493.341 487.927 509.363 487.927C512.354 487.927 514.778 485.503 514.778 482.512C514.778 479.521 512.354 477.097 509.363 477.097H480.42V388.774C499.797 386.124 514.778 369.474 514.778 349.382ZM446.064 267.785C446.064 251.827 459.047 238.844 475.007 238.844C490.965 238.844 503.949 251.826 503.949 267.785V349.383C503.949 363.49 493.801 375.266 480.422 377.809V351.188L492.224 335.454C494.018 333.062 493.533 329.668 491.141 327.873C488.75 326.08 485.354 326.565 483.56 328.956L480.422 333.14V321.126L496.517 299.666C498.311 297.274 497.826 293.88 495.434 292.085C493.041 290.291 489.647 290.777 487.853 293.168L480.422 303.077V280.671C480.422 277.68 477.998 275.256 475.007 275.256C472.016 275.256 469.592 277.68 469.592 280.671V321.245L466.766 316.536C465.229 313.972 461.902 313.138 459.338 314.678C456.774 316.217 455.942 319.543 457.481 322.106L469.593 342.292V377.809C456.216 375.265 446.067 363.49 446.066 349.383V267.785H446.064ZM402 286.085C415.039 286.085 427.333 292.223 435.235 302.564C435.29 351.772 435.113 349.287 435.373 352.558C435.324 352.79 435.269 353.021 435.252 353.262C428.454 362.161 418.397 367.926 407.416 369.367V364.07L419.217 348.336C421.011 345.944 420.526 342.55 418.134 340.755C415.741 338.961 412.348 339.447 410.553 341.838L407.416 346.02V327.908C407.416 324.917 404.992 322.493 402.001 322.493C399.01 322.493 396.586 324.917 396.586 327.908V337.431L393.45 333.249C391.656 330.857 388.261 330.372 385.869 332.166C383.477 333.961 382.991 337.355 384.786 339.747L396.586 355.48V369.37C376.074 366.705 360.175 349.134 360.175 327.908C360.174 304.847 378.937 286.085 402 286.085ZM371.284 370.636C378.557 375.879 387.206 379.324 396.585 380.287V477.097H371.284V370.636ZM360.455 187.697V295.617C345.633 314.643 345.635 341.179 360.455 360.202V477.097H241.328V113.243L360.455 187.697ZM46.3943 11.4215H203.425V33.0808H46.3943V11.4215ZM230.499 43.9105V444.608H24.7349V43.9105C87.9531 43.9105 167.283 43.9105 230.499 43.9105ZM24.7349 477.097V455.438H230.499V477.097H24.7349ZM407.414 477.097V380.264C419.218 379.037 430.249 373.853 438.714 365.62C444.23 377.899 455.792 386.887 469.591 388.775V477.097H407.414Z" fill="#B61B83"/>
<path d="M452.505 422.953C456.991 422.953 460.627 419.317 460.627 414.831C460.627 410.345 456.991 406.709 452.505 406.709C448.019 406.709 444.383 410.345 444.383 414.831C444.383 419.317 448.019 422.953 452.505 422.953Z" fill="#0802A3"/>
<path d="M476.876 195.524C481.362 195.524 484.998 191.887 484.998 187.402C484.998 182.916 481.362 179.279 476.876 179.279C472.39 179.279 468.754 182.916 468.754 187.402C468.754 191.887 472.39 195.524 476.876 195.524Z" fill="#0802A3"/>
<path d="M262.988 217.189H333.381C336.372 217.189 338.796 214.764 338.796 211.774C338.796 208.784 336.372 206.359 333.381 206.359H262.988C259.997 206.359 257.573 208.784 257.573 211.774C257.573 214.764 259.997 217.189 262.988 217.189Z" fill="#0802A3"/>
<path d="M262.988 260.504H333.381C336.372 260.504 338.796 258.08 338.796 255.089C338.796 252.098 336.372 249.674 333.381 249.674H262.988C259.997 249.674 257.573 252.098 257.573 255.089C257.573 258.08 259.997 260.504 262.988 260.504Z" fill="#0802A3"/>
<path d="M262.988 303.82H333.381C336.372 303.82 338.796 301.396 338.796 298.405C338.796 295.414 336.372 292.99 333.381 292.99H262.988C259.997 292.99 257.573 295.414 257.573 298.405C257.573 301.396 259.997 303.82 262.988 303.82Z" fill="#0802A3"/>
<path d="M262.988 347.144H333.381C336.372 347.144 338.796 344.72 338.796 341.729C338.796 338.738 336.372 336.314 333.381 336.314H262.988C259.997 336.314 257.573 338.738 257.573 341.729C257.573 344.72 259.997 347.144 262.988 347.144Z" fill="#0802A3"/>
<path d="M262.988 390.459H333.381C336.372 390.459 338.796 388.035 338.796 385.044C338.796 382.053 336.372 379.629 333.381 379.629H262.988C259.997 379.629 257.573 382.053 257.573 385.044C257.573 388.035 259.997 390.459 262.988 390.459Z" fill="#0802A3"/>
<path d="M262.988 433.783H333.381C336.372 433.783 338.796 431.359 338.796 428.368C338.796 425.377 336.372 422.953 333.381 422.953H262.988C259.997 422.953 257.573 425.377 257.573 428.368C257.573 431.359 259.997 433.783 262.988 433.783Z" fill="#0802A3"/>
<path d="M382.114 222.601C382.114 234.544 391.831 244.26 403.774 244.26C415.717 244.26 425.433 234.544 425.433 222.601C425.433 210.658 415.717 200.941 403.774 200.941C391.831 200.941 382.114 210.658 382.114 222.601ZM414.603 222.601C414.603 228.572 409.745 233.43 403.774 233.43C397.802 233.43 392.944 228.572 392.944 222.601C392.944 216.629 397.802 211.771 403.774 211.771C409.745 211.771 414.603 216.629 414.603 222.601Z" fill="#0802A3"/>
<rect x="54" y="92" width="36" height="51" fill="#0802A3"/>
<rect x="54" y="176" width="36" height="51" fill="#0802A3"/>
<rect x="54" y="264" width="36" height="51" fill="#0802A3"/>
<rect x="54" y="354" width="36" height="51" fill="#0802A3"/>
<rect x="112" y="92" width="36" height="51" fill="#0802A3"/>
<rect x="112" y="176" width="36" height="51" fill="#0802A3"/>
<rect x="112" y="264" width="36" height="51" fill="#0802A3"/>
<rect x="112" y="354" width="36" height="51" fill="#0802A3"/>
<rect x="170" y="92" width="36" height="51" fill="#0802A3"/>
<rect x="170" y="176" width="36" height="51" fill="#0802A3"/>
<rect x="170" y="264" width="36" height="51" fill="#0802A3"/>
<rect x="170" y="354" width="36" height="51" fill="#0802A3"/>
</svg>
