<svg width="74" height="30" viewBox="0 0 74 30" fill="none" xmlns="http://www.w3.org/2000/svg">
<path d="M72.9694 13.1046C68.0345 9.4023 60.9095 9.19936 53.8762 9.18771L53.8706 9.18658H53.4031L50.0685 2.51739C49.9342 2.24907 49.7062 2.03933 49.4276 1.92794C43.0024 -0.642648 23.112 -0.642648 16.6867 1.92794C16.4594 2.01885 16.2646 2.17575 16.1274 2.37842C15.9901 2.58109 15.9168 2.82022 15.9167 3.06499C15.9167 7.08348 14.0695 9.18658 12.2438 9.18658H1.22489C1.03535 9.18639 0.848354 9.23023 0.67865 9.31466C0.508945 9.39908 0.361172 9.52177 0.246983 9.67306C0.132794 9.82435 0.0553107 10.0001 0.0206424 10.1864C-0.0140258 10.3728 -0.00493103 10.5646 0.0472098 10.7469L2.44921 19.1521V23.8784C2.44939 24.1613 2.54749 24.4355 2.72686 24.6543C2.90623 24.8731 3.1558 25.0231 3.43321 25.0788L9.5548 26.3031C9.63395 26.3188 9.71443 26.3268 9.79512 26.327C10.1198 26.327 10.4312 26.198 10.6608 25.9684C10.8904 25.7388 11.0194 25.4274 11.0194 25.1027C11.0585 24.2053 11.3795 23.3431 11.9367 22.6387C12.494 21.9342 13.2592 21.4234 14.1234 21.1788C13.6984 22.0156 13.474 22.9398 13.4681 23.8784C13.4681 25.5019 14.113 27.059 15.261 28.207C16.4091 29.355 17.9661 30 19.5897 30C21.2132 30 22.7703 29.355 23.9183 28.207C25.0663 27.059 25.7113 25.5019 25.7113 23.8784C25.7053 22.9398 25.481 22.0156 25.0559 21.1788C25.9202 21.4234 26.6853 21.9342 27.2426 22.6387C27.7998 23.3431 28.1208 24.2053 28.1599 25.1027C28.1598 25.2635 28.1914 25.4228 28.2529 25.5714C28.3144 25.7199 28.4046 25.8549 28.5183 25.9686C28.632 26.0824 28.767 26.1725 28.9156 26.234C29.0642 26.2955 29.2234 26.3271 29.3842 26.327H51.4219C51.5827 26.3271 51.742 26.2955 51.8906 26.234C52.0391 26.1725 52.1742 26.0824 52.2879 25.9686C52.4016 25.8549 52.4917 25.7199 52.5532 25.5714C52.6147 25.4228 52.6463 25.2635 52.6462 25.1027C52.6853 24.2053 53.0063 23.3431 53.5635 22.6387C54.1208 21.9342 54.886 21.4234 55.7502 21.1788C55.3252 22.0156 55.1008 22.9398 55.0949 23.8784C55.0945 25.3977 55.6592 26.8628 56.6792 27.9888C57.6993 29.1148 59.1016 29.8211 60.6136 29.9704C62.1255 30.1196 63.639 29.7012 64.8595 28.7964C66.08 27.8916 66.9203 26.5652 67.217 25.0751C71.2621 24.8833 72.1445 23.5596 72.2281 20.7196L73.1009 19.8467C73.2147 19.7331 73.3049 19.5981 73.3664 19.4496C73.428 19.3011 73.4597 19.1419 73.4596 18.9811V14.0839C73.4596 13.8938 73.4153 13.7063 73.3302 13.5364C73.2451 13.3664 73.1216 13.2186 72.9694 13.1046ZM50.6653 9.18658H35.5058V2.49767C40.6329 2.62171 45.4608 3.13696 48.0945 4.0442L50.6653 9.18658ZM22.6936 9.18658L19.0666 3.74635C23.6677 2.79864 28.3606 2.37067 33.0572 2.47046V9.18658H22.6936ZM17.9209 6.44188L19.7508 9.18658H16.6565C17.2406 8.35573 17.669 7.42575 17.9209 6.44188ZM23.2626 23.8784C23.2626 24.6048 23.0472 25.315 22.6436 25.919C22.24 26.523 21.6664 26.9938 20.9952 27.2718C20.3241 27.5498 19.5856 27.6225 18.8731 27.4808C18.1606 27.3391 17.5062 26.9892 16.9925 26.4756C16.4788 25.9619 16.129 25.3074 15.9873 24.595C15.8456 23.8825 15.9183 23.144 16.1963 22.4728C16.4743 21.8017 16.9451 21.228 17.5491 20.8244C18.1531 20.4209 18.8632 20.2054 19.5897 20.2054C20.5635 20.2065 21.4971 20.5938 22.1857 21.2824C22.8742 21.971 23.2616 22.9046 23.2626 23.8784ZM19.5897 17.7568C14.9925 17.7568 9.69948 19.3303 8.72743 23.6405L4.89785 22.8753V18.9811C4.89795 18.8675 4.88226 18.7544 4.85121 18.6452L4.24773 16.5325H6.12217C6.44687 16.5325 6.75828 16.4035 6.98789 16.1739C7.21749 15.9443 7.34648 15.6329 7.34648 15.3082C7.34648 14.9835 7.21749 14.6721 6.98789 14.4424C6.75828 14.2128 6.44687 14.0839 6.12217 14.0839H3.54799L2.84855 11.6352H33.0572V23.8784H30.4997C29.6723 19.3876 24.2693 17.7568 19.5897 17.7568ZM50.3064 23.8784H35.5058V11.6352H51.961C53.4004 13.9462 54.0681 16.6548 53.8677 19.37C52.9654 19.7941 52.1739 20.4222 51.5559 21.2046C50.9378 21.987 50.5101 22.9024 50.3064 23.8784ZM61.2165 27.5514C60.49 27.5514 59.7799 27.3359 59.1759 26.9323C58.5719 26.5288 58.1011 25.9551 57.8231 25.284C57.5451 24.6128 57.4724 23.8743 57.6141 23.1618C57.7558 22.4494 58.1056 21.7949 58.6193 21.2812C59.133 20.7676 59.7874 20.4177 60.4999 20.276C61.2124 20.1343 61.9509 20.207 62.622 20.485C63.2932 20.763 63.8668 21.2338 64.2704 21.8378C64.674 22.4418 64.8894 23.152 64.8894 23.8784C64.8884 24.8522 64.501 25.7858 63.8125 26.4744C63.1239 27.163 62.1903 27.5503 61.2165 27.5514ZM70.1454 19.3398C70.0317 19.4535 69.9415 19.5884 69.8799 19.7369C69.8184 19.8855 69.7867 20.0447 69.7867 20.2054C69.7867 22.1317 69.7804 22.5668 67.2116 22.6404C66.9249 21.2618 66.1725 20.0239 65.0808 19.1346C63.9891 18.2453 62.6246 17.7588 61.2165 17.7568C59.5565 17.7499 57.9033 17.968 56.3019 18.405C56.3467 16.0591 55.8211 13.7373 54.7702 11.6395C60.351 11.667 65.8928 11.9155 69.9444 14.0839H69.7867C69.462 14.0839 69.1506 14.2128 68.921 14.4424C68.6914 14.6721 68.5624 14.9835 68.5624 15.3082C68.5624 15.6329 68.6914 15.9443 68.921 16.1739C69.1506 16.4035 69.462 16.5325 69.7867 16.5325H71.011V18.4742L70.1454 19.3398Z" fill="#B61B83"/>
<path fill-rule="evenodd" clip-rule="evenodd" d="M70.2243 14H71.4486C71.7733 14 72.0848 14.129 72.3144 14.3586C72.544 14.5882 72.673 14.8996 72.673 15.2243C72.673 15.549 72.544 15.8604 72.3144 16.09C72.0848 16.3196 71.7733 16.4486 71.4486 16.4486H70.2243C69.8996 16.4486 69.5882 16.3196 69.3586 16.09C69.129 15.8604 69 15.549 69 15.2243C69 14.8996 69.129 14.5882 69.3586 14.3586C69.5882 14.129 69.8996 14 70.2243 14ZM39.1784 14.084H40.4027C40.7274 14.084 41.0389 14.213 41.2685 14.4426C41.4981 14.6722 41.6271 14.9836 41.6271 15.3083C41.6271 15.633 41.4981 15.9444 41.2685 16.174C41.0389 16.4036 40.7274 16.5326 40.4027 16.5326H39.1784C38.8537 16.5326 38.5423 16.4036 38.3127 16.174C38.0831 15.9444 37.9541 15.633 37.9541 15.3083C37.9541 14.9836 38.0831 14.6722 38.3127 14.4426C38.5423 14.213 38.8537 14.084 39.1784 14.084ZM63 24C63 25.1046 62.1046 26 61 26C59.8954 26 59 25.1046 59 24C59 22.8954 59.8954 22 61 22C62.1046 22 63 22.8954 63 24ZM20 26C21.1046 26 22 25.1046 22 24C22 22.8954 21.1046 22 20 22C18.8954 22 18 22.8954 18 24C18 25.1046 18.8954 26 20 26Z" fill="#0802A3"/>
</svg>
