<svg width="232" height="49" viewBox="0 0 232 49" fill="none" xmlns="http://www.w3.org/2000/svg">
<g clip-path="url(#clip0_3412_3809)">
<mask id="mask0_3412_3809" style="mask-type:luminance" maskUnits="userSpaceOnUse" x="1" y="0" width="105" height="39">
<path d="M95.8513 3.77669L96.3937 0.350641H105.748C102.481 1.54318 99.1806 2.68825 95.8513 3.77669ZM67.9279 11.341L69.6628 0.350641H79.0699L83.5113 7.51138C78.3704 8.93951 73.1729 10.2234 67.9279 11.341ZM16.0714 23.3943L16.5042 20.7243C25.8053 20.1746 36.7318 19.183 45.2915 18.027L45.0997 18.069C35.2325 20.202 24.7352 22.1415 16.0714 23.3943ZM64.9237 14.6009C64.7703 15.0483 64.6004 15.4775 64.4142 15.8848C63.9028 17.0043 63.2308 18.0434 62.398 19.004C61.5981 19.9646 60.6539 20.7389 59.5673 21.3325C58.4935 21.9169 57.3119 22.3205 56.0207 22.5469L62.3742 32.9895L65.2926 14.4968C66.7993 14.0695 68.211 13.6494 69.5058 13.2385C73.9472 12.0861 78.1038 10.8479 82.054 9.55313L90.5387 23.2281H90.6355L93.4461 5.48424C96.8941 4.16021 100.222 2.80695 103.491 1.45187L97.8346 37.2903H88.4276L74.7015 15.1177H74.6047L71.1019 37.2903H53.2813L46.61 23.3724H46.5132L44.3053 37.2903H34.9001L36.4287 27.6038C36.341 27.7609 36.2497 27.9179 36.1547 28.075C35.4662 29.2274 34.6261 30.3633 33.6345 31.4828C32.546 32.7301 31.3955 33.8021 30.1792 34.6988C28.9629 35.5937 27.6681 36.3151 26.2911 36.8593C24.916 37.3706 23.4988 37.7706 22.0433 38.0591C20.5877 38.3477 19.1085 38.4901 17.6036 38.4901C15.0761 38.4901 12.8042 38.1468 10.7881 37.4583C8.77187 36.7698 7.01319 35.7234 5.50835 34.3153C4.03639 32.9073 2.9242 31.2527 2.17361 29.3479C0.000370026 23.8363 1.20387 16.5586 3.92864 11.5182C5.20885 9.15136 6.90361 7.08769 9.01659 5.32718C11.0967 3.53563 13.3923 2.20064 15.9034 1.32038C18.4145 0.440127 21.1265 0 24.0375 0C25.893 0 27.5969 0.215498 29.1492 0.64832C30.7015 1.07932 32.1169 1.7112 33.3971 2.54397C34.6773 3.37492 35.7639 4.42319 36.6606 5.68695C37.5555 6.95072 38.2604 8.42999 38.7717 10.1266L29.2697 13.7736C29.078 12.9737 28.7821 12.2213 28.3822 11.5182C27.9822 10.8151 27.4946 10.2069 26.9175 9.69376C26.3423 9.14953 25.6702 8.74958 24.9013 8.49391C24.1343 8.23823 23.2851 8.11039 22.3574 8.11039C14.3529 8.11039 9.28687 18.1219 11.4163 25.1475C12.5248 28.8055 15.0396 30.8582 18.9021 30.8582C22.9929 30.8582 26.4537 28.6594 27.4453 24.5722L16.5207 24.6654C25.1771 23.4053 35.5959 21.4786 45.381 19.3638C52.5362 17.8169 59.3609 16.1678 64.9255 14.6027L64.9237 14.6009ZM39.0731 16.0564L41.4691 0.874776H55.5313C57.1329 0.874776 58.5939 1.14689 59.9216 1.49935C61.2493 1.85182 62.4181 2.40518 63.4481 3.1302C64.4635 3.84426 65.2469 4.75374 65.7747 5.88967C66.6039 7.67575 66.7226 9.83438 66.3975 11.8926C63.0226 12.6103 59.6276 13.2586 56.2179 13.8339C56.6508 12.5756 56.7421 10.9447 56.1047 9.92021C55.0546 8.22727 51.5482 8.21266 49.7694 8.07204L48.6682 14.9771C45.4796 15.4063 42.28 15.7661 39.0712 16.0546L39.0731 16.0564Z" fill="white"/>
</mask>
<g mask="url(#mask0_3412_3809)">
<path d="M105.747 0H0V38.4883H105.747V0Z" fill="url(#paint0_linear_3412_3809)"/>
</g>
<path d="M16.0703 23.3947L16.5031 20.7247C25.8042 20.175 36.7307 19.1834 45.2904 18.0273L45.0986 18.0693C35.2314 20.2024 24.7341 22.1419 16.0703 23.3947Z" fill="#0802A2"/>
<mask id="mask1_3412_3809" style="mask-type:luminance" maskUnits="userSpaceOnUse" x="103" y="13" width="130" height="25">
<path d="M112.487 37.3331C110.614 37.3331 109.048 36.9605 107.79 36.2154C106.532 35.4703 105.582 34.4166 104.943 33.0578C104.304 31.6991 103.982 30.092 103.982 28.242C103.982 26.8778 104.138 25.4971 104.452 24.1001C104.764 22.7048 105.237 21.368 105.873 20.0933C106.506 18.8185 107.315 17.6826 108.3 16.6891C109.284 15.6956 110.447 14.9067 111.791 14.3259C113.136 13.7434 114.668 13.453 116.392 13.453C117.864 13.453 119.111 13.59 120.137 13.8657C121.166 14.1415 122.19 14.5579 123.217 15.1185L121.345 19.087C120.594 18.6523 119.823 18.2871 119.034 17.9912C118.245 17.6936 117.365 17.5475 116.392 17.5475C115.345 17.5475 114.414 17.7593 113.599 18.1812C112.785 18.6049 112.084 19.1783 111.497 19.9033C110.909 20.6265 110.425 21.4429 110.046 22.3469C109.666 23.2509 109.383 24.1895 109.196 25.1629C109.01 26.1363 108.919 27.0787 108.919 27.9882C108.919 29.7432 109.284 31.0526 110.015 31.9146C110.745 32.7766 111.897 33.2076 113.475 33.2076C114.352 33.2076 115.241 33.0944 116.142 32.8679C117.042 32.6396 117.939 32.3474 118.839 31.9876V36.1132C118.193 36.367 117.329 36.6336 116.244 36.9131C115.159 37.1943 113.908 37.3331 112.491 37.3331M129.623 37.3331C127.74 37.3331 126.16 36.9678 124.886 36.2373C123.611 35.5068 122.647 34.4768 121.989 33.151C121.334 31.8233 121.005 30.271 121.005 28.494C121.005 27.2887 121.113 26.0834 121.33 24.8762C121.547 23.6709 121.874 22.5076 122.314 21.3862C122.754 20.2649 123.31 19.2221 123.98 18.2597C124.652 17.2973 125.443 16.4554 126.352 15.7358C127.262 15.0163 128.294 14.4556 129.446 14.0538C130.6 13.6521 131.878 13.4512 133.286 13.4512C136.101 13.4512 138.219 14.2419 139.642 15.8235C141.065 17.405 141.777 19.507 141.777 22.1314C141.777 23.3915 141.674 24.6388 141.468 25.8752C141.262 27.1134 140.944 28.2986 140.517 29.4309C140.087 30.5632 139.543 31.6078 138.882 32.5647C138.219 33.5235 137.441 34.3581 136.541 35.0722C135.641 35.7863 134.618 36.3414 133.471 36.7377C132.324 37.134 131.04 37.3331 129.621 37.3331H129.623ZM129.972 33.2076C130.606 33.2076 131.214 33.0907 131.796 32.8588C132.379 32.6268 132.925 32.2908 133.431 31.8507C133.938 31.4124 134.402 30.8736 134.821 30.2326C135.239 29.5934 135.595 28.8684 135.891 28.0594C136.188 27.2503 136.419 26.3591 136.581 25.3857C136.745 24.4123 136.828 23.3714 136.828 22.2592C136.828 20.8329 136.497 19.6878 135.836 18.8313C135.173 17.9748 134.194 17.5456 132.892 17.5456C132.225 17.5456 131.588 17.6789 130.98 17.9419C130.372 18.2067 129.809 18.5829 129.298 19.0687C128.785 19.5563 128.323 20.1316 127.91 20.8C127.497 21.4666 127.143 22.2062 126.847 23.0207C126.549 23.8371 126.327 24.7027 126.173 25.6232C126.02 26.5436 125.943 27.5005 125.943 28.494C125.943 29.4875 126.102 30.386 126.42 31.0891C126.738 31.7922 127.198 32.3219 127.8 32.6761C128.403 33.0304 129.13 33.2076 129.974 33.2076H129.972ZM179.969 13.8164H175.623L173.289 24.942C173.163 25.5629 173.026 26.2678 172.883 27.0568C172.741 27.8439 172.611 28.6054 172.494 29.3396C172.379 30.0737 172.284 30.6709 172.209 31.1311H172.083L166.687 13.8164H160.837L158.503 24.942C158.377 25.5629 158.242 26.2678 158.1 27.0568C157.957 27.8439 157.828 28.6054 157.711 29.3396C157.62 29.9167 157.546 30.3842 157.479 30.7933L157.409 31.133H157.298L151.902 13.8182H146.238L141.333 37.324H145.696L147.997 26.2623C148.114 25.7072 148.233 25.0698 148.346 24.3576C148.463 23.6435 148.57 22.9422 148.671 22.2519C148.769 21.5616 148.857 20.968 148.925 20.4749C148.994 19.9819 149.032 19.6714 149.043 19.5436H149.202L154.851 37.324H160.478L162.779 26.2623C162.894 25.7072 163.012 25.0698 163.127 24.3576C163.243 23.6435 163.352 22.9422 163.453 22.2519C163.478 22.0784 163.498 21.9305 163.522 21.7698L163.984 19.5472L169.633 37.324H175.058L179.962 13.8182L179.969 13.8164ZM178.196 37.2692L183.099 13.8164H196.08L195.224 17.8908H187.101L186.038 23.0408H193.608L192.735 27.1152H185.167L183.897 33.1619H192.022L191.166 37.2692H178.201H178.196ZM202.839 37.3349C200.966 37.3349 199.401 36.9624 198.142 36.2173C196.884 35.4721 195.934 34.4184 195.295 33.0597C194.656 31.7009 194.335 30.0938 194.335 28.2438C194.335 26.8796 194.49 25.499 194.804 24.1019C195.116 22.7066 195.589 21.3698 196.225 20.0951C196.858 18.8204 197.667 17.6844 198.652 16.6909C199.636 15.6975 200.799 14.9085 202.144 14.3278C203.488 13.7452 205.02 13.4548 206.744 13.4548C208.214 13.4548 209.463 13.5918 210.49 13.8676C211.518 14.1433 212.542 14.5597 213.569 15.1204L211.697 19.0888C210.946 18.6542 210.175 18.2889 209.387 17.9931C208.598 17.6954 207.717 17.5493 206.744 17.5493C205.697 17.5493 204.766 17.7611 203.952 18.183C203.137 18.6067 202.436 19.1801 201.85 19.9052C201.263 20.6283 200.778 21.4447 200.398 22.3487C200.018 23.2527 199.737 24.1914 199.55 25.1648C199.364 26.1382 199.273 27.0805 199.273 27.99C199.273 29.745 199.638 31.0544 200.368 31.9164C201.099 32.7784 202.251 33.2094 203.829 33.2094C204.706 33.2094 205.595 33.0962 206.496 32.8697C207.396 32.6414 208.293 32.3492 209.193 31.9895V36.115C208.546 36.3688 207.683 36.6355 206.598 36.9149C205.513 37.1961 204.262 37.3349 202.845 37.3349H202.839ZM216.659 37.2984L220.689 17.973H215.103L215.976 13.831H232.003L231.13 17.973H225.529L221.498 37.2984H216.659Z" fill="white"/>
</mask>
<g mask="url(#mask1_3412_3809)">
<path d="M231.997 13.4512H103.98V37.3331H231.997V13.4512Z" fill="url(#paint1_linear_3412_3809)"/>
</g>
<path d="M126.984 48.1098L125.901 45.8526L125.609 48.1098H124.345L125.017 42.9087H126.281L125.965 45.3558L127.824 42.9087H129.247L127.185 45.5512L128.514 48.1098H126.986H126.984ZM121.07 44.0629L120.91 45.312C121.357 45.312 121.669 45.27 121.848 45.186C122.044 45.0965 122.159 44.9267 122.19 44.682C122.219 44.4518 122.175 44.2966 122.057 44.2163C121.905 44.114 121.576 44.0629 121.072 44.0629H121.07ZM121.547 48.1098L120.764 46.437L120.548 48.1098H119.284L119.956 42.9087H121.684C122.212 42.9087 122.626 42.9981 122.926 43.1771C123.183 43.3287 123.355 43.546 123.443 43.8254C123.512 44.0537 123.529 44.324 123.488 44.6345C123.434 45.0636 123.287 45.4179 123.052 45.6992C122.816 45.9822 122.493 46.1941 122.078 46.3402L123.121 48.1098H121.547ZM114.328 45.4672C114.28 45.8416 114.366 46.174 114.585 46.4644C114.817 46.773 115.128 46.9264 115.519 46.9264C115.855 46.9264 116.171 46.8022 116.466 46.5557C116.795 46.2799 116.987 45.9256 117.043 45.4983C117.095 45.1002 117.014 44.7696 116.801 44.5085C116.587 44.2473 116.276 44.1158 115.869 44.1158C115.53 44.1158 115.221 44.2126 114.947 44.4062C114.596 44.6509 114.39 45.007 114.331 45.4709L114.328 45.4672ZM113.015 45.4526C113.07 45.0344 113.223 44.6272 113.479 44.2327C113.753 43.809 114.098 43.473 114.516 43.2228C114.983 42.9434 115.495 42.8046 116.05 42.8046C116.806 42.8046 117.407 43.0657 117.851 43.5898C118.294 44.114 118.468 44.7477 118.371 45.4946C118.278 46.216 117.955 46.8369 117.401 47.3592C116.813 47.9162 116.127 48.1938 115.34 48.1938C114.552 48.1938 113.986 47.929 113.537 47.3994C113.088 46.8698 112.914 46.2197 113.013 45.449L113.015 45.4526ZM109.397 48.1098L108.964 45.2134L107.795 48.1098H106.625L105.892 42.9087H107.266L107.583 45.88L108.705 42.9087H109.839L110.179 45.88L111.28 42.9087H112.631L110.564 48.1098H109.395H109.397ZM105.282 44.114H104.304L103.787 48.1098H102.516L103.032 44.114H102.061L102.216 42.9087H105.438L105.282 44.114ZM99.0823 46.9702H100.633L100.485 48.1098H97.6633L98.3353 42.9087H101.159L101.011 44.0482H99.4603L99.3507 44.9029H100.901L100.751 46.0571H99.201L99.0823 46.9702ZM95.0937 48.1098L93.5231 45.2134L93.1488 48.1098H91.885L92.5571 42.9087H93.7113L95.238 45.7978L95.6106 42.9087H96.8743L96.2023 48.1098H95.0937ZM85.3087 46.5027L85.3214 46.3986H86.5414C86.5103 46.6452 86.5304 46.826 86.6071 46.941C86.6765 47.0433 86.7824 47.0944 86.9267 47.0944C87.0564 47.0944 87.1696 47.0634 87.2682 47.0013C87.3906 46.9246 87.46 46.8114 87.4801 46.6616C87.4965 46.5319 87.4801 46.4297 87.4362 46.3585C87.3742 46.258 87.2299 46.1521 87.0089 46.0407C86.6272 45.8617 86.4062 45.754 86.3496 45.7193C86.1159 45.5768 85.9332 45.396 85.8018 45.1769C85.736 45.0545 85.6922 44.9413 85.6703 44.8317C85.6447 44.7002 85.641 44.5523 85.663 44.3879C85.7159 43.9807 85.9058 43.6264 86.2364 43.3232C86.6126 42.9781 87.071 42.8064 87.6171 42.8064C88.0718 42.8064 88.4242 42.9214 88.6708 43.1534C88.9703 43.4328 89.0854 43.851 89.0123 44.4117H87.8435C87.8599 44.2783 87.838 44.1633 87.7741 44.0665C87.6992 43.9569 87.5878 43.9021 87.4381 43.9021C87.3376 43.9021 87.2463 43.9314 87.1605 43.9916C87.0527 44.0683 86.9906 44.1724 86.9724 44.3057C86.9578 44.4208 86.9943 44.5231 87.082 44.6126C87.1714 44.702 87.3449 44.8153 87.6079 44.9486C87.7412 45.0162 87.8581 45.0801 87.9549 45.1367C88.028 45.1787 88.1101 45.2298 88.2014 45.2864C88.4334 45.4362 88.6014 45.6243 88.7 45.8508C88.7895 46.0571 88.8187 46.2872 88.7859 46.5356C88.7311 46.9556 88.5393 47.3264 88.2106 47.6478C87.8271 48.024 87.3504 48.2121 86.7843 48.2121C86.2583 48.2121 85.8675 48.0751 85.6082 47.803C85.3324 47.509 85.232 47.0743 85.305 46.5027H85.3087ZM82.7501 48.1098L81.1795 45.2134L80.8051 48.1098H79.5414L80.2134 42.9087H81.3676L82.8944 45.7978L83.2669 42.9087H84.5307L83.8586 48.1098H82.7501ZM74.5849 45.4672C74.5374 45.8416 74.6233 46.174 74.8424 46.4644C75.0743 46.773 75.3848 46.9264 75.7756 46.9264C76.1116 46.9264 76.4276 46.8022 76.7234 46.5557C77.0522 46.2799 77.2439 45.9256 77.3005 45.4983C77.3517 45.1002 77.2713 44.7696 77.0576 44.5085C76.844 44.2473 76.5335 44.1158 76.1263 44.1158C75.7866 44.1158 75.4779 44.2126 75.204 44.4062C74.8534 44.6509 74.647 45.007 74.5886 45.4709L74.5849 45.4672ZM73.2718 45.4526C73.3266 45.0344 73.48 44.6272 73.7357 44.2327C74.0096 43.809 74.3548 43.473 74.773 43.2228C75.2405 42.9434 75.7519 42.8046 76.3071 42.8046C77.0631 42.8046 77.664 43.0657 78.1077 43.5898C78.5515 44.114 78.725 44.7477 78.6282 45.4946C78.5351 46.216 78.2118 46.8369 77.6585 47.3592C77.0704 47.9162 76.3838 48.1938 75.5966 48.1938C74.8095 48.1938 74.2434 47.929 73.7941 47.3994C73.3449 46.8698 73.1714 46.2197 73.27 45.449L73.2718 45.4526ZM71.0821 42.9068H72.3459L71.6739 48.108H70.4101L71.0821 42.9068ZM69.9115 44.1122H68.9326L68.4158 48.108H67.1447L67.6616 44.1122H66.69L66.8452 42.9068H70.0667L69.9115 44.1122ZM63.7534 44.6052L63.0192 46.2817H64.0492L63.7534 44.6052ZM64.4163 48.108L64.2574 47.3483H62.5444L62.1682 48.108H60.7876L63.4539 42.9068H64.4839L65.8171 48.108H64.4163ZM59.9657 42.9068H61.2825L59.0088 48.108H57.6208L56.6986 42.9068H58.008L58.5266 46.395L59.9657 42.9068ZM53.3346 44.061L53.1739 45.3102C53.6213 45.3102 53.9336 45.2682 54.1126 45.1842C54.308 45.0947 54.4231 44.9248 54.4541 44.6801C54.4833 44.45 54.4395 44.2948 54.3208 44.2144C54.1692 44.1122 53.8405 44.061 53.3364 44.061H53.3346ZM53.8113 48.108L53.0278 46.4352L52.8123 48.108H51.5485L52.2206 42.9068H53.9482C54.476 42.9068 54.8906 42.9963 55.1901 43.1753C55.4476 43.3269 55.6193 43.5442 55.7069 43.8236C55.7763 44.0519 55.7927 44.3222 55.7526 44.6326C55.6978 45.0618 55.5517 45.4161 55.3161 45.6973C55.0805 45.9804 54.7573 46.1923 54.3427 46.3384L55.3855 48.108H53.8113ZM48.6996 46.9684H50.2501L50.1021 48.108H47.2806L47.9526 42.9068H50.7742L50.6263 44.0464H49.0758L48.9662 44.9011H50.5167L50.3669 46.0553H48.8165L48.6978 46.9684H48.6996ZM42.7168 46.5009L42.7296 46.3968H43.9495C43.9184 46.6433 43.9385 46.8241 44.0152 46.9392C44.0846 47.0415 44.1906 47.0926 44.3348 47.0926C44.4645 47.0926 44.5777 47.0616 44.6763 46.9995C44.7987 46.9228 44.8681 46.8095 44.8882 46.6598C44.9046 46.5301 44.8882 46.4278 44.8444 46.3566C44.7823 46.2562 44.638 46.1503 44.417 46.0389C44.0353 45.8599 43.8144 45.7521 43.7577 45.7174C43.524 45.575 43.3414 45.3942 43.2099 45.175C43.1441 45.0527 43.1003 44.9395 43.0784 44.8299C43.0528 44.6984 43.0491 44.5505 43.0711 44.3861C43.124 43.9788 43.314 43.6246 43.6445 43.3214C44.0207 42.9762 44.4791 42.8046 45.0252 42.8046C45.4799 42.8046 45.8324 42.9196 46.0789 43.1515C46.3784 43.431 46.4935 43.8492 46.4204 44.4098H45.2516C45.268 44.2765 45.2461 44.1615 45.1822 44.0647C45.1073 43.9551 44.9959 43.9003 44.8462 43.9003C44.7457 43.9003 44.6544 43.9295 44.5686 43.9898C44.4608 44.0665 44.3988 44.1706 44.3805 44.3039C44.3659 44.419 44.4024 44.5212 44.4901 44.6107C44.5795 44.7002 44.753 44.8134 45.016 44.9468C45.1493 45.0143 45.2662 45.0782 45.363 45.1349C45.4361 45.1769 45.5182 45.228 45.6096 45.2846C45.8415 45.4344 46.0095 45.6225 46.1081 45.8489C46.1976 46.0553 46.2268 46.2854 46.1958 46.5338C46.141 46.9538 45.9492 47.3245 45.6205 47.646C45.237 48.0222 44.7603 48.2103 44.1942 48.2103C43.6682 48.2103 43.2774 48.0733 43.0181 47.8012C42.7423 47.5072 42.6419 47.0725 42.7149 46.5009H42.7168ZM39.8934 46.9684H41.4439L41.2959 48.108H38.4744L39.1464 42.9068H41.968L41.8201 44.0464H40.2696L40.16 44.9011H41.7105L41.5608 46.0553H40.0103L39.8916 46.9684H39.8934ZM35.2145 44.061L35.0538 45.3102C35.5012 45.3102 35.8135 45.2682 35.9925 45.1842C36.1879 45.0947 36.303 44.9248 36.334 44.6801C36.3632 44.45 36.3194 44.2948 36.2007 44.2144C36.0491 44.1122 35.7204 44.061 35.2163 44.061H35.2145ZM35.6912 48.108L34.9077 46.4352L34.6922 48.108H33.4284L34.1005 42.9068H35.8281C36.3559 42.9068 36.7705 42.9963 37.07 43.1753C37.3275 43.3269 37.4992 43.5442 37.5868 43.8236C37.6562 44.0519 37.6727 44.3222 37.6325 44.6326C37.5777 45.0618 37.4316 45.4161 37.196 45.6973C36.9604 45.9804 36.6372 46.1923 36.2226 46.3384L37.2654 48.108H35.6912ZM28.9906 46.9684H30.479L30.3311 48.108H27.5716L28.2437 42.9068H29.5148L28.9906 46.9684ZM24.7811 44.6052L24.047 46.2817H25.077L24.7811 44.6052ZM25.4441 48.108L25.2852 47.3483H23.5722L23.1959 48.108H21.8153L24.4816 42.9068H25.5116L26.8448 48.108H25.4441ZM19.3827 43.988L19.2622 44.9157H19.3992C19.7133 44.9157 19.9251 44.892 20.0383 44.8481C20.1918 44.786 20.2831 44.6527 20.3086 44.4482C20.3342 44.2528 20.2849 44.1286 20.1607 44.072C20.0365 44.0154 19.7772 43.988 19.3809 43.988H19.3827ZM19.1344 45.9165L18.9901 47.0269C19.0065 47.0342 19.0339 47.0415 19.0777 47.0506C19.1197 47.0597 19.1837 47.0634 19.2731 47.0634C19.5014 47.0634 19.6932 47.025 19.8466 46.9447C20.0621 46.8351 20.1844 46.6543 20.2173 46.4059C20.2429 46.2142 20.1991 46.09 20.0877 46.0297C19.947 45.953 19.6293 45.9147 19.1344 45.9147V45.9165ZM19.191 48.108H17.624L18.2961 42.9068H20.0639C20.5844 42.9068 20.9661 43.0201 21.209 43.2465C21.4537 43.4748 21.5487 43.7962 21.4939 44.2144L21.4829 44.3076C21.461 44.4811 21.4117 44.6308 21.3332 44.755C21.2071 44.9595 21.0008 45.1367 20.7141 45.2901C21.0136 45.4088 21.2236 45.5659 21.3423 45.7558C21.461 45.9475 21.5012 46.1941 21.4628 46.4972C21.4263 46.7785 21.3624 47.0086 21.2692 47.1894C21.1286 47.4615 20.9149 47.6734 20.6227 47.8249C20.2593 48.013 19.7827 48.108 19.1891 48.108H19.191ZM12.6676 45.4654C12.6201 45.8398 12.7059 46.1722 12.9251 46.4625C13.157 46.7712 13.4675 46.9246 13.8583 46.9246C14.1943 46.9246 14.5103 46.8004 14.8061 46.5539C15.1349 46.2781 15.3266 45.9238 15.3832 45.4965C15.4344 45.0983 15.354 44.7678 15.1403 44.5066C14.9267 44.2455 14.6162 44.114 14.2089 44.114C13.8693 44.114 13.5606 44.2108 13.2867 44.4044C12.936 44.6491 12.7297 45.0052 12.6712 45.4691L12.6676 45.4654ZM11.3545 45.4508C11.4093 45.0326 11.5627 44.6253 11.8184 44.2309C12.0923 43.8072 12.4375 43.4711 12.8557 43.2209C13.3232 42.9415 13.8346 42.8027 14.3897 42.8027C15.1458 42.8027 15.7467 43.0639 16.1904 43.588C16.6342 44.1122 16.8077 44.7459 16.7109 45.4928C16.6178 46.2142 16.2945 46.8351 15.7412 47.3574C15.1531 47.9144 14.4664 48.192 13.6793 48.192C12.8922 48.192 12.3261 47.9272 11.8768 47.3976C11.4276 46.868 11.2541 46.2178 11.3527 45.4472L11.3545 45.4508ZM8.79228 46.9684H10.2807L10.1327 48.108H7.37328L8.04534 42.9068H9.31641L8.79228 46.9684ZM3.42126 46.2233L3.55458 45.186H6.52772C6.40171 46.1576 6.05838 46.91 5.49772 47.4451C4.9608 47.9546 4.28874 48.2103 3.47971 48.2103C2.74372 48.2103 2.14837 47.9528 1.69546 47.4396C1.23524 46.9155 1.05444 46.2763 1.15306 45.5165C1.2462 44.7988 1.56214 44.1761 2.10088 43.6519C2.67981 43.0876 3.361 42.8064 4.14446 42.8064C4.7453 42.8064 5.2603 42.9799 5.68582 43.325C5.83192 43.4511 5.95245 43.5752 6.04924 43.6939C6.1296 43.8035 6.20082 43.9186 6.26109 44.0409C6.34692 44.2181 6.41449 44.4044 6.46015 44.6034H5.01924C4.84757 44.4263 4.69051 44.3021 4.54989 44.229C4.3764 44.1432 4.2029 44.0994 4.02393 44.0994C3.67877 44.0994 3.361 44.2108 3.06697 44.4354C2.72912 44.6929 2.53188 45.0362 2.47709 45.4672C2.42413 45.88 2.51727 46.227 2.76016 46.5064C2.99575 46.7803 3.29891 46.9173 3.66598 46.9173C3.8687 46.9173 4.06045 46.8735 4.24491 46.7858C4.48597 46.6689 4.70695 46.4808 4.90966 46.2233H3.42492H3.42126Z" fill="#0802A2"/>
<mask id="mask2_3412_3809" style="mask-type:luminance" maskUnits="userSpaceOnUse" x="130" y="42" width="96" height="4">
<path d="M131.749 42.834H225.432L224.828 45.4054H130.889L131.749 42.834Z" fill="white"/>
</mask>
<g mask="url(#mask2_3412_3809)">
<path d="M225.432 42.834H130.889V45.4072H225.432V42.834Z" fill="url(#paint2_linear_3412_3809)"/>
</g>
</g>
<defs>
<linearGradient id="paint0_linear_3412_3809" x1="1.05192" y1="19.2451" x2="105.747" y2="19.2451" gradientUnits="userSpaceOnUse">
<stop stop-color="#342481"/>
<stop offset="1" stop-color="#B31C81"/>
</linearGradient>
<linearGradient id="paint1_linear_3412_3809" x1="103.98" y1="25.393" x2="231.999" y2="25.393" gradientUnits="userSpaceOnUse">
<stop stop-color="#342481"/>
<stop offset="1" stop-color="#B31C81"/>
</linearGradient>
<linearGradient id="paint2_linear_3412_3809" x1="130.889" y1="44.1197" x2="225.432" y2="44.1197" gradientUnits="userSpaceOnUse">
<stop stop-color="#342481"/>
<stop offset="1" stop-color="#B31C81"/>
</linearGradient>
<clipPath id="clip0_3412_3809">
<rect width="232" height="48.2113" fill="white"/>
</clipPath>
</defs>
</svg>
